<svg width="26" height="35" viewBox="0 0 26 35" fill="none" xmlns="http://www.w3.org/2000/svg">
<g clip-path="url(#clip0)">
<path fill-rule="evenodd" clip-rule="evenodd" d="M24.8635 12.351L25.9471 11.4211V4.38929L21.1281 0H12.6817L7.79541 4.3931V9.27849H14.5602V6.31906H19.2306V9.48748H15.7314V15.2965H19.2745V19.1388H14.5125V16.1343H7.86477L7.8327 21.0565L12.6902 25.4134H21.1307L25.9569 20.9994V13.3673L24.8635 12.351ZM25.0651 20.6259L20.7761 24.5489H13.0416L8.72321 20.6805L8.74742 16.9963H13.6207V20.0021H20.1637V14.4326H16.6219V10.3514H20.1205V5.45581H13.6704V8.41588H8.68526V4.77042L13.0305 0.863884H20.7761L25.0572 4.76343V11.0317L23.5523 12.3256L25.067 13.7358L25.0651 20.6259Z" fill="#A5A5A5"/>
<path fill-rule="evenodd" clip-rule="evenodd" d="M3.03531 0L0 5.15218V21.0121L3.09158 25.4185H6.63659L6.64967 0H3.03531ZM5.74673 24.554H3.56202L0.889851 20.7427V5.38212L3.55417 0.864519H5.75917L5.74673 24.554Z" fill="#A5A5A5"/>
<path d="M0.831676 28.3232C0.831676 28.5493 0.737675 28.6914 0.549672 28.7494C0.637593 28.7666 0.715086 28.8165 0.765592 28.8885C0.813487 28.9724 0.836157 29.0677 0.831022 29.1635V30.2027C0.836939 30.3123 0.805176 30.4207 0.740728 30.5108C0.680533 30.5851 0.578461 30.6226 0.433206 30.6226H0.0209961V27.7515H0.434515C0.57977 27.7515 0.681841 27.7889 0.742037 27.8633C0.806385 27.9529 0.837943 28.0609 0.831676 28.1701V28.3232ZM0.308235 28.6871C0.362874 28.6915 0.417865 28.685 0.469766 28.6678C0.521668 28.6506 0.569363 28.6233 0.609868 28.5874C0.678655 28.5102 0.713227 28.4097 0.70605 28.3079V28.1466C0.707405 28.0788 0.687307 28.0123 0.648472 27.956C0.625873 27.927 0.59592 27.9041 0.561523 27.8896C0.527127 27.8752 0.489458 27.8696 0.452181 27.8734H0.151856V28.6846L0.308235 28.6871ZM0.704742 29.1762C0.712642 29.0782 0.681229 28.9811 0.617065 28.905C0.558832 28.8453 0.461341 28.8161 0.325247 28.8161H0.151856V30.4968H0.454144C0.492556 30.4996 0.531099 30.4936 0.56667 30.4792C0.602241 30.4649 0.633846 30.4426 0.658941 30.4143C0.681072 30.3888 0.696837 30.3586 0.705009 30.3262C0.71318 30.2938 0.713537 30.2601 0.70605 30.2275L0.704742 29.1762Z" fill="#A5A5A5"/>
<path d="M5.80893 27.7515V27.8785H5.15463V28.6897H5.64797V28.8167H5.15332V30.5064H5.80762V30.6302H5.02246V27.7515H5.80893Z" fill="#A5A5A5"/>
<path d="M9.83936 30.6226L10.1763 27.7515H10.5689L10.9059 30.6251H10.775L10.7024 29.9957H10.0481L9.97545 30.6251L9.83936 30.6226ZM10.0566 29.8692H10.686L10.4557 27.8734H10.2934L10.0566 29.8692Z" fill="#A5A5A5"/>
<path d="M15.7379 27.7515H15.8688V30.2288C15.8752 30.3373 15.8446 30.4449 15.7818 30.535C15.7235 30.6099 15.6215 30.6467 15.4769 30.6467H15.397C15.2524 30.6467 15.1497 30.6099 15.0902 30.535C15.0258 30.4455 14.9943 30.3377 15.0005 30.2288V27.7515H15.1314V30.2523C15.13 30.32 15.1501 30.3865 15.189 30.4428C15.2114 30.4721 15.2413 30.4952 15.2757 30.5097C15.3102 30.5243 15.3479 30.53 15.3853 30.5261H15.4919C15.5293 30.5298 15.5669 30.5241 15.6013 30.5095C15.6357 30.4949 15.6656 30.472 15.6882 30.4428C15.7267 30.3864 15.7468 30.32 15.7458 30.2523L15.7379 27.7515Z" fill="#A5A5A5"/>
<path d="M21.0351 27.8736H20.5575V30.6228H20.4266V27.8736H19.9529V27.7466H21.0325L21.0351 27.8736Z" fill="#A5A5A5"/>
<path d="M25.8005 27.7515H25.9314V29.4094C25.9374 29.5164 25.9076 29.6225 25.8463 29.7117C25.7892 29.7858 25.691 29.8246 25.5519 29.828V30.6226H25.421V29.828C25.2819 29.8225 25.184 29.7831 25.1272 29.7098C25.0656 29.6215 25.0355 29.5159 25.0415 29.4094V27.7515H25.1724V29.4329C25.171 29.5006 25.1911 29.5671 25.23 29.6234C25.2524 29.6526 25.2824 29.6756 25.3168 29.6901C25.3512 29.7045 25.389 29.71 25.4263 29.706H25.5571C25.5944 29.71 25.6321 29.7045 25.6666 29.6901C25.701 29.6756 25.7309 29.6526 25.7534 29.6234C25.7922 29.5671 25.8123 29.5006 25.811 29.4329L25.8005 27.7515Z" fill="#A5A5A5"/>
<path d="M0.653706 32.113C0.725616 32.1111 0.797208 32.123 0.864391 32.1479C0.917438 32.1685 0.964738 32.2009 1.00245 32.2426C1.03843 32.2835 1.06517 32.3314 1.08097 32.383C1.09826 32.4383 1.10687 32.4959 1.10648 32.5538V32.7565C1.11394 32.8579 1.08952 32.9591 1.03647 33.0467C0.991943 33.11 0.927049 33.1572 0.85196 33.1808C0.926783 33.2072 0.991271 33.2556 1.03647 33.3193C1.08954 33.4071 1.11395 33.5086 1.10648 33.6102V34.5338C1.10851 34.6034 1.09628 34.6727 1.0705 34.7377C1.04934 34.7899 1.01597 34.8367 0.973006 34.8743C0.930728 34.9091 0.881499 34.935 0.828405 34.9505C0.771139 34.9673 0.71158 34.9757 0.651743 34.9752H0.0209961V32.113H0.653706ZM0.781295 32.5538C0.781958 32.5229 0.77232 32.4926 0.753814 32.4674C0.741479 32.4538 0.725932 32.4433 0.708501 32.4368C0.691069 32.4302 0.672269 32.4279 0.653706 32.43H0.348147V33.0239H0.569301C0.597255 33.0244 0.625029 33.0194 0.65091 33.0091C0.676792 32.9989 0.700234 32.9836 0.719791 32.9642C0.741209 32.9419 0.75771 32.9155 0.768286 32.8868C0.778861 32.8581 0.783288 32.8276 0.781295 32.7971V32.5538ZM0.781295 33.5702C0.783288 33.5397 0.778861 33.5092 0.768286 33.4805C0.75771 33.4518 0.741209 33.4254 0.719791 33.4031C0.700234 33.3837 0.676792 33.3684 0.65091 33.3581C0.625029 33.3479 0.597255 33.3428 0.569301 33.3434H0.348147V34.6589H0.653706C0.686454 34.6602 0.718706 34.6508 0.745308 34.6322C0.758698 34.6199 0.768926 34.6047 0.775175 34.5878C0.781423 34.5709 0.783519 34.5528 0.781295 34.535V33.5702Z" fill="#A5A5A5"/>
<path d="M3.31805 33.6265C3.32061 33.7332 3.28781 33.8378 3.22448 33.925C3.18706 33.9698 3.13976 34.0058 3.08608 34.0304C3.03241 34.0551 2.97372 34.0677 2.91435 34.0673V34.975H2.58719V34.0673C2.52782 34.0677 2.46913 34.0551 2.41545 34.0304C2.36178 34.0058 2.31448 33.9698 2.27705 33.925C2.21373 33.8378 2.18093 33.7332 2.18349 33.6265V32.1128H2.51064V33.6265C2.51015 33.6577 2.52053 33.6881 2.54008 33.7129C2.55235 33.726 2.56761 33.7362 2.58466 33.7426C2.6017 33.749 2.62004 33.7514 2.63823 33.7497H2.86331C2.8814 33.7514 2.89965 33.749 2.91658 33.7426C2.93352 33.7362 2.94867 33.726 2.9608 33.7129C2.98055 33.6882 2.99115 33.6578 2.9909 33.6265V32.1128H3.31805V33.6265Z" fill="#A5A5A5"/>
<path d="M6.36367 32.113C6.43537 32.111 6.50676 32.1229 6.5737 32.1479C6.62764 32.1682 6.67585 32.2007 6.71438 32.2426C6.75036 32.2835 6.7771 32.3314 6.79289 32.383C6.81019 32.4384 6.81879 32.496 6.81841 32.5538V32.7565C6.82549 32.8579 6.80111 32.959 6.7484 33.0468C6.70349 33.1099 6.63842 33.157 6.56323 33.1808C6.63815 33.2074 6.70281 33.2557 6.7484 33.3193C6.80124 33.4072 6.82563 33.5086 6.81841 33.6102V34.5338C6.82011 34.6034 6.80789 34.6726 6.78242 34.7377C6.76128 34.7901 6.72764 34.8369 6.68428 34.8743C6.64224 34.909 6.59322 34.935 6.54033 34.9505C6.48304 34.9672 6.4235 34.9756 6.36367 34.9752H5.73096V32.113H6.36367ZM6.49126 32.5538C6.49192 32.5229 6.48228 32.4926 6.46378 32.4674C6.45141 32.4539 6.43586 32.4434 6.41843 32.4369C6.40101 32.4303 6.38223 32.428 6.36367 32.43H6.05811V33.0239H6.27861C6.30667 33.0245 6.33455 33.0195 6.36055 33.0092C6.38654 32.999 6.4101 32.9836 6.42975 32.9642C6.45104 32.9418 6.46747 32.9154 6.47803 32.8867C6.4886 32.858 6.4931 32.8276 6.49126 32.7971V32.5538ZM6.49126 33.5702C6.49327 33.5403 6.48916 33.5103 6.47917 33.4819C6.46917 33.4536 6.45349 33.4274 6.43303 33.405C6.41337 33.3856 6.38982 33.3702 6.36382 33.36C6.33783 33.3497 6.30994 33.3447 6.28188 33.3453H6.06138V34.6608H6.36694C6.39968 34.662 6.4319 34.6526 6.45854 34.6341C6.47181 34.6217 6.48195 34.6065 6.48819 34.5896C6.49443 34.5728 6.4966 34.5548 6.49453 34.537L6.49126 33.5702Z" fill="#A5A5A5"/>
<path d="M8.25391 34.6574H8.90821V34.975H7.92676V32.1128H8.25391V34.6574Z" fill="#A5A5A5"/>
<path d="M10.8504 34.4262H10.2681L10.2026 34.975H9.87549L10.2111 32.1128H10.908L11.2482 34.975H10.9165L10.8504 34.4262ZM10.8164 34.1378L10.6122 32.4298H10.5017L10.3021 34.1378H10.8164Z" fill="#A5A5A5"/>
<path d="M13.0762 33.7498H13.4033V34.5584C13.4037 34.6163 13.3951 34.6739 13.3778 34.7293C13.362 34.7809 13.3353 34.8287 13.2993 34.8697C13.2611 34.9116 13.213 34.9441 13.1593 34.9643C13.0921 34.9895 13.0205 35.0016 12.9486 34.9999H12.7026C12.6306 35.0016 12.559 34.9895 12.4919 34.9643C12.4381 34.9441 12.3901 34.9116 12.3518 34.8697C12.3159 34.8287 12.2891 34.7809 12.2733 34.7293C12.256 34.6739 12.2474 34.6163 12.2478 34.5584V32.5289C12.2474 32.471 12.256 32.4134 12.2733 32.3581C12.2893 32.3065 12.316 32.2587 12.3518 32.2177C12.3902 32.1759 12.4382 32.1435 12.4919 32.123C12.5591 32.0981 12.6306 32.0862 12.7026 32.0881H12.9486C13.0205 32.0862 13.0921 32.0981 13.1593 32.123C13.2129 32.1435 13.2609 32.1759 13.2993 32.2177C13.3351 32.2587 13.3619 32.3065 13.3778 32.3581C13.3951 32.4134 13.4037 32.471 13.4033 32.5289V33.0816H13.0762V32.5289C13.0768 32.4977 13.0664 32.4672 13.0467 32.4425C13.0344 32.4294 13.0191 32.4193 13.0021 32.4129C12.9851 32.4065 12.9668 32.404 12.9486 32.4057H12.7026C12.6844 32.404 12.666 32.4064 12.649 32.4128C12.6319 32.4192 12.6167 32.4294 12.6044 32.4425C12.5848 32.4672 12.5744 32.4977 12.575 32.5289V34.5584C12.5744 34.5896 12.5848 34.6201 12.6044 34.6448C12.6166 34.6581 12.6318 34.6684 12.6489 34.6749C12.6659 34.6814 12.6843 34.6839 12.7026 34.6823H12.9486C12.9668 34.6839 12.9852 34.6813 13.0022 34.6748C13.0192 34.6683 13.0345 34.658 13.0467 34.6448C13.0664 34.6201 13.0768 34.5896 13.0762 34.5584V33.7498Z" fill="#A5A5A5"/>
<path d="M14.5163 32.1128H14.8434V33.0485H15.1241L15.4467 32.1128H15.7954L15.4258 33.185L15.8183 34.975H15.4827L15.1169 33.3171H14.8408V34.975H14.5137L14.5163 32.1128Z" fill="#A5A5A5"/>
<path d="M18.4782 32.4425C18.4597 32.4677 18.45 32.498 18.4507 32.5289V32.8967C18.4494 32.9285 18.459 32.9598 18.4782 32.9856C18.4908 32.9986 18.5064 33.0085 18.5236 33.0145C18.5409 33.0206 18.5594 33.0227 18.5776 33.0206H18.7864C18.858 33.0187 18.9294 33.0306 18.9964 33.0555C19.0502 33.076 19.0982 33.1087 19.1364 33.1508C19.1724 33.1915 19.1992 33.2391 19.2149 33.2905C19.2322 33.3461 19.2408 33.4039 19.2404 33.462V34.559C19.2408 34.6169 19.2322 34.6745 19.2149 34.7299C19.1991 34.7815 19.1724 34.8293 19.1364 34.8703C19.0983 34.9124 19.0503 34.9448 18.9964 34.9649C18.9295 34.9901 18.8581 35.0022 18.7864 35.0005H18.5776C18.5059 35.0022 18.4345 34.9901 18.3676 34.9649C18.3137 34.9448 18.2657 34.9124 18.2276 34.8703C18.1914 34.8295 18.1646 34.7816 18.1491 34.7299C18.1318 34.6745 18.1232 34.6169 18.1235 34.559V33.7047H18.4507V34.5584C18.45 34.5893 18.4597 34.6196 18.4782 34.6448C18.4904 34.6584 18.5058 34.6689 18.5232 34.6754C18.5405 34.6819 18.5592 34.6843 18.5776 34.6823H18.7864C18.8045 34.6839 18.8228 34.6814 18.8397 34.6749C18.8567 34.6683 18.8718 34.658 18.8838 34.6448C18.9035 34.6201 18.9139 34.5896 18.9133 34.5584V33.4614C18.9139 33.43 18.9035 33.3993 18.8838 33.3744C18.8717 33.3612 18.8566 33.3511 18.8396 33.3447C18.8227 33.3383 18.8044 33.3358 18.7864 33.3375H18.5776C18.5059 33.3394 18.4346 33.3275 18.3676 33.3026C18.3138 33.2821 18.2658 33.2494 18.2276 33.2073C18.1914 33.1668 18.1646 33.1191 18.1491 33.0676C18.1318 33.012 18.1232 32.9541 18.1235 32.8961V32.5289C18.1232 32.471 18.1318 32.4134 18.1491 32.358C18.1647 32.3064 18.1915 32.2585 18.2276 32.2177C18.2659 32.1758 18.3138 32.1433 18.3676 32.123C18.4346 32.0981 18.5059 32.0862 18.5776 32.0881H18.7864C18.858 32.0862 18.9294 32.0981 18.9964 32.123C19.0501 32.1433 19.0981 32.1758 19.1364 32.2177C19.1723 32.2587 19.199 32.3065 19.2149 32.358C19.2322 32.4134 19.2408 32.471 19.2404 32.5289V32.7315H18.9133V32.5289C18.9139 32.4977 18.9035 32.4672 18.8838 32.4425C18.8717 32.4294 18.8566 32.4192 18.8396 32.4128C18.8227 32.4064 18.8044 32.404 18.7864 32.4057H18.5776C18.5592 32.4035 18.5406 32.4058 18.5232 32.4122C18.5059 32.4186 18.4904 32.429 18.4782 32.4425Z" fill="#A5A5A5"/>
<path d="M21.5731 32.1129V32.4305H21.0333V34.9758H20.7061V32.4299H20.167V32.1123L21.5731 32.1129Z" fill="#A5A5A5"/>
<path d="M23.3952 34.4262H22.8135L22.748 34.975H22.4209L22.7566 32.1128H23.4534L23.793 34.975H23.4619L23.3952 34.4262ZM23.3611 34.1378L23.1576 32.4298H23.0471L22.8475 34.1378H23.3611Z" fill="#A5A5A5"/>
<path d="M25.9999 34.9752H25.6342L25.3666 34.0675H25.167V34.9752H24.8398V32.113H25.4686C25.5403 32.1111 25.6117 32.123 25.6787 32.1479C25.7321 32.1676 25.78 32.1991 25.8188 32.2399C25.8575 32.2807 25.8859 32.3297 25.9018 32.383C25.9191 32.4383 25.9277 32.4959 25.9273 32.5538V33.6267C25.9328 33.7218 25.9077 33.8161 25.8553 33.8967C25.8087 33.9607 25.7442 34.0105 25.6695 34.0402L25.9999 34.9752ZM25.5962 32.5538C25.5969 32.5229 25.5872 32.4926 25.5687 32.4674C25.5564 32.4539 25.5408 32.4434 25.5234 32.4368C25.506 32.4303 25.4872 32.428 25.4686 32.43H25.167V33.7499H25.4686C25.5014 33.7511 25.5336 33.7417 25.5602 33.7232C25.5734 33.7109 25.5836 33.6958 25.5898 33.679C25.596 33.6623 25.5982 33.6444 25.5962 33.6267V32.5538Z" fill="#A5A5A5"/>
</g>
<defs>
<clipPath id="clip0">
<rect width="26" height="35" fill="white"/>
</clipPath>
</defs>
</svg>
