<svg width="28" height="33" viewBox="0 0 28 33" fill="none" xmlns="http://www.w3.org/2000/svg">
<path d="M25.9999 13.725L27.1249 12.75V5.4L22.1749 0.75H13.5499L8.5249 5.4V10.5H15.4999V7.425H20.2999V10.725H16.6999V16.8H20.2999V20.85H15.4249V17.7H8.5999V22.875L13.5499 27.45H22.1749L27.1249 22.8V14.85L25.9999 13.725ZM26.2249 22.425L21.8749 26.55H13.9249L9.5749 22.5V18.6H14.5249V21.75H21.1999V15.9H17.5999V11.625H21.1999V6.525H14.5999V9.675H9.4999V5.775L13.9249 1.65H21.7999L26.1499 5.775V12.375L24.5749 13.725L26.1499 15.225V22.425H26.2249Z" fill="#A5A5A5"/>
<path d="M0.875 6.15V22.8L4.025 27.45H7.625V0.75H3.95L0.875 6.15ZM6.725 1.65V26.55H4.475L1.775 22.575V6.45L4.475 1.725H6.725V1.65Z" fill="#A5A5A5"/>
<path d="M5.3 30.2249L5.225 30.1499C5.15 30.1499 5.15 30.1499 5.075 30.1499H4.625V32.2499H5.075C5.15 32.2499 5.15 32.2499 5.225 32.2499C5.3 32.2499 5.3 32.2499 5.3 32.1749L5.375 32.0999C5.375 32.0249 5.375 32.0249 5.375 31.9499V31.2749C5.375 31.1999 5.375 31.1249 5.3 31.0499C5.3 30.9749 5.225 30.9749 5.15 30.9749C5.225 30.9749 5.225 30.8999 5.3 30.8999C5.3 30.8249 5.375 30.7499 5.375 30.6749V30.5249C5.375 30.4499 5.375 30.4499 5.375 30.3749C5.375 30.2999 5.375 30.2999 5.3 30.2249ZM5.15 31.9499C5.075 32.0249 5.075 32.0249 5.075 32.0249H4.85V31.0499H5C5.075 31.0499 5.075 31.0499 5.075 31.1249C5.075 31.1249 5.15 31.1999 5.15 31.2749V31.9499ZM5.15 30.6749C5.15 30.7499 5.15 30.7499 5.075 30.8249L5 30.8999H4.85V30.4499H5.075H5.15V30.5249V30.6749Z" fill="#A5A5A5"/>
<path d="M6.72495 31.2749C6.72495 31.3499 6.64995 31.3499 6.64995 31.3499H6.49995H6.42495V31.2749V30.1499H6.19995V31.2749C6.19995 31.3499 6.19995 31.4249 6.27495 31.4999C6.34995 31.5749 6.42495 31.5749 6.49995 31.5749V32.2499H6.72495V31.5749C6.79995 31.5749 6.87495 31.4999 6.94995 31.4999C7.02495 31.4249 7.02495 31.3499 7.02495 31.2749V30.1499H6.79995V31.2749H6.72495Z" fill="#A5A5A5"/>
<path d="M9.425 30.2249L9.35 30.1499C9.275 30.1499 9.275 30.1499 9.2 30.1499H8.75V32.2499H9.2C9.275 32.2499 9.275 32.2499 9.35 32.2499C9.425 32.2499 9.425 32.2499 9.425 32.1749L9.5 32.0999C9.5 32.0249 9.5 32.0249 9.5 31.9499V31.2749C9.5 31.1999 9.5 31.1249 9.425 31.0499C9.425 30.9749 9.35 30.9749 9.275 30.9749C9.35 30.9749 9.35 30.8999 9.425 30.8999C9.425 30.8249 9.5 30.7499 9.5 30.6749V30.5249C9.5 30.4499 9.5 30.4499 9.5 30.3749C9.5 30.2999 9.5 30.2999 9.425 30.2249ZM9.275 31.9499C9.2 32.0249 9.2 32.0249 9.2 32.0249H8.975V31.0499H9.125C9.2 31.0499 9.2 31.0499 9.2 31.1249C9.2 31.1249 9.275 31.1999 9.275 31.2749V31.9499ZM9.275 30.6749C9.275 30.7499 9.275 30.7499 9.2 30.8249L9.125 30.8999H8.975V30.4499H9.2H9.275V30.5249V30.6749Z" fill="#A5A5A5"/>
<path d="M10.55 30.1499H10.325V32.2499H11.075V32.0249H10.55V30.1499Z" fill="#A5A5A5"/>
<path d="M11.975 30.1499L11.75 32.2499H11.975L12.05 31.8749H12.425L12.5 32.2499H12.725L12.5 30.1499H11.975ZM12.05 31.6499L12.2 30.4499H12.275L12.425 31.6499H12.05Z" fill="#A5A5A5"/>
<path d="M14.225 30.2249L14.15 30.1499C14.075 30.1499 14.075 30.1499 14 30.1499H13.85C13.775 30.1499 13.775 30.1499 13.7 30.1499C13.625 30.1499 13.625 30.2249 13.625 30.2249L13.55 30.2999C13.55 30.3749 13.55 30.3749 13.55 30.4499V31.9499C13.55 32.0249 13.55 32.0249 13.55 32.0999C13.55 32.1749 13.55 32.1749 13.625 32.1749L13.7 32.2499C13.775 32.2499 13.775 32.2499 13.85 32.2499H14C14.075 32.2499 14.075 32.2499 14.15 32.2499C14.225 32.2499 14.225 32.1749 14.225 32.1749L14.3 32.0999C14.3 32.0249 14.3 32.0249 14.3 31.9499V31.3499H14.075V31.9499V32.0249C14.075 32.0249 14.075 32.0249 14 32.0249H13.85H13.775V31.9499V30.4499V30.3749C13.775 30.3749 13.775 30.3749 13.85 30.3749H14H14.075V30.4499V30.8249H14.3V30.4499C14.3 30.3749 14.3 30.3749 14.3 30.2999C14.225 30.2999 14.225 30.2999 14.225 30.2249Z" fill="#A5A5A5"/>
<path d="M16.025 30.1499H15.725L15.5 30.8249H15.35V30.1499H15.125V32.2499H15.35V31.0499H15.5L15.8 32.2499H16.025L15.725 30.9749L16.025 30.1499Z" fill="#A5A5A5"/>
<path d="M18.425 30.2249L18.35 30.1499C18.275 30.1499 18.275 30.1499 18.2 30.1499H18.05C17.975 30.1499 17.975 30.1499 17.9 30.1499C17.825 30.1499 17.825 30.2249 17.825 30.2249C17.825 30.2249 17.75 30.2999 17.75 30.3749C17.75 30.4499 17.75 30.4499 17.75 30.5249V30.7499C17.75 30.8249 17.75 30.8249 17.75 30.8999C17.75 30.9749 17.75 30.9749 17.825 30.9749L17.9 31.0499C17.975 31.0499 17.975 31.0499 18.05 31.0499H18.2H18.275V31.1249V31.9499V32.0249C18.275 32.0249 18.275 32.0249 18.2 32.0249H18.05H17.975V31.9499V31.3499H17.75V31.9499C17.75 32.0249 17.75 32.0249 17.75 32.0999C17.75 32.1749 17.75 32.1749 17.825 32.1749C17.9 32.1749 17.9 32.2499 17.9 32.2499C17.975 32.2499 17.975 32.2499 18.05 32.2499H18.2C18.275 32.2499 18.275 32.2499 18.35 32.2499C18.425 32.2499 18.425 32.1749 18.425 32.1749L18.5 32.0999C18.5 32.0249 18.5 32.0249 18.5 31.9499V31.1249C18.5 31.0499 18.5 31.0499 18.5 30.9749C18.5 30.8999 18.5 30.8999 18.425 30.8999L18.35 30.8249C18.275 30.8249 18.275 30.8249 18.2 30.8249H18.05H17.975V30.7499V30.4499V30.3749C17.975 30.3749 17.975 30.3749 18.05 30.3749H18.2H18.275V30.4499V30.5999H18.5V30.4499C18.5 30.3749 18.5 30.3749 18.5 30.2999C18.5 30.2999 18.425 30.2999 18.425 30.2249Z" fill="#A5A5A5"/>
<path d="M19.175 30.3749H19.55V32.2499H19.775V30.3749H20.15V30.1499H19.175V30.3749Z" fill="#A5A5A5"/>
<path d="M21.05 30.1499L20.825 32.2499H21.05L21.125 31.8749H21.5L21.575 32.2499H21.8L21.575 30.1499H21.05ZM21.125 31.6499L21.275 30.4499H21.35L21.5 31.6499H21.125Z" fill="#A5A5A5"/>
<path d="M23.3 31.4249C23.3 31.3499 23.375 31.3499 23.375 31.1999V30.4499C23.375 30.3749 23.375 30.3749 23.375 30.2999C23.375 30.2249 23.375 30.2249 23.3 30.2249L23.225 30.1499C23.15 30.1499 23.15 30.1499 23.075 30.1499H22.625V32.2499H22.85V31.5749H23L23.225 32.2499H23.45L23.225 31.5749C23.225 31.4999 23.225 31.4999 23.3 31.4249ZM23.075 31.2749C23.075 31.2749 23.075 31.3499 23.075 31.2749C23 31.3499 23 31.3499 23 31.3499H22.775V30.3749H23H23.075V30.4499V31.2749Z" fill="#A5A5A5"/>
</svg>
