<svg width="199" height="112" fill="none" xmlns="http://www.w3.org/2000/svg"><path d="M97.434 7.626V7.5c0-1.834-1.05-3.22-5.264-3.22h-4.564V3.034h8.834V.584H83.63V11h8.54c4.214 0 5.264-1.498 5.264-3.374zm-9.828.854V6.632h4.13c1.246 0 1.582.378 1.582.882v.042c0 .49-.336.924-1.582.924h-4.13zM100.332.584V11h11.634V8.396h-7.714V6.968h7.448V4.434h-7.448V3.132h7.602V.584h-11.522zM115.133 11h3.976V7.038h6.51V11h3.962V.584h-3.962v3.682h-6.51V.584h-3.976V11zm21.785 0V6.338L142 11h5.18l-6.258-5.684 6.062-4.732h-4.942L136.918 4.7V.584h-3.976V11h3.976zm23.198 0h3.976V.584h-3.976l-6.538 6.552V.584h-3.976V11h3.976l6.538-6.538V11zm7.336 0h3.976V7.038h6.51V11h3.962V.584h-3.962v3.682h-6.51V.584h-3.976V11zm17.809 0h3.948V3.356h7.056V.584h-11.004V11z" fill="#fff"/><path d="M11 87.162l10 5.909v11.858l-10 5.909-10-5.909V93.071l10-5.91z" stroke="#fff" stroke-width="2"/><path d="M11 91.147l7 3.938v7.83l-7 3.938-7-3.938v-7.83l7-3.938z" stroke="#fff" stroke-width="2"/><path opacity=".7" d="M76 6H66L16.5 89.5" stroke="#fff"/><circle cx="76" cy="6" r="2" fill="#fff"/></svg>