<svg width="156" height="112" fill="none" xmlns="http://www.w3.org/2000/svg"><path d="M83.63 11h3.878V4.504L91.148 11h2.03l3.654-6.496V11h3.934V.584H95.53l-3.248 5.852L89.09.584h-5.46V11zM111.384.388c-6.748 0-7.602 3.192-7.602 5.166v.42c0 1.946.854 5.222 7.602 5.222h.63c6.734 0 7.588-3.276 7.588-5.222v-.42c0-1.974-.868-5.166-7.588-5.166h-.63zm4.102 5.264v.196c0 1.106-.714 2.534-3.794 2.534s-3.794-1.47-3.794-2.562v-.168c0-1.106.658-2.464 3.794-2.464 3.094 0 3.794 1.358 3.794 2.464zm14.685 5.544c6.286 0 7.252-2.926 7.252-4.298v-.224h-4.116c-.056.238-.364 1.708-3.43 1.708-2.8 0-3.5-1.47-3.5-2.59v-.168c0-1.162.616-2.436 3.486-2.436 3.01 0 3.36 1.33 3.43 1.596h4.13v-.182c-.014-1.33-.91-4.214-7.252-4.214h-.546c-6.496 0-7.364 3.178-7.364 5.166v.406c0 1.974.952 5.236 7.364 5.236h.546zM144.36 11h3.976V3.426h4.494V.584h-12.964v2.842h4.494V11z" fill="#fff"/><path d="M11 87.162l10 5.909v11.858l-10 5.909-10-5.909V93.071l10-5.91z" stroke="#fff" stroke-width="2"/><path d="M11 91.147l7 3.938v7.83l-7 3.938-7-3.938v-7.83l7-3.938z" stroke="#fff" stroke-width="2"/><path opacity=".7" d="M76 6H66L16.5 89.5" stroke="#fff"/><circle cx="76" cy="6" r="2" fill="#fff"/></svg>