<?xml version="1.0" encoding="utf-8"?>
<!-- Generator: Adobe Illustrator 21.0.0, SVG Export Plug-In . SVG Version: 6.00 Build 0)  -->
<svg version="1.1" id="Слой_1" xmlns="http://www.w3.org/2000/svg" xmlns:xlink="http://www.w3.org/1999/xlink" x="0px" y="0px"
	 viewBox="0 0 91 32" style="enable-background:new 0 0 91 32;" xml:space="preserve">
<style type="text/css">
	.st0{fill:url(#SVGID_1_);}
	.st1{fill:#A5A5A5;}
</style>
<g>
	<radialGradient id="SVGID_1_" cx="16" cy="16" r="16" gradientUnits="userSpaceOnUse">
		<stop  offset="0.5286" style="stop-color:#FFFFFF"/>
		<stop  offset="0.5777" style="stop-color:#FFFFFF;stop-opacity:0.8912"/>
		<stop  offset="0.98" style="stop-color:#FFFFFF;stop-opacity:0"/>
	</radialGradient>
	<path class="st0" d="M16,0C7.2,0,0,7.2,0,16c0,8.8,7.2,16,16,16s16-7.2,16-16C32,7.2,24.8,0,16,0z M16,25.2c-5.1,0-9.2-4.1-9.2-9.2
		s4.1-9.2,9.2-9.2s9.2,4.1,9.2,9.2S21.1,25.2,16,25.2z"/>
</g>
<path class="st1" d="M40.9,11.5c0,0.3-0.2,0.7-1,0.7h-4v-1.5h4C40.7,10.8,40.9,11.1,40.9,11.5L40.9,11.5z M35.9,7.6h3.8
	c0.7,0,0.9,0.3,0.9,0.6v0c0,0.3-0.2,0.6-0.9,0.6h-3.8V7.6z M42.4,9.4c0.6-0.1,1.5-0.6,1.5-1.7V7.6c0-1-0.7-1.9-3.1-1.9h-8v8.5h8.1
	c2.8,0,3.6-1.1,3.6-2.5v-0.1C44.3,10.1,43.1,9.6,42.4,9.4z"/>
<path class="st1" d="M45,5.7v8.5h8l1.3-2.4h-6.1V5.7H45z"/>
<path class="st1" d="M58.1,5.7l-4.2,8.5h3.3h5.3l-1-2.2h-3.2l0.6-1.3l1.4-2.9l1.4,2.9l1,2.1l0.7,1.4h3.6l-4.5-8.5H58.1z"/>
<path class="st1" d="M72.7,5.5h-0.4c-5.3,0-6,2.6-6,4.2v0.3c0,1.6,0.8,4.3,6,4.3h0.4c5.1,0,5.9-2.4,5.9-3.5v-0.2h-3.4
	c0,0.2-0.3,1.4-2.8,1.4c-2.3,0-2.9-1.2-2.9-2.1V9.8c0-1,0.5-2,2.8-2c2.5,0,2.7,1.1,2.8,1.3h3.4V9C78.6,7.9,77.8,5.5,72.7,5.5z"/>
<path class="st1" d="M86.8,5.7l-4.2,3.4V5.7h-3.3v8.5h3.3v-3.8l4.2,3.8H91l-5.1-4.6l5-3.9H86.8z"/>
<path class="st1" d="M37.5,26.5c-4.7,0-5.2-1.9-5.2-3v-0.1h3.6c0,0.5,0.3,1.2,2.1,1.2h0.1c1.8,0,2.1-0.4,2.1-0.8v0
	c0-0.4-0.2-0.7-2-0.8l-1.6,0c-3.3-0.1-4.2-1.2-4.2-2.6v-0.1c0-1.4,0.9-2.6,4.9-2.6h1c4.2,0,5.2,1.3,5.2,2.7v0.1H40
	c0-0.3-0.2-0.9-2.1-0.9h-0.1c-1.7,0-1.9,0.3-1.9,0.6v0c0,0.3,0.3,0.6,1.9,0.7l1.5,0c3.2,0.1,4.5,0.8,4.5,2.6v0.2
	c0,1.4-0.8,2.9-5.3,2.9L37.5,26.5L37.5,26.5z"/>
<path class="st1" d="M47.7,20.1H44v-2.3h10.6v2.3h-3.7v6.2h-3.3V20.1z"/>
<path class="st1" d="M69.7,26.3h-3.3v-8.5h7.7c2.5,0,3.6,0.8,3.6,2.2v0.1c0,1.2-1.1,1.7-1.7,1.9c1.1,0.2,1.8,0.9,1.8,2v1.3
	c0,0.6,0.1,0.8,0.2,1v0.1h-3.3c-0.1-0.1-0.1-0.2-0.1-0.4v-1c0-1-0.4-1.5-1.7-1.5h-3.1V26.3z M69.7,21.3h3.7c0.7,0,1-0.3,1-0.7v0
	c0-0.4-0.2-0.7-1-0.7h-3.7V21.3z"/>
<path class="st1" d="M61.6,17.8h-4.4L53,26.3h3.3h5.3l-1.1-2.2h-3.2l0.6-1.3h0l1.4-2.9l1.4,2.9l1,2.1h0l0.7,1.4H66L61.6,17.8z"/>
</svg>
