<svg width="43" height="37" viewBox="0 0 43 37" fill="none" xmlns="http://www.w3.org/2000/svg">
<path d="M26.4947 32.7413C25.7613 32.7413 24.478 32.7413 23.8363 32.7413C23.7447 32.7413 23.7447 32.7413 23.653 32.7413V33.6579H25.6697V33.7496C25.3947 34.7579 24.5697 35.3079 23.4697 35.1246C22.4613 34.9413 21.8197 34.1163 21.8197 33.1079C21.8197 32.2829 22.278 31.4579 23.0113 31.1829C23.928 30.8163 24.9363 30.9996 25.578 31.7329C25.578 31.7329 25.6697 31.8246 25.7613 31.7329C25.9447 31.5496 26.2197 31.4579 26.403 31.2746C26.403 31.1829 26.3113 31.1829 26.3113 31.1829C25.4863 30.1746 24.203 29.8079 23.0113 30.1746C21.8197 30.5413 21.0863 31.3663 20.903 32.6496C20.8113 33.5663 20.9947 34.3913 21.6363 35.033C22.4613 35.9496 23.4697 36.2246 24.6613 36.0413C25.578 35.8579 26.2197 35.3079 26.5863 34.4829C26.7697 34.0246 26.8613 33.4746 26.8613 32.9246C26.678 32.7413 26.678 32.7413 26.4947 32.7413Z" fill="#A5A5A5"/>
<path d="M9.0779 32.833C9.0779 32.833 8.98623 32.833 8.98623 32.7413H9.0779C9.53623 32.558 9.81123 32.1913 9.81123 31.733C9.9029 31.183 9.71956 30.7247 9.26123 30.4497C8.89456 30.1747 8.61956 30.083 8.34456 30.083C7.7029 30.083 7.1529 30.083 6.51123 30.083V35.9497C7.06123 35.9497 7.7029 35.9497 8.2529 35.9497C8.5279 35.9497 8.89456 35.858 9.16956 35.7663C9.81123 35.4913 10.1779 34.9413 10.0862 34.2997C10.0862 33.5663 9.71956 33.0163 9.0779 32.833ZM7.4279 30.8163C7.7029 30.8163 7.9779 30.8163 8.2529 30.908C8.61956 30.9997 8.8029 31.2747 8.8029 31.6413C8.8029 32.008 8.5279 32.1913 8.2529 32.283C8.16123 32.283 8.16123 32.283 8.06956 32.283C7.88623 32.283 7.7029 32.283 7.51956 32.283V30.8163H7.4279ZM8.61956 34.9413C8.34456 35.033 8.06956 35.033 7.79456 35.033C7.7029 35.033 7.61123 35.033 7.4279 35.033V33.1997C7.88623 33.1997 8.34456 33.108 8.8029 33.383C9.0779 33.5663 9.16956 33.8413 9.16956 34.208C9.0779 34.5747 8.98623 34.758 8.61956 34.9413Z" fill="#A5A5A5"/>
<path d="M19.7113 32.8334C20.1696 32.375 20.1696 31.7334 19.9863 31.1834C19.8029 30.5417 19.2529 30.175 18.6113 30.0834C17.9696 29.9917 17.3279 30.0834 16.6863 29.9917V35.8584H17.6946V30.8167C17.9696 30.8167 18.3363 30.8167 18.6113 30.9084C18.9779 31 19.2529 31.275 19.2529 31.6417C19.2529 32.0084 19.0696 32.375 18.7029 32.4667C18.5196 32.5584 18.3363 32.5584 18.1529 32.5584C18.0613 32.5584 18.0613 32.5584 18.0613 32.65C18.0613 32.7417 17.9696 32.925 18.0613 33.0167C18.5196 33.6584 18.9779 34.3917 19.4363 35.0334C19.6196 35.3084 19.8029 35.5834 19.9863 35.8584C20.2613 35.675 20.5363 35.5834 20.7196 35.4C20.1696 34.6667 19.6196 33.9334 19.0696 33.2C19.2529 33.2 19.5279 33.0167 19.7113 32.8334Z" fill="#A5A5A5"/>
<path d="M34.3781 33.2917C35.0197 33.0167 35.2947 32.5584 35.3864 31.825C35.3864 30.9084 34.7447 30.175 33.8281 29.9917C33.4614 29.9917 33.0947 29.9917 32.7281 29.9917C32.4531 29.9917 32.1781 29.9917 31.9031 29.9917V35.8584H32.9114V30.9084C33.2781 30.9084 33.6447 30.9084 33.9197 31C34.1947 31.0917 34.3781 31.3667 34.4697 31.6417C34.4697 32.0084 34.3781 32.2834 34.1031 32.4667C33.9197 32.5584 33.6447 32.65 33.3697 32.65C33.2781 32.65 33.1864 32.65 33.1864 32.7417C33.0947 32.925 33.0947 33.0167 33.1864 33.2C33.6447 33.8417 34.1031 34.575 34.5614 35.3084C34.7447 35.5834 34.9281 35.8584 35.1114 36.1334C35.3864 35.95 35.6614 35.8584 35.8447 35.675C35.2947 34.9417 34.7447 34.2084 34.1947 33.475C34.2864 33.2917 34.3781 33.2917 34.3781 33.2917Z" fill="#A5A5A5"/>
<path d="M14.3029 29.9917V30.175C14.3029 31.3667 14.3029 32.4667 14.3029 33.6584C14.3029 33.8417 14.3029 34.025 14.3029 34.2084C14.2113 34.6667 13.9363 34.9417 13.5696 35.0334C13.1113 35.125 12.6529 35.0334 12.3779 34.575C12.1946 34.3 12.1946 34.025 12.1946 33.75C12.1946 32.5584 12.1946 31.3667 12.1946 30.175V29.9917H11.1863V30.175C11.1863 31.275 11.1863 32.4667 11.1863 33.5667C11.1863 33.75 11.1863 33.9334 11.1863 34.2084C11.2779 34.9417 11.7363 35.5834 12.4696 35.8584C13.2029 36.1334 13.9363 36.0417 14.5779 35.4917C15.1279 35.0334 15.3113 34.4834 15.3113 33.8417C15.3113 32.5584 15.3113 31.3667 15.3113 30.0834V29.9917H14.3029Z" fill="#A5A5A5"/>
<path d="M30.6196 34.9416C30.0696 34.9416 29.5196 34.9416 28.8779 34.9416H28.6946V33.0166H30.5279C30.5279 32.7416 30.5279 32.5582 30.5279 32.2832C30.5279 32.1916 30.5279 32.0999 30.3446 32.0999C29.8863 32.0999 29.4279 32.0999 28.8779 32.0999H28.6946C28.6946 31.7332 28.6946 31.3666 28.6946 30.9999C28.6946 30.8166 28.7863 30.8166 28.8779 30.8166C29.4279 30.8166 29.9779 30.8166 30.5279 30.8166C30.6196 30.8166 30.7113 30.8166 30.7113 30.7249C30.7113 30.4499 30.7113 30.1749 30.7113 29.8999H27.6863V35.7666H30.8029C30.8029 35.4916 30.8029 35.3082 30.8029 35.0332C30.8029 35.0332 30.7113 34.9416 30.6196 34.9416Z" fill="#A5A5A5"/>
<path d="M42.7197 26.6913C42.3531 26.1413 41.9864 25.6829 41.5281 25.1329C41.4364 24.9496 41.2531 24.7663 41.1614 24.5829C41.1614 24.5829 41.2531 24.5829 41.2531 24.4913C41.8031 24.2163 42.1697 23.7579 42.2614 23.1163C42.3531 22.4746 42.0781 21.9246 41.5281 21.4663C41.1614 21.1913 40.7031 21.0996 40.2447 21.0996C39.7864 21.0996 39.3281 21.0996 38.8697 21.0996H38.7781V27.1496H39.7864V22.0163C40.1531 22.0163 40.5197 22.0163 40.7947 22.1079C41.0697 22.1996 41.2531 22.3829 41.3447 22.7496C41.3447 23.1163 41.2531 23.3913 40.9781 23.5746C40.7031 23.7579 40.4281 23.7579 40.1531 23.7579H40.0614C39.9697 23.8496 39.9697 24.0329 40.0614 24.1246C40.6114 24.9496 41.1614 25.7746 41.8031 26.5996C41.8947 26.7829 42.0781 26.9663 42.1697 27.1496C42.3531 27.0579 42.5364 26.9663 42.7197 26.8746C42.8114 26.8746 42.8114 26.7829 42.8114 26.6913C42.7197 26.7829 42.7197 26.6913 42.7197 26.6913Z" fill="#A5A5A5"/>
<path d="M36.9447 23.9416C36.578 23.025 36.2114 22.2 35.8447 21.2833C35.753 21.0083 35.753 21.0083 35.478 21.0083C35.3864 21.0083 35.3864 21.0083 35.3864 21.1C35.2947 21.2833 35.2947 21.375 35.203 21.5583C34.8364 22.475 34.378 23.4833 34.0114 24.4C33.7364 25.1333 33.3697 25.8666 33.0947 26.6C33.003 26.7833 33.003 26.875 32.9114 27.0583C33.1864 27.15 33.4614 27.15 33.6447 27.2416C33.7364 27.2416 33.7364 27.2416 33.828 27.15C34.0114 26.6916 34.1947 26.325 34.2864 25.8666C34.2864 25.775 34.378 25.775 34.4697 25.775C35.1114 25.775 35.753 25.775 36.3947 25.775C36.578 25.775 36.6697 25.775 36.6697 25.9583V26.05C36.853 26.4166 36.9447 26.7833 37.128 27.2416C37.403 27.15 37.7697 27.15 38.0447 27.0583C38.0447 26.9666 37.953 26.875 37.953 26.7833C37.7697 25.9583 37.3114 24.95 36.9447 23.9416ZM34.7447 25.0416C35.0197 24.3083 35.2947 23.6666 35.5697 22.9333C35.8447 23.6666 36.1197 24.3083 36.3947 25.0416H34.7447Z" fill="#A5A5A5"/>
<path d="M29.1529 26.4165C29.3362 26.0498 29.4279 25.6831 29.3362 25.3165C29.2446 24.7665 29.0612 24.3081 28.6029 24.0331C28.3279 23.8498 27.9612 23.6665 27.6862 23.4831C27.4112 23.3915 27.2279 23.2998 27.0446 23.0248C26.7696 22.7498 26.8612 22.2915 27.2279 22.1081C27.4112 22.0165 27.6862 22.0165 27.8696 22.0165C28.1446 22.1081 28.2362 22.1998 28.4196 22.4748C28.6029 22.2915 28.7862 22.1081 28.9696 21.9248V21.8331C28.8779 21.6498 28.6946 21.4665 28.6029 21.3748C28.2362 21.0998 27.6862 21.0081 27.2279 21.0998C26.8612 21.1915 26.4946 21.3748 26.3112 21.6498C25.8529 22.2915 25.9446 23.1165 26.4946 23.6665C26.7696 23.9415 27.1362 24.1248 27.5029 24.3081C27.8696 24.4915 28.1446 24.5831 28.4196 24.8581C28.6946 25.1331 28.6946 25.4081 28.6029 25.7748C28.5112 26.0498 28.2362 26.3248 27.8696 26.3248C27.3196 26.4165 26.9529 26.2331 26.5862 25.7748C26.4946 25.6831 26.4946 25.5915 26.4029 25.4998C26.2196 25.6831 25.9446 25.8665 25.7612 26.1415C25.8529 26.4165 26.1279 26.6915 26.3112 26.8748C26.8612 27.3331 27.5029 27.4248 28.2362 27.3331C28.4196 27.1498 28.8779 26.8748 29.1529 26.4165Z" fill="#A5A5A5"/>
<path d="M31.903 27.2414V22.1081H33.278V21.1914H29.428V22.1081H30.8946V27.2414H31.903Z" fill="#A5A5A5"/>
<path d="M3.85298 24.4915C3.66965 24.2165 3.39465 24.1249 3.02798 24.0332C3.21131 23.9415 3.30298 23.8499 3.39464 23.7582C4.03631 23.2082 4.03631 22.1999 3.39464 21.6499C3.02798 21.3749 2.56965 21.2832 2.11131 21.2832C1.65298 21.2832 1.10298 21.2832 0.644645 21.2832H0.552979V27.1499C1.10298 27.1499 1.65298 27.1499 2.20298 27.1499C2.47798 27.1499 2.75298 27.1499 2.93631 27.0582C3.85298 26.7832 4.31131 26.0499 4.12798 25.1332C4.12798 24.8582 4.03631 24.6749 3.85298 24.4915ZM1.56131 22.8415C1.56131 22.6582 1.56131 22.3832 1.56131 22.1999C1.56131 22.1999 1.56131 22.1082 1.65298 22.1082C1.92798 22.1082 2.29465 22.1082 2.56965 22.1999C2.84465 22.2915 3.02798 22.5665 3.02798 22.9332C3.02798 23.2082 2.84465 23.4832 2.47798 23.5749C2.20298 23.5749 1.92798 23.5749 1.74465 23.6665C1.65298 23.6665 1.65298 23.5749 1.65298 23.5749C1.56131 23.2999 1.56131 23.0249 1.56131 22.8415ZM2.56965 26.2332C2.20298 26.3249 1.92798 26.3249 1.56131 26.3249L1.46965 26.2332C1.46965 25.9582 1.46965 25.6832 1.46965 25.4082C1.46965 25.1332 1.46965 24.8582 1.46965 24.5832C1.46965 24.4915 1.46965 24.4915 1.56131 24.4915C1.83631 24.4915 2.11131 24.4915 2.38631 24.5832C2.75298 24.6749 3.11965 24.9499 3.11965 25.3165C3.21131 25.7749 3.02798 26.1415 2.56965 26.2332Z" fill="#A5A5A5"/>
<path d="M19.1614 21.2831V27.1497H20.1697V24.2164C20.9947 25.2247 21.8197 26.2331 22.6447 27.2414C22.9197 27.0581 23.1947 26.8747 23.4697 26.6914L23.378 26.5997C22.7364 25.7747 22.003 25.0414 21.3614 24.2164C21.2697 24.1247 21.2697 24.1247 21.3614 24.0331C21.8197 23.4831 22.1864 22.9331 22.6447 22.2914C22.828 22.1081 23.0114 21.8331 23.1947 21.6497C22.9197 21.4664 22.6447 21.2831 22.4614 21.1914C21.728 22.1997 20.9947 23.1164 20.2614 24.1247V21.2831H19.1614Z" fill="#A5A5A5"/>
<path d="M17.9697 25.6833C17.5114 26.1416 16.9614 26.325 16.4114 26.325C15.7697 26.325 15.2197 26.05 14.8531 25.5916C14.1197 24.8583 14.1197 23.575 14.8531 22.75C15.2197 22.3833 15.6781 22.1083 16.1364 22.0166C16.8697 21.925 17.5114 22.1083 17.9697 22.6583C18.1531 22.3833 18.4281 22.2 18.6114 22.0166C17.6031 21.0083 15.6781 20.7333 14.3031 21.925C13.0197 23.1166 13.0197 25.1333 14.3031 26.325C15.6781 27.5166 17.6031 27.3333 18.6114 26.2333C18.4281 26.1416 18.1531 25.9583 17.9697 25.6833Z" fill="#A5A5A5"/>
<path d="M9.81126 25.8663C9.81126 25.7746 9.90293 25.7746 9.90293 25.7746C10.5446 25.7746 11.2779 25.7746 11.9196 25.7746C12.0113 25.7746 12.0113 25.7746 12.0113 25.8663C12.1029 26.1413 12.1946 26.4163 12.2863 26.6913C12.3779 26.8746 12.4696 27.0579 12.4696 27.2413C12.7446 27.1496 13.1113 27.1496 13.3863 27.0579V26.9663C13.1113 26.3246 12.8363 25.6829 12.5613 24.9496C12.0113 23.6663 11.5529 22.4746 11.0029 21.1913L10.9113 21.0996C10.8196 21.0996 10.8196 21.0996 10.7279 21.0996C10.7279 21.0996 10.6363 21.0996 10.6363 21.1913C10.3613 21.8329 10.0863 22.4746 9.90293 23.0246C9.53626 23.8496 9.1696 24.7663 8.80293 25.5913C8.6196 26.0496 8.43626 26.5079 8.25293 26.9663C8.52793 27.0579 8.80293 27.0579 9.1696 27.1496C9.4446 26.7829 9.62793 26.3246 9.81126 25.8663ZM10.9113 22.9329C11.1863 23.6663 11.4613 24.3079 11.7363 25.0413H10.0863C10.3613 24.3079 10.6363 23.6663 10.9113 22.9329Z" fill="#A5A5A5"/>
<path d="M8.06955 26.4165C8.06955 26.3249 8.06955 26.2332 7.88621 26.2332C7.24455 26.2332 6.60288 26.2332 6.05288 26.2332H5.86955V21.2832H4.95288V27.1499H8.06955C8.06955 26.8749 8.06955 26.5999 8.06955 26.4165Z" fill="#A5A5A5"/>
<path d="M17.5114 15.4163C19.4364 16.058 20.9947 15.1413 21.9114 15.1413C22.6447 15.1413 23.0114 15.3247 23.1947 15.5997C23.2864 15.783 23.2864 15.8747 23.4697 15.8747C23.6531 15.8747 23.6531 15.5997 23.7447 15.4163C23.8364 15.233 24.0197 15.233 24.1114 15.233C24.3864 15.233 24.5697 15.508 24.5697 15.783V15.8747V16.9747C24.5697 17.3413 24.7531 17.433 24.9364 17.433C25.2114 17.433 25.3031 17.2497 25.3031 16.9747V15.783C25.3031 15.783 26.5864 15.4163 27.5031 14.408C28.3281 13.4913 28.6947 12.3913 28.7864 12.0247C28.8781 11.658 28.9697 11.1997 28.6031 11.0163C28.5114 10.833 28.2364 10.833 27.5947 10.833H15.4947H14.7614C14.0281 10.833 14.1197 11.4747 14.4864 12.2997C15.3114 14.0413 16.4114 15.0497 17.5114 15.4163Z" fill="#A5A5A5"/>
<path d="M14.6696 6.3415C14.853 6.43317 15.2196 6.43317 15.5863 6.43317H19.7113V7.4415C19.7113 7.7165 19.8946 7.89984 20.078 7.89984C20.2613 7.89984 20.4446 7.7165 20.4446 7.4415V6.43317V6.24984C20.4446 5.97484 20.628 5.7915 20.8113 5.7915C20.9946 5.7915 21.178 5.97484 21.178 6.24984C21.178 6.43317 21.453 6.43317 21.453 6.43317H28.328C29.0613 6.43317 29.153 5.7915 28.6946 4.6915C28.5113 4.32484 26.678 0.291504 21.728 0.291504C16.8696 0.291504 14.9446 4.04984 14.578 4.9665C14.303 5.60817 14.1196 6.15817 14.6696 6.3415ZM25.853 2.39984C26.0363 2.39984 26.128 2.58317 26.128 2.67484C26.128 2.85817 25.9446 2.94984 25.853 2.94984C25.6696 2.94984 25.578 2.7665 25.578 2.67484C25.4863 2.4915 25.6696 2.39984 25.853 2.39984ZM20.353 0.933171C20.5363 0.933171 20.628 1.1165 20.628 1.20817C20.628 1.3915 20.4446 1.48317 20.353 1.48317C20.1696 1.48317 20.078 1.29984 20.078 1.20817C20.078 1.02484 20.1696 0.933171 20.353 0.933171ZM19.8946 1.9415C20.078 1.9415 20.1696 2.12484 20.1696 2.2165C20.1696 2.39984 19.9863 2.4915 19.8946 2.4915C19.7113 2.4915 19.6196 2.30817 19.6196 2.2165C19.6196 2.03317 19.803 1.9415 19.8946 1.9415ZM19.253 1.1165C19.4363 1.1165 19.528 1.29984 19.528 1.3915C19.528 1.57484 19.3446 1.6665 19.253 1.6665C19.0696 1.6665 18.978 1.48317 18.978 1.3915C18.978 1.20817 19.0696 1.1165 19.253 1.1165ZM14.853 5.60817C14.853 5.5165 15.3113 4.4165 16.1363 3.40817C17.1446 2.12484 18.153 1.6665 18.2446 1.6665C18.428 1.57484 18.5196 1.6665 18.6113 1.75817C18.703 1.9415 18.6113 2.03317 18.5196 2.12484C18.5196 2.12484 17.5113 2.58317 16.6863 3.68317C15.953 4.59984 15.4946 5.69984 15.4946 5.69984C15.4946 5.7915 15.3113 5.88317 15.2196 5.88317H15.128C14.9446 5.88317 14.853 5.69984 14.853 5.60817Z" fill="#A5A5A5"/>
</svg>
