<svg width="48" height="24" viewBox="0 0 48 24" fill="none" xmlns="http://www.w3.org/2000/svg">
<g clip-path="url(#clip0)">
<path d="M6.83926 4.9164C6.83926 5.191 6.70718 5.52131 6.01178 5.52131H2.73874V4.30562H6.01081C6.69649 4.30562 6.83829 4.58023 6.83829 4.88317L6.83926 4.9164ZM2.73874 1.73158H5.84667C6.40124 1.73158 6.56052 1.93973 6.56052 2.21433V2.2329C6.56052 2.49773 6.40124 2.72152 5.84667 2.72152H2.73874V1.73158ZM8.0329 3.21698C8.49424 3.11339 9.23722 2.71566 9.23722 1.83614V1.73158C9.23722 0.927308 8.69236 0.131836 6.65084 0.131836H0.0668945V7.17284H6.69066C8.97596 7.17284 9.6432 6.24544 9.6432 5.13823V5.02487C9.6432 3.78573 8.65643 3.36356 8.03484 3.21698" fill="#A5A5A5"/>
<path d="M10.2075 0.132812V7.17284H16.7701L17.8511 5.15777H12.8784V0.132812H10.2075Z" fill="#A5A5A5"/>
<path d="M20.9397 0.132812L17.4783 7.17284H20.187H24.542L23.6873 5.37277H21.032L21.5419 4.27728L22.6889 1.85471L23.8651 4.27728L24.7207 6.03729L25.2656 7.17284H28.1909L24.5323 0.132812H20.9397Z" fill="#A5A5A5"/>
<path d="M32.9227 0H32.5556C28.1919 0 27.6082 2.14992 27.6082 3.49167V3.76628C27.6082 5.10021 28.2579 7.30583 32.5556 7.30583H32.9227C37.1359 7.30583 37.7944 5.31813 37.7944 4.40051V4.24903H35.0293C34.9914 4.41028 34.7846 5.40511 32.7256 5.40511C30.8443 5.40511 30.3742 4.41223 30.3742 3.65487V3.53956C30.3742 2.75777 30.788 1.89291 32.7158 1.89291C34.7476 1.89291 34.9642 2.7822 35.0206 2.96787H37.7944V2.84865C37.7944 1.93982 37.1738 0 32.9227 0Z" fill="#A5A5A5"/>
<path d="M44.5492 0.132812L41.1071 2.91501V0.132812H38.4353V7.17284H41.1071V4.02222L44.521 7.17284H47.9999L43.7965 3.33131L47.8688 0.132812H44.5492Z" fill="#A5A5A5"/>
<path d="M9.58787 16.9249C5.76123 16.9249 5.36108 15.3613 5.36108 14.4515V14.3538H8.26603C8.29322 14.7291 8.48941 15.3379 9.99772 15.3379H10.0812C11.5614 15.3379 11.7751 15.0193 11.7751 14.6822V14.6724C11.7751 14.3167 11.5983 14.0919 10.1463 14.046L8.86139 14.0079C6.17983 13.9326 5.46209 12.9866 5.46209 11.9097V11.8257C5.46209 10.6911 6.21674 9.69922 9.44412 9.69922H10.2726C13.6981 9.69922 14.4809 10.7947 14.4809 11.9V11.9752H11.608C11.5799 11.7221 11.4313 11.2345 9.93265 11.2345H9.83553C8.44764 11.2345 8.30779 11.4788 8.30779 11.7504V11.7592C8.30779 12.0407 8.51369 12.2654 9.8161 12.2928L11.0641 12.3212C13.6981 12.3964 14.7227 13.015 14.7227 14.4203V14.5512C14.7227 15.7239 14.071 16.921 10.4309 16.921L9.58787 16.9249Z" fill="#A5A5A5"/>
<path d="M17.9221 11.7504H14.8958V9.82422H23.6251V11.7504H20.5998V16.8818H17.9221V11.7504Z" fill="#A5A5A5"/>
<path d="M35.9597 16.8691H33.2878V9.8252H39.6484C41.688 9.8252 42.5941 10.4878 42.5941 11.6331V11.7367C42.5941 12.7598 41.7094 13.1859 41.182 13.3091C42.0483 13.5045 42.6223 14.0752 42.6223 14.985V16.0258C42.6223 16.5144 42.6884 16.6981 42.7544 16.8212V16.8691H40.0252C39.9592 16.7929 39.9407 16.6981 39.9407 16.4997V15.6759C39.9407 14.8707 39.5736 14.4544 38.5198 14.4544H35.9597V16.8691ZM35.9597 12.7501H39.0327C39.6251 12.7501 39.8417 12.4852 39.8417 12.1442V12.1344C39.8417 11.8031 39.6348 11.5383 39.0327 11.5383H35.9597V12.7501Z" fill="#A5A5A5"/>
<path d="M29.3428 9.82422H25.7483L22.2849 16.8691H24.9946H29.3671L28.4988 15.0671H25.8425L26.3582 13.9716H26.3505L27.4985 11.5481L28.6746 13.9716H28.6727L29.5264 15.7336H29.5312L30.0771 16.8691H33.0034L29.3428 9.82422Z" fill="#A5A5A5"/>
<path d="M3.30994 19.4492H3.08073C0.361297 19.4492 0 20.7871 0 21.6246V21.7956C0 22.6262 0.404031 24.0002 3.08073 24.0002H3.30994C5.93226 24.0002 6.34406 22.7621 6.34406 22.1904V22.0927H4.62207C4.59779 22.1904 4.46959 22.8119 3.1866 22.8119C2.0153 22.8119 1.72199 22.1933 1.72199 21.7213V21.6509C1.72199 21.1623 1.98033 20.6248 3.17883 20.6248C4.44142 20.6248 4.57934 21.1789 4.6143 21.2972H6.34211V21.221C6.34211 20.6542 5.95362 19.4463 3.308 19.4463" fill="#A5A5A5"/>
<path d="M8.14961 19.5947L6.05176 23.8623H7.69313H10.3329L9.81429 22.7708H8.20594L8.51382 22.1072L9.21019 20.6384L9.9221 22.1072L10.4407 23.1734L10.7719 23.8623H12.5444L10.3271 19.5947H8.14961Z" fill="#A5A5A5"/>
<path d="M14.3314 23.8613H12.7124V19.5947H16.5653C17.8026 19.5947 18.3504 19.9954 18.3504 20.6902V20.7528C18.3504 21.3723 17.8143 21.6323 17.4947 21.7046C18.0192 21.8258 18.3688 22.1697 18.3688 22.7209V23.3512C18.3688 23.6493 18.4087 23.7587 18.4485 23.833V23.8613H16.7916C16.7467 23.7961 16.7283 23.716 16.7401 23.6376V23.1392C16.7401 22.6506 16.5177 22.3994 15.8796 22.3994H14.3256L14.3314 23.8613ZM14.3314 21.3665H16.1894C16.5488 21.3665 16.675 21.2062 16.675 20.999V20.9932C16.675 20.7977 16.5497 20.6326 16.1894 20.6326H14.3314V21.3665Z" fill="#A5A5A5"/>
<path d="M23.0454 23.8662L21.3943 19.5947H23.1979L24.1623 22.4141L25.0121 19.5947H26.839L27.7005 22.3681L28.6367 19.5947H30.2917L28.6406 23.8662H26.7603L25.8765 21.1681L25.0199 23.8662H23.0454Z" fill="#A5A5A5"/>
<path d="M31.5708 19.5947L29.4729 23.8623H31.1143H33.7531L33.2354 22.7708H31.6261L31.935 22.1072L32.6304 20.6384L33.3432 22.1072L33.8619 23.1734L34.1921 23.8623H35.9656L33.7482 19.5947H31.5708Z" fill="#A5A5A5"/>
<path d="M36.0461 22.419V22.3623H37.8196C37.8371 22.591 37.9556 22.9633 38.8773 22.9633H38.9278C39.832 22.9633 39.9621 22.7679 39.9621 22.5627V22.5568C39.9621 22.3457 39.8602 22.1962 38.9676 22.1737L38.1838 22.1503C36.5463 22.0994 36.1083 21.5326 36.1083 20.8691V20.8183C36.1083 20.1264 36.5745 19.5195 38.5412 19.5195H39.0472C41.1393 19.5195 41.6161 20.1889 41.6161 20.8642V20.9101H39.8602C39.8436 20.7548 39.7523 20.4577 38.8375 20.4577H38.7801C37.9332 20.4577 37.8478 20.6062 37.8478 20.7724V20.7782C37.8478 20.9492 37.9731 21.0929 38.7695 21.1036L39.5309 21.1212C41.1393 21.1613 41.7647 21.5502 41.7647 22.4024V22.4825C41.7647 23.2027 41.3665 23.9298 39.1424 23.9298H38.6248C36.2909 23.9298 36.0461 22.9741 36.0461 22.419Z" fill="#A5A5A5"/>
<path d="M42.095 19.5938H43.7092V21.0977H46.3528V19.5938H47.9612V23.8496H46.3528V22.2303H43.7092V23.8496H42.095V19.5938Z" fill="#A5A5A5"/>
</g>
<defs>
<clipPath id="clip0">
<rect width="48" height="24" fill="white"/>
</clipPath>
</defs>
</svg>
