<svg width="36" height="40" viewBox="0 0 36 40" fill="none" xmlns="http://www.w3.org/2000/svg">
<path d="M34.9092 25.9092L34.182 21.4546L34.091 20.7274H33.3638H32.0001C33.2729 16.5455 34.2729 12.7274 34.9092 9.27282L35.0001 8.63645L34.4547 8.36372C34.3638 8.36372 25.9092 4.00009 18.0001 1.00009L17.7274 0.90918L17.4547 1.00009C13.2729 2.63645 9.00013 4.54554 6.18195 5.90918C3.09104 7.36372 0.909224 8.45463 0.909224 8.45463L0.36377 8.72736L0.454679 9.36372C1.09104 12.8183 2.00013 16.7274 3.36377 20.8183H2.00013H1.27286L1.18195 21.5455L0.545588 26.0001L0.454679 26.7274L1.18195 26.9092L6.00013 28.2728C6.6365 30.091 7.09104 31.1819 7.18195 31.2728L7.27286 31.4546L7.45468 31.5455C7.54559 31.5455 12.6365 35.9092 17.4547 39.0001L17.9092 39.2728L18.3638 39.0001C20.9092 37.3637 23.4547 35.4546 25.182 34.091C27.0001 32.6365 28.3638 31.5455 28.3638 31.5455L28.5456 31.4546L28.6365 31.2728C28.6365 31.1819 29.091 30.091 29.8183 28.2728L34.6365 27.0001L35.3638 26.8183L34.9092 25.9092ZM28.9092 27.4546C28.182 29.5455 27.6365 30.8183 27.6365 30.8183C27.6365 30.8183 26.3638 31.9092 24.4547 33.3637C22.5456 34.8183 20.091 36.6365 17.7274 38.1819C12.8183 35.091 7.81832 30.8183 7.81832 30.8183C7.81832 30.8183 7.27286 29.5455 6.54559 27.4546L1.36377 26.0001L2.00013 21.5455H4.54559C3.27286 17.9092 2.09104 13.4546 1.27286 9.18191C1.27286 9.18191 3.36377 8.091 6.45468 6.63645C9.6365 5.18191 13.7274 3.27282 17.7274 1.81827C25.7274 4.81827 34.091 9.18191 34.091 9.18191C33.2729 13.5455 32.091 17.9092 30.9092 21.6365H33.4547L34.091 26.091L28.9092 27.4546Z" fill="#A5A5A5"/>
<path d="M32.4549 9.90913C31.8185 9.6364 30.4549 9.09095 28.9094 9.45459C30.7276 10 31.2731 11.2728 31.4549 11.9091C31.0913 13.2728 30.6367 14.9091 30.0004 16.4546C29.6367 16.091 28.5458 15.1819 26.5458 15.7273C28.0913 16.4546 28.8185 17.8182 29.0913 18.5455C28.7276 19.2728 28.364 19.9091 27.9094 20.5455H27.6367C27.6367 20.5455 21.2731 20.5455 20.364 20.5455C18.4549 19.6364 17.5458 18.6364 17.5458 18.6364C17.5458 18.6364 16.6367 19.6364 14.7276 20.5455C13.8185 20.5455 7.4549 20.5455 7.4549 20.5455H7.18217C6.72763 19.9091 6.36399 19.2728 6.00035 18.5455C6.27308 17.8182 6.90945 16.4546 8.54581 15.7273C6.54581 15.0909 5.4549 16.091 5.09126 16.4546C4.4549 14.8182 4.00035 13.1819 3.63672 11.9091C3.90945 11.2728 4.4549 10 6.18217 9.45459C4.63672 9.09095 3.27308 9.6364 2.63672 9.90913C2.81854 9.90913 2.72763 10 2.63672 10C3.09126 12.5455 4.54581 18.091 7.00036 21.4546H8.00035H17.7276H27.4549H28.4549C30.6367 18.5455 32.0004 13.9091 32.6367 11.091C32.7276 10.7273 32.8185 10.3637 32.8185 10C32.7276 10 32.5458 9.90913 32.4549 9.90913Z" fill="#A5A5A5"/>
<path d="M11.8185 13.6364C11.8185 13.6364 11.8185 14.1818 11.5458 14.6364H11.6367H11.7276C11.7276 14.6364 11.8185 14.6364 11.8185 14.5455C11.9094 14.5455 12.0004 14.4545 12.0004 14.4545C12.0004 14.4545 12.0913 14.4545 12.0913 14.3636C12.1822 14.2727 12.1822 14.2727 12.2731 14.1818C12.2731 14.1818 12.2731 14.0909 12.364 14.0909C12.364 14.0909 12.364 14 12.4549 14C12.4549 14 12.4549 13.9091 12.5458 13.9091C12.5458 13.9091 12.5458 13.8182 12.6367 13.8182C12.6367 13.8182 12.6367 13.8182 12.6367 13.7273C12.6367 13.7273 12.6367 13.7273 12.6367 13.6364V13.5455C12.6367 13.5455 12.6367 13.5455 12.6367 13.4545C12.6367 13.4545 12.6367 13.4545 12.6367 13.3636C12.6367 13.3636 12.6367 13.3636 12.6367 13.2727C12.6367 13.2727 12.6367 13.2727 12.6367 13.1818C12.6367 13.0909 12.6367 13.0909 12.6367 13.0909C12.6367 13.0909 12.6367 13.2727 12.6367 13.4545V13.5455V13.6364V13.7273V13.8182C12.6367 13.8182 12.6367 13.8182 12.6367 13.9091C12.6367 13.9091 12.6367 13.9091 12.6367 14C12.6367 14 12.6367 14 12.6367 14.0909C12.6367 14.0909 12.6367 14.0909 12.6367 14.1818C12.6367 14.1818 12.6367 14.1818 12.6367 14.2727C12.6367 14.2727 12.6367 14.2727 12.6367 14.3636C12.6367 14.3636 12.6367 14.3636 12.6367 14.4545C12.6367 14.4545 12.6367 14.4545 12.6367 14.5455C12.6367 14.5455 12.6367 14.5455 12.6367 14.6364V14.7273C12.6367 14.7273 12.6367 14.7273 12.6367 14.8182V14.9091C12.6367 14.9091 12.6367 14.9091 12.6367 15V15.0909C12.6367 15.0909 12.6367 15.0909 12.6367 15.1818V15.2727C12.6367 15.2727 12.6367 15.2727 12.6367 15.3636V15.4545C12.6367 15.4545 12.6367 15.4545 12.6367 15.5455V15.6364C12.6367 15.6364 12.6367 15.6364 12.6367 15.7273V15.8182C12.6367 15.8182 12.6367 15.8182 12.6367 15.9091C12.6367 15.9091 12.6367 16 12.5458 16C12.5458 16 12.5458 16 12.5458 16.0909C12.5458 16.0909 12.5458 16.1818 12.4549 16.1818C12.4549 16.1818 12.4549 16.1818 12.4549 16.2727C12.4549 16.2727 12.4549 16.3636 12.364 16.3636C12.364 16.3636 12.364 16.3636 12.364 16.4545L12.2731 16.5455L12.1822 16.6364C12.1822 16.6364 12.1822 16.6364 12.1822 16.7273L12.0913 16.8182C12.0913 16.8182 12.0913 16.8182 12.0913 16.9091L12.0004 17L11.9094 17.0909C11.9094 17.0909 11.9094 17.0909 11.8185 17.1818C12.7276 17.6364 13.364 18.7273 13.6367 19.2727C13.7276 19.4545 13.8185 19.5455 13.8185 19.5455C13.8185 19.5455 13.8185 19.6364 13.7276 19.7273C13.6367 19.9091 13.4549 20.0909 13.0004 20.2727C13.0913 20.2727 13.1822 20.2727 13.2731 20.2727C14.7276 20.2727 16.6367 18.7273 17.0004 18.2727V18.1818V18.0909V18V17.9091C17.0004 17.9091 17.0004 17.9091 17.0004 17.8182V17.7273C17.0004 17.7273 17.0004 17.7273 17.0004 17.6364V17.5455C17.0004 17.5455 17.0004 17.5455 17.0004 17.4545C17.0004 17.4545 17.0004 17.3636 16.9094 17.3636C16.9094 17.3636 16.9094 17.3636 16.9094 17.2727C16.9094 17.2727 16.9094 17.1818 16.8185 17.1818C16.8185 17.1818 16.8185 17.0909 16.7276 17.0909L16.6367 17L16.5458 16.9091L16.4549 16.8182L16.364 16.7273C16.364 16.7273 16.2731 16.7273 16.2731 16.6364C16.2731 16.6364 16.1822 16.6364 16.1822 16.5455C16.1822 16.5455 16.0913 16.5455 16.0913 16.4545C16.0913 16.4545 16.0004 16.4545 16.0004 16.3636C16.0004 16.3636 15.9094 16.3636 15.9094 16.2727C15.9094 16.2727 15.8185 16.2727 15.8185 16.1818C15.8185 16.1818 15.7276 16.1818 15.7276 16.0909C15.7276 16.0909 15.6367 16.0909 15.6367 16H15.5458H15.4549H15.364H15.2731H15.1822C15.0004 15.9091 14.8185 15.9091 14.8185 15.9091C14.8185 15.9091 16.0004 15.4545 17.0004 16.2727C17.364 16.2727 18.2731 16.2727 18.2731 16.2727C18.2731 16.2727 19.0913 16.2727 19.5458 16.2727C20.5458 15.4545 21.7276 15.9091 21.7276 15.9091C21.6367 15.9091 19.0913 16.6364 18.9094 18.4545C19.2731 19 21.4549 20.7273 22.9094 20.4545C22.2731 20.2727 22.0913 19.8182 22.0913 19.8182C22.0913 19.8182 22.8185 18.0909 24.0004 17.4545C22.4549 15.7273 22.8185 13.9091 22.8185 13.9091C22.8185 14 23.0004 14.6364 23.4549 15.0909C23.6367 15.3636 24.0004 15.5455 24.364 15.6364C24.0913 15.1818 24.0913 14.6364 24.0913 14.6364C24.0913 14.6364 25.0913 12.7273 26.2731 12.3636C25.4549 11.6364 24.6367 10.8182 24.1822 9.72727C23.8185 11.6364 23.2731 12.4545 21.1822 12.1818C21.1822 12.1818 20.9094 12.8182 20.364 13.3636L20.5458 10.2727C20.5458 10.2727 22.4549 10.5455 23.8185 9C23.4549 8.18182 22.9094 7.36364 22.0913 6.72727C21.1822 5.45455 20.9094 5.18182 20.5458 5C20.5458 5 20.4549 5 20.4549 5.09091C20.364 5.09091 20.364 5.18182 20.2731 5.18182C18.8185 5.90909 17.8185 6.90909 17.8185 6.90909C17.8185 6.90909 17.4549 6.54545 16.8185 6.09091C16.8185 6.09091 16.7276 6.09091 16.7276 6C16.7276 6 16.6367 6 16.6367 5.90909C16.6367 5.90909 16.5458 5.90909 16.5458 5.81818C16.5458 5.81818 16.4549 5.81818 16.4549 5.72727C16.4549 5.72727 16.364 5.72727 16.364 5.63636C16.364 5.63636 16.2731 5.63636 16.2731 5.54545C16.2731 5.54545 16.1822 5.54545 16.1822 5.45455C16.1822 5.45455 16.0913 5.45455 16.0913 5.36364C16.0913 5.36364 16.0004 5.36364 16.0004 5.27273C16.0004 5.27273 16.0004 5.27273 15.9094 5.27273H15.8185C15.8185 5.27273 15.8185 5.27273 15.7276 5.27273H15.6367C15.6367 5.27273 15.6367 5.27273 15.5458 5.27273C15.5458 5.27273 15.5458 5.27273 15.4549 5.27273L15.364 5.18182C15.2731 5.18182 15.2731 5.09091 15.1822 5.09091C15.1822 5.09091 15.0913 5.09091 15.0913 5C15.0913 5 15.0004 5 15.0004 5.09091C14.9094 5.09091 14.9094 5.18182 14.8185 5.18182C14.8185 5.18182 14.7276 5.18182 14.7276 5.27273C14.6367 5.27273 14.6367 5.36364 14.5458 5.36364L14.4549 5.45455C14.1822 5.45455 14.1822 5.45455 14.0913 5.54545C14.0004 5.63636 13.9094 5.63636 13.8185 5.72727C13.0913 6.36364 12.5458 7.18182 12.1822 8C13.1822 9.18182 14.5458 9.27273 15.0913 9.27273C15.2731 9.27273 15.364 9.27273 15.364 9.27273L15.5458 12.3636L15.4549 12.2727C15.0004 11.8182 14.8185 11.2727 14.8185 11.2727C14.5458 11.2727 14.364 11.2727 14.0913 11.2727C13.0004 11.2727 12.4549 10.8182 12.1822 10C12.0004 9.63636 11.9094 9.27273 11.8185 8.81818C11.364 9.72727 10.7276 10.5455 9.90945 11.1818C9.81854 11.2727 9.72763 11.3636 9.63672 11.3636C10.9094 11.7273 11.8185 13.6364 11.8185 13.6364ZM17.6367 8.27273C17.6367 8.27273 17.7276 8.27273 17.6367 8.27273V8.27273Z" fill="#A5A5A5"/>
<path d="M5.72718 24C5.909 24 6.09082 23.8182 6.09082 23.5455C6.09082 23.2727 5.909 23 5.27264 23H3.09082V25.2727H5.27264C5.99991 25.2727 6.27264 25 6.27264 24.6364C6.27264 24.1818 5.909 24.0909 5.72718 24ZM3.99991 23.5455H4.99991C5.18173 23.5455 5.27264 23.6364 5.27264 23.7273C5.27264 23.8182 5.18173 23.9091 4.99991 23.9091H3.99991V23.5455ZM5.36355 24.5455C5.36355 24.6364 5.36355 24.7273 5.09082 24.7273H3.99991V24.3636H5.09082C5.27264 24.3636 5.36355 24.4545 5.36355 24.5455Z" fill="#A5A5A5"/>
<path d="M7.36368 24.6364V23H6.45459V25.3636H8.63641L9.00004 24.6364H7.36368Z" fill="#A5A5A5"/>
<path d="M9.99969 23L8.81787 25.3636H9.72696H11.1815L10.9088 24.7273H9.99969L10.1815 24.3636L10.5451 23.5455L10.9997 24.3636L11.2724 24.9091L11.4542 25.3636H12.3633L11.1815 23H9.99969Z" fill="#A5A5A5"/>
<path d="M13.9997 23H13.9088C12.4543 23 12.2725 23.7273 12.2725 24.1818V24.2727C12.2725 24.7273 12.4543 25.4545 13.9088 25.4545H13.9997C15.3634 25.4545 15.6361 24.8182 15.6361 24.5455V24.4545H14.727C14.727 24.5455 14.6361 24.8182 13.9997 24.8182C13.3634 24.8182 13.1816 24.4545 13.1816 24.2727C13.1816 24 13.3634 23.7273 13.9997 23.7273C14.6361 23.7273 14.727 24 14.727 24.0909H15.6361C15.5452 23.6364 15.3634 23 13.9997 23Z" fill="#A5A5A5"/>
<path d="M18.9088 23H17.8179L16.6361 23.9091V23H15.8179V25.3636H16.6361V24.2727L17.8179 25.3636H18.9088L17.5451 24.0909L18.9088 23Z" fill="#A5A5A5"/>
<path d="M21.8183 23.8182H21.3637C20.9092 23.8182 20.8183 23.7273 20.8183 23.6364C20.8183 23.5455 20.9092 23.4545 21.3637 23.4545C21.9092 23.4545 21.9092 23.6364 21.9092 23.7273H22.9092C22.9092 23.3636 22.6365 23 21.5455 23H21.2728C20.1819 23 19.9092 23.3636 19.9092 23.7273C19.9092 24.0909 20.1819 24.3636 21.0001 24.4545H21.4546C21.9092 24.4545 22.0001 24.5455 22.0001 24.6364C22.0001 24.7273 21.9092 24.8182 21.4546 24.8182C20.9092 24.8182 20.9092 24.6364 20.9092 24.4545H19.9092C19.9092 24.7273 20.0001 25.2727 21.3637 25.2727H21.6365C22.8183 25.2727 23.091 24.9091 23.091 24.4545C23.0001 24.0909 22.6365 23.9091 21.8183 23.8182Z" fill="#A5A5A5"/>
<path d="M25.909 23H23.0908V23.6364H24.0908V25.3636H24.909V23.6364H25.909V23Z" fill="#A5A5A5"/>
<path d="M32.1817 25.0909V24.7273C32.1817 24.4545 31.9999 24.2727 31.7272 24.1818C31.909 24.1818 32.1817 24 32.1817 23.6364C32.1817 23.2727 31.909 23 31.1817 23H29.0908V25.2727H29.9999V24.5455H30.8181C31.1817 24.5455 31.2726 24.7273 31.2726 24.9091V25.1818C31.2726 25.2727 31.2726 25.2727 31.2726 25.2727H32.1817C32.2726 25.2727 32.1817 25.1818 32.1817 25.0909ZM31.2726 23.8182C31.2726 23.9091 31.1817 24 30.9999 24H29.9999V23.6364H30.9999C31.2726 23.5455 31.2726 23.6364 31.2726 23.8182Z" fill="#A5A5A5"/>
<path d="M26.6364 23L25.4546 25.3636H26.3637H27.8182L27.5455 24.7273H26.6364L26.8182 24.3636L27.1819 23.5455L27.6364 24.3636L27.9091 24.9091L28.091 25.3636H29L27.8182 23H26.6364Z" fill="#A5A5A5"/>
<path d="M11 30.2729C10.7272 30.2729 10.5454 30.0002 10.5454 29.6365V27.5456C10.5454 27.182 10.7272 26.8184 11.1818 26.8184H11.2727C11.8181 26.8184 11.909 27.182 11.909 27.5456V27.9093H11.3636V27.5456C11.3636 27.3638 11.3636 27.2729 11.1818 27.2729C11.0909 27.2729 11 27.3638 11 27.5456V29.5456C11 29.7275 11.0909 29.8184 11.1818 29.8184C11.2727 29.8184 11.3636 29.7274 11.3636 29.6365V28.8184H11.0909V28.182H11.8181V30.2729H11.5454C11.5454 30.2729 11.4545 30.0911 11.4545 29.9093C11.5454 30.0002 11.3636 30.2729 11 30.2729Z" fill="#A5A5A5"/>
<path d="M13.9999 29.5456H13.6363L13.5454 30.182H13.0908L13.5454 26.8184H14.1817L14.6363 30.182H14.1817L13.9999 29.5456ZM13.8181 27.8184L13.7272 29.0911H13.9999L13.8181 27.8184Z" fill="#A5A5A5"/>
<path d="M15.8184 26.8184H16.4547L16.7275 28.6365L17.0002 26.8184H17.6365V30.182H17.182V28.0002L16.9093 30.182H16.7275L16.4547 28.0002V30.182H16.0002V26.8184H15.8184Z" fill="#A5A5A5"/>
<path d="M19.4546 30.182H18.9092V26.8184H19.4546V30.182Z" fill="#A5A5A5"/>
<path d="M21.1816 26.8184L21.6361 28.6365V26.8184H22.0907V30.182H21.6361L21.1816 28.2729V30.182H20.7271V26.8184H21.1816Z" fill="#A5A5A5"/>
<path d="M23.9091 30.2729C23.6364 30.2729 23.4546 30.0002 23.4546 29.6365V27.5456C23.4546 27.182 23.6364 26.8184 24.091 26.8184H24.1819C24.7273 26.8184 24.8182 27.182 24.8182 27.5456V27.9093H24.2728V27.5456C24.2728 27.3638 24.2728 27.2729 24.091 27.2729C24 27.2729 23.9091 27.3638 23.9091 27.5456V29.5456C23.9091 29.7275 24 29.8184 24.091 29.8184C24.1819 29.8184 24.2728 29.7274 24.2728 29.6365V28.8184H24V28.182H24.7273V30.2729H24.4546C24.4546 30.2729 24.3637 30.0911 24.3637 29.9093C24.3637 30.0002 24.2728 30.2729 23.9091 30.2729Z" fill="#A5A5A5"/>
<path d="M17.7278 31.6367L18.1823 32.7276L19.3641 32.9094L18.5459 33.7276L18.7278 34.8185L17.7278 34.2731L16.6369 34.8185L16.8187 33.7276L16.0005 32.9094L17.1823 32.7276L17.7278 31.6367Z" fill="#A5A5A5"/>
<path d="M21.6368 31.3638L22.0004 32.091L22.7277 32.182L22.1823 32.7274L22.3641 33.5456L21.6368 33.182L21.0004 33.5456L21.0914 32.7274L20.5459 32.182L21.2732 32.091L21.6368 31.3638Z" fill="#A5A5A5"/>
<path d="M13.7276 31.3638L14.0913 32.091L14.8185 32.182L14.2731 32.7274L14.364 33.5456L13.7276 33.182L13.0004 33.5456L13.1822 32.7274L12.6367 32.182L13.364 32.091L13.7276 31.3638Z" fill="#A5A5A5"/>
</svg>
