<svg width="46" height="27" viewBox="0 0 46 27" fill="none" xmlns="http://www.w3.org/2000/svg">
<path d="M9.2 5.89971V5.79971C9.2 4.59971 8.3 4.19971 7.7 4.09971C8.1 3.99971 8.9 3.59971 8.9 2.79971V2.69971C8.9 1.89971 8.4 1.19971 6.4 1.19971H0V7.89971H6.4C8.5 7.79971 9.2 6.89971 9.2 5.89971ZM2.6 2.59971H5.6C6.1 2.59971 6.3 2.79971 6.3 3.09971C6.3 3.39971 6.1 3.59971 5.6 3.59971H2.6V2.59971ZM5.7 6.19971H2.6V4.99971H5.7C6.4 4.99971 6.5 5.29971 6.5 5.59971C6.5 5.89971 6.4 6.19971 5.7 6.19971Z" fill="#A5A5A5"/>
<path d="M17.1002 5.9001H12.3002V1.1001H9.7002V7.8001H16.0002L17.1002 5.9001Z" fill="#A5A5A5"/>
<path d="M19.3002 7.8001H23.5002L22.7002 6.1001H20.1002L20.6002 5.1001L21.7002 2.8001L22.8002 5.1001L23.7002 6.7001L24.2002 7.8001H27.0002L23.5002 1.1001H20.0002L16.7002 7.8001H19.3002Z" fill="#A5A5A5"/>
<path d="M31.1999 7.9999H31.5999C35.5999 7.9999 36.2999 6.0999 36.2999 5.1999V4.9999H33.5999C33.5999 5.1999 33.3999 6.0999 31.3999 6.0999C29.5999 6.0999 29.0999 5.1999 29.0999 4.3999V4.2999C29.0999 3.5999 29.4999 2.6999 31.2999 2.6999C33.1999 2.6999 33.4999 3.4999 33.4999 3.6999H36.1999V3.5999C36.1999 2.6999 35.5999 0.899902 31.4999 0.899902H31.0999C26.8999 0.899902 26.3999 2.8999 26.3999 4.1999V4.4999C26.3999 5.7999 27.0999 7.9999 31.1999 7.9999Z" fill="#A5A5A5"/>
<path d="M39.3998 4.8001L42.6998 7.8001H45.9998L41.9998 4.2001L45.8998 1.1001H42.6998L39.3998 3.8001V1.1001H36.7998V7.8001H39.3998V4.8001Z" fill="#A5A5A5"/>
<path d="M9.6 16.0001C8 16.0001 7.9 15.4001 7.8 15.0001H5V15.1001C5 16.0001 5.4 17.5001 9.1 17.5001H9.9C13.4 17.5001 14.1 16.3001 14.1 15.2001V15.1001C14.1 13.7001 13.1 13.1001 10.6 13.1001H9.4C8.1 13.1001 7.9 12.9001 7.9 12.6001C7.9 12.3001 8 12.1001 9.4 12.1001H9.5C11 12.1001 11.1 12.6001 11.1 12.8001H13.9V12.7001C13.9 11.6001 13.1 10.6001 9.8 10.6001H9C5.9 10.6001 5.1 11.6001 5.1 12.6001V12.7001C5.1 13.7001 5.8 14.6001 8.4 14.7001H9.6C11 14.7001 11.2 15.0001 11.2 15.3001C11.2 15.7001 11 16.0001 9.6 16.0001Z" fill="#A5A5A5"/>
<path d="M19.6998 17.4001V12.5001H22.5998V10.6001H14.2998V12.5001H17.1998V17.4001H19.6998Z" fill="#A5A5A5"/>
<path d="M38.3 16.1997V16.9997C38.3 17.1997 38.3 17.2997 38.4 17.3997H41C40.9 17.2997 40.9 17.0997 40.9 16.5997V15.5997C40.9 14.6997 40.3 14.1997 39.5 13.9997C40 13.8997 40.9 13.4997 40.9 12.4997V12.3997C40.9 11.2997 40 10.6997 38.1 10.6997H32V17.3997H34.6V15.0997H37.1C37.9 15.0997 38.3 15.4997 38.3 16.1997ZM34.5 12.2997H37.4C38 12.2997 38.2 12.5997 38.2 12.8997C38.2 13.1997 38 13.4997 37.4 13.4997H34.5V12.2997Z" fill="#A5A5A5"/>
<path d="M27.2998 15.6001H24.7998L25.1998 14.6001L26.2998 12.3001L27.4998 14.6001L28.2998 16.3001L28.7998 17.4001H31.5998L28.0998 10.6001H24.6998L21.2998 17.4001H23.8998H28.0998L27.2998 15.6001Z" fill="#A5A5A5"/>
<path d="M11.8999 24.4997L10.4999 20.1997H7.5999L6.2999 24.5997L4.6999 20.1997H1.8999L4.4999 26.8997H7.5999L8.9999 22.6997L10.3999 26.8997H13.3999L15.9999 20.1997H13.2999L11.8999 24.4997Z" fill="#A5A5A5"/>
<path d="M18.7998 24.2997H23.5998V22.6997H18.7998V21.7997H23.6998V20.1997H16.2998V26.8997H23.7998V25.1997H18.7998V24.2997Z" fill="#A5A5A5"/>
<path d="M27.5002 20.1997L24.2002 26.8997H26.8002H31.0002L30.1002 25.1997H27.6002L28.1002 24.0997L29.2002 21.7997L30.3002 24.0997L31.1002 25.7997L31.6002 26.8997H34.4002L30.9002 20.1997H27.5002Z" fill="#A5A5A5"/>
<path d="M43.6002 25.0997C43.6002 24.1997 43.0002 23.6997 42.2002 23.4997C42.7002 23.3997 43.6002 22.9997 43.6002 21.9997V21.8997C43.6002 20.7997 42.7002 20.1997 40.8002 20.1997H34.7002V26.8997H37.3002V24.5997H39.8002C40.8002 24.5997 41.2002 24.9997 41.2002 25.7997V26.5997C41.2002 26.7997 41.2002 26.8997 41.3002 26.9997H43.9002C43.8002 26.8997 43.8002 26.6997 43.8002 26.1997V25.0997H43.6002ZM41.0002 22.3997C41.0002 22.6997 40.8002 22.9997 40.2002 22.9997H37.3002V21.7997H40.2002C40.8002 21.7997 41.0002 22.0997 41.0002 22.3997Z" fill="#A5A5A5"/>
</svg>
