<svg width="61" height="28" viewBox="0 0 61 28" fill="none" xmlns="http://www.w3.org/2000/svg">
<path d="M36.5455 8.27295H37.5455V9.18204L37.4545 9.27295C37.3636 9.27295 37.3636 9.36386 37.2727 9.36386C37.1818 9.36386 37.0909 9.45477 37 9.45477C36.9091 9.45477 36.8182 9.45477 36.7273 9.45477C36.2727 9.45477 35.9091 9.27295 35.7273 9.00022C35.5455 8.72749 35.4545 8.27295 35.4545 7.63659V7.27295C35.4545 7.00022 35.4545 6.72749 35.5455 6.45477C35.6364 6.18204 35.6364 6.00022 35.8182 5.90931C35.9091 5.72749 36 5.63659 36.1818 5.54568C36.3636 5.45477 36.4545 5.45477 36.6364 5.45477C36.8182 5.45477 36.9091 5.45477 37.0909 5.54568C37.1818 5.54568 37.2727 5.63658 37.3636 5.72749C37.4545 5.8184 37.5455 5.90931 37.5455 6.00022C37.6364 6.09113 37.6364 6.27295 37.6364 6.36386H39.0909C39.0909 6.09113 39 5.8184 38.9091 5.54568C38.8182 5.27295 38.6364 5.09113 38.4545 4.90931C38.2727 4.72749 38 4.54568 37.7273 4.45477C37.4545 4.36386 37.0909 4.27295 36.6364 4.27295C36.2727 4.27295 35.9091 4.36386 35.5455 4.45477C35.1818 4.54568 34.9091 4.8184 34.7273 5.00022C34.4545 5.27295 34.2727 5.54568 34.1818 5.90931C34.0909 6.27295 34 6.72749 34 7.18204V7.54568C34 8.00022 34.0909 8.45477 34.1818 8.8184C34.2727 9.18204 34.4545 9.45477 34.7273 9.72749C35 10.0002 35.2727 10.182 35.5455 10.2729C35.9091 10.3639 36.2727 10.4548 36.6364 10.4548C37 10.4548 37.2727 10.4548 37.5455 10.3639C37.8182 10.2729 38 10.2729 38.2727 10.182C38.4545 10.0911 38.6364 10.0002 38.8182 9.90931C39 9.8184 39.0909 9.7275 39.1818 9.63659V7.09113H36.7273V8.27295H36.5455Z" fill="#A5A5A5"/>
<path d="M41.9091 4.09082H40.4546V10.5454H41.9091V4.09082Z" fill="#A5A5A5"/>
<path d="M46.9091 6.63636C46.7273 6.45455 46.4545 6.27273 46.1818 6.18182C45.9091 6.09091 45.6364 6 45.2727 6C44.9091 6 44.6364 6.09091 44.3636 6.18182C44.0909 6.27273 43.8182 6.45455 43.6364 6.63636C43.4545 6.81818 43.2727 7.09091 43.1818 7.36364C43.0909 7.63636 43 7.90909 43 8.27273V8.36364C43 8.72727 43.0909 9 43.1818 9.27273C43.2727 9.54545 43.4545 9.81818 43.6364 10C43.8182 10.1818 44.0909 10.3636 44.3636 10.4545C44.6364 10.5455 44.9091 10.6364 45.2727 10.6364C45.6364 10.6364 45.9091 10.5455 46.1818 10.4545C46.4545 10.3636 46.7273 10.1818 46.9091 10C47.0909 9.81818 47.2727 9.54545 47.3636 9.27273C47.4545 9 47.5455 8.72727 47.5455 8.36364V8.27273C47.5455 7.90909 47.4545 7.63636 47.3636 7.36364C47.1818 7.09091 47.0909 6.81818 46.9091 6.63636ZM46.0909 8.36364C46.0909 8.54545 46.0909 8.72727 46.0909 8.81818C46.0909 9 46 9.09091 46 9.18182C45.9091 9.27273 45.8182 9.36364 45.7273 9.45455C45.6364 9.54545 45.5455 9.54545 45.3636 9.54545C45.1818 9.54545 45.0909 9.54545 45 9.45455C44.9091 9.36364 44.8182 9.27273 44.7273 9.18182C44.6364 9.09091 44.6364 8.90909 44.6364 8.81818C44.6364 8.63636 44.6364 8.54545 44.6364 8.36364V8.27273C44.6364 8.09091 44.6364 7.90909 44.6364 7.81818C44.6364 7.63636 44.7273 7.54545 44.7273 7.45455C44.8182 7.36364 44.9091 7.27273 45 7.18182C45.0909 7.09091 45.1818 7.09091 45.3636 7.09091C45.5455 7.09091 45.6364 7.09091 45.7273 7.18182C45.8182 7.27273 45.9091 7.36364 46 7.45455C46.0909 7.54545 46.0909 7.72727 46.0909 7.81818C46 7.90909 46.0909 8.09091 46.0909 8.36364Z" fill="#A5A5A5"/>
<path d="M52.3636 6.63667C52.1818 6.45486 52 6.27304 51.8181 6.18213C51.6363 6.09122 51.3636 6.00031 51 6.00031C50.8181 6.00031 50.5454 6.00031 50.4545 6.09122C50.2727 6.18213 50.1818 6.27304 50 6.45486V4.18213H48.5454V10.6367H49.8181L49.909 10.1821C50 10.3639 50.1818 10.4549 50.3636 10.5458C50.5454 10.6367 50.7272 10.7276 51 10.7276C51.2727 10.7276 51.5454 10.6367 51.8181 10.5458C52 10.4549 52.1818 10.273 52.3636 10.0912C52.5454 9.9094 52.6363 9.63667 52.7272 9.36395C52.8181 9.09122 52.8181 8.72758 52.8181 8.45486V8.36395C52.8181 8.00031 52.8181 7.72758 52.7272 7.45486C52.6363 7.09122 52.5454 6.81849 52.3636 6.63667ZM51.3636 8.36395C51.3636 8.54577 51.3636 8.72758 51.3636 8.81849C51.3636 9.00031 51.2727 9.09122 51.2727 9.18213C51.1818 9.27304 51.1818 9.36395 51.0909 9.45486C51 9.54577 50.909 9.54577 50.7272 9.54577C50.5454 9.54577 50.4545 9.54577 50.2727 9.45486C50.1818 9.36395 50.0909 9.27304 50 9.18213V7.36395C50.0909 7.27304 50.1818 7.18213 50.2727 7.09122C50.3636 7.00031 50.5454 7.00031 50.7272 7.00031C50.909 7.00031 51 7.00031 51.0909 7.09122C51.1818 7.18213 51.2727 7.27304 51.2727 7.36395C51.3636 7.45486 51.3636 7.63668 51.3636 7.72758C51.3636 7.9094 51.3636 8.09122 51.3636 8.36395Z" fill="#A5A5A5"/>
<path d="M57.818 10.0909C57.818 10 57.818 9.90909 57.818 9.81818C57.818 9.72727 57.818 9.54545 57.818 9.45455V7.63636C57.818 7.36364 57.7271 7.09091 57.6362 6.90909C57.5453 6.72727 57.4544 6.54546 57.2726 6.36364C57.0908 6.27273 56.9089 6.09091 56.6362 6.09091C56.3635 6 56.1817 6 55.9089 6C55.6362 6 55.3635 6 55.0908 6.09091C54.818 6.18182 54.6362 6.27273 54.4544 6.36364C54.2726 6.45455 54.1817 6.63636 54.0908 6.81818C53.9998 7 53.9089 7.18182 53.9089 7.36364H55.3635C55.3635 7.18182 55.3635 7.09091 55.4544 7C55.5453 6.90909 55.6362 6.90909 55.818 6.90909C55.9998 6.90909 56.1817 7 56.2726 7.09091C56.3635 7.18182 56.3635 7.36364 56.3635 7.54545V7.81818H55.9089C55.5453 7.81818 55.2726 7.81818 54.9998 7.90909C54.7271 8 54.5453 8.09091 54.3635 8.18182C54.1817 8.27273 54.0908 8.45455 53.9998 8.63636C53.9089 8.81818 53.9089 9 53.9089 9.27273C53.9089 9.45454 53.9089 9.63636 53.9998 9.81818C54.0908 10 54.1817 10.0909 54.3635 10.2727C54.5453 10.3636 54.6362 10.4545 54.818 10.5455C54.9998 10.6364 55.1817 10.6364 55.4544 10.6364C55.7271 10.6364 55.9089 10.5455 56.0907 10.4545C56.2726 10.3636 56.3635 10.2727 56.5453 10.0909C56.5453 10.1818 56.5453 10.2727 56.6362 10.2727C56.6362 10.3636 56.7271 10.3636 56.7271 10.4545H58.1817V10.3636C58.1817 10.2727 58.0908 10.2727 58.0908 10.1818C57.818 10.2727 57.818 10.1818 57.818 10.0909ZM56.3635 9.27273C56.2726 9.36364 56.2726 9.45455 56.0907 9.54545C55.9998 9.63636 55.818 9.63636 55.6362 9.63636C55.5453 9.63636 55.3635 9.63636 55.2726 9.54545C55.1817 9.45455 55.1817 9.36364 55.1817 9.27273C55.1817 9.18182 55.1817 9.09091 55.1817 9C55.1817 8.90909 55.2726 8.81818 55.2726 8.81818C55.3635 8.72727 55.3635 8.72727 55.4544 8.63636C55.5453 8.63636 55.6362 8.54545 55.818 8.54545H56.2726V9.27273H56.3635Z" fill="#A5A5A5"/>
<path d="M60.5454 4.09082H59.0908V10.5454H60.5454V4.09082Z" fill="#A5A5A5"/>
<path d="M38.091 18.2729C38.2728 18.091 38.4546 17.9092 38.5455 17.7274C38.6364 17.5456 38.7273 17.2729 38.7273 17.0001C38.7273 16.7274 38.6364 16.5456 38.6364 16.2729C38.5455 16.091 38.4546 15.9092 38.2728 15.7274C38.091 15.5456 37.9092 15.4547 37.6364 15.2729C37.3637 15.1819 37.091 15.0001 36.7273 14.9092C36.5455 14.8183 36.3637 14.8183 36.2728 14.7274C36.091 14.6365 36.0001 14.6365 35.9092 14.5456C35.8183 14.4547 35.7273 14.4547 35.7273 14.3638C35.6364 14.2729 35.6364 14.182 35.6364 14.091C35.6364 14.0001 35.6364 13.9092 35.7273 13.8183C35.7273 13.7274 35.8183 13.6365 35.9092 13.6365C36.0001 13.5456 36.091 13.5456 36.1819 13.5456C36.2728 13.5456 36.4546 13.4547 36.5455 13.4547C36.7273 13.4547 36.8182 13.4547 36.9092 13.5456C37.0001 13.5456 37.091 13.6365 37.1819 13.7274C37.2728 13.8183 37.2728 13.9092 37.3637 14.0001C37.3637 14.091 37.4546 14.1819 37.4546 14.2729H38.9092C38.9092 14.0001 38.8183 13.7274 38.7273 13.4547C38.6364 13.182 38.4546 13.0001 38.2728 12.8183C38.091 12.6365 37.8183 12.5456 37.5455 12.4547C37.2728 12.3638 37.0001 12.3638 36.6364 12.3638C36.2728 12.3638 36.0001 12.3638 35.7273 12.4547C35.4546 12.5456 35.1819 12.6365 35.0001 12.8183C34.8183 13.0001 34.6364 13.1819 34.5455 13.3638C34.4546 13.5456 34.3637 13.8183 34.3637 14.091C34.3637 14.3638 34.4546 14.6365 34.5455 14.8183C34.6364 15.0001 34.8183 15.182 35.0001 15.3638C35.1819 15.5456 35.4546 15.6365 35.6364 15.7274C35.9092 15.8183 36.1819 15.9092 36.4546 16.0001C36.7273 16.091 36.9092 16.1819 37.0001 16.1819C37.1819 16.2729 37.2728 16.2729 37.3637 16.3638C37.4546 16.4547 37.4546 16.5456 37.5455 16.5456C37.5455 16.6365 37.5455 16.7274 37.5455 16.8183C37.5455 16.9092 37.5455 17.0001 37.5455 17.091C37.5455 17.1819 37.4546 17.2729 37.3637 17.2729C37.2728 17.3638 37.1819 17.3638 37.091 17.3638C37.0001 17.3638 36.9092 17.4547 36.7273 17.4547C36.5455 17.4547 36.3637 17.4547 36.2728 17.3638C36.1819 17.3638 36.0001 17.2729 35.9092 17.1819C35.8183 17.091 35.7273 17.0001 35.7273 16.9092C35.6364 16.8183 35.6364 16.6365 35.6364 16.4547H34.1819C34.1819 16.7274 34.1819 16.9092 34.2728 17.091C34.3637 17.2729 34.4546 17.4547 34.5455 17.6365C34.6364 17.8183 34.8183 17.9092 35.0001 18.0001C35.1819 18.091 35.3637 18.182 35.5455 18.2729C35.7273 18.3638 35.9092 18.3638 36.1819 18.4547C36.3637 18.4547 36.6364 18.5456 36.8183 18.5456C37.1819 18.5456 37.4546 18.5456 37.7273 18.4547C37.6364 18.5456 37.9092 18.4547 38.091 18.2729Z" fill="#A5A5A5"/>
<path d="M42 17.6364C41.909 17.6364 41.8181 17.6364 41.8181 17.6364C41.7272 17.6364 41.7272 17.6364 41.6363 17.5455C41.6363 17.5455 41.5454 17.4545 41.5454 17.3636C41.5454 17.2727 41.5454 17.2727 41.5454 17.1818V15.0909H42.2727V14.0909H41.5454V13H40.0909V14.0909H39.5454V15.0909H40.0909V17.3636C40.0909 17.6364 40.0909 17.8182 40.1818 18C40.2727 18.1818 40.3636 18.3636 40.4545 18.4545C40.5454 18.5455 40.7272 18.6364 40.909 18.7273C41.0909 18.8182 41.2727 18.8182 41.5454 18.8182C41.7272 18.8182 41.8181 18.8182 42 18.8182C42.0909 18.8182 42.2727 18.7273 42.3636 18.7273V17.7273C42.2727 17.7273 42.2727 17.7273 42.1818 17.7273C42.1818 17.6364 42.0909 17.6364 42 17.6364Z" fill="#A5A5A5"/>
<path d="M47.1818 18.1817C47.1818 18.0908 47.1818 17.9999 47.1818 17.909C47.1818 17.8181 47.1818 17.6363 47.1818 17.5454V15.7272C47.1818 15.4545 47.0909 15.1817 47 14.9999C46.9091 14.8181 46.8182 14.6363 46.6363 14.4545C46.4545 14.3635 46.2727 14.1817 46 14.1817C45.7273 14.0908 45.5454 14.0908 45.2727 14.0908C45 14.0908 44.7272 14.0908 44.4545 14.1817C44.1818 14.2726 44 14.3635 43.8182 14.4545C43.6363 14.5454 43.5454 14.7272 43.4545 14.909C43.3636 15.0908 43.2727 15.2726 43.2727 15.4545H44.7272C44.7272 15.2726 44.7273 15.1817 44.8182 15.0908C44.9091 14.9999 45 14.9999 45.1818 14.9999C45.3636 14.9999 45.5454 15.0908 45.6363 15.1817C45.7272 15.2726 45.7273 15.4545 45.7273 15.6363V15.909H45.2727C44.9091 15.909 44.5454 15.909 44.3636 15.9999C44.0909 16.0908 43.9091 16.1817 43.7273 16.2726C43.5454 16.3635 43.4545 16.5454 43.3636 16.7272C43.2727 16.909 43.2727 17.0908 43.2727 17.3635C43.2727 17.5454 43.2727 17.7272 43.3636 17.909C43.4545 18.0908 43.5454 18.1817 43.7273 18.3635C43.9091 18.4545 44 18.5454 44.1818 18.6363C44.3636 18.7272 44.5454 18.7272 44.8182 18.7272C45.0909 18.7272 45.2727 18.6363 45.4545 18.5454C45.6363 18.4545 45.7273 18.3635 45.9091 18.1817C45.9091 18.2726 45.9091 18.3635 46 18.3635C46 18.4545 46.0909 18.4545 46.0909 18.5454H47.5454C47.5454 18.4545 47.4545 18.4545 47.4545 18.3635C47.2727 18.3635 47.1818 18.2726 47.1818 18.1817ZM45.7273 17.3635C45.6363 17.4545 45.6363 17.5454 45.4545 17.6363C45.3636 17.7272 45.1818 17.7272 45 17.7272C44.9091 17.7272 44.7273 17.7272 44.6363 17.6363C44.5454 17.5454 44.5454 17.4545 44.5454 17.3635C44.5454 17.2726 44.5454 17.1817 44.5454 17.0908C44.5454 16.9999 44.6363 16.909 44.6363 16.909C44.7273 16.8181 44.7273 16.8181 44.8182 16.7272C44.9091 16.7272 45 16.6363 45.1818 16.6363H45.6363V17.3635H45.7273Z" fill="#A5A5A5"/>
<path d="M50.8181 14C50.6363 14 50.3635 14.0909 50.2726 14.1818C50.0908 14.2727 49.9999 14.4545 49.8181 14.6364L49.7272 14.0909H48.3635V18.6364H49.8181V15.7273C49.909 15.5455 49.9999 15.4545 50.0908 15.4545C50.2726 15.3636 50.4544 15.3636 50.6363 15.3636H50.7272H50.8181H50.909H50.9999V14.0909C50.909 14.0909 50.909 14.0909 50.8181 14.0909C50.9999 14 50.909 14 50.8181 14Z" fill="#A5A5A5"/>
<path d="M35.7273 23.5453C35.7273 23.4544 35.7273 23.4544 35.7273 23.3635C35.7273 23.2726 35.7273 23.2726 35.7273 23.2726C35.7273 23.1817 35.7273 23.1817 35.7273 23.0908C35.7273 22.9999 35.7273 22.9999 35.6364 22.909L35.5455 22.818C35.5455 22.818 35.4546 22.818 35.3637 22.7271C35.4546 22.7271 35.6364 22.6362 35.6364 22.5453C35.7273 22.4544 35.7273 22.3635 35.7273 22.1817C35.7273 22.0908 35.7273 21.9999 35.6364 21.909C35.6364 21.818 35.5455 21.818 35.4546 21.7271C35.3637 21.7271 35.3637 21.6362 35.2728 21.6362C35.1819 21.6362 35.091 21.6362 35.0001 21.6362H34.1819V23.7271H34.3637V22.818H35.091C35.1819 22.818 35.2728 22.818 35.2728 22.909C35.3637 22.909 35.3637 22.9999 35.3637 23.0908C35.3637 23.1817 35.4546 23.1817 35.4546 23.2726C35.4546 23.3635 35.4546 23.4544 35.4546 23.4544V23.5453V23.6362V23.7271V23.818H35.6364C35.6364 23.818 35.6364 23.7271 35.5455 23.7271C35.7273 23.6362 35.7273 23.6362 35.7273 23.5453ZM35.2728 22.6362C35.1819 22.6362 35.1819 22.6362 35.091 22.6362H34.3637V21.818H35.091C35.2728 21.818 35.3637 21.818 35.4546 21.909C35.5455 21.9999 35.5455 22.0908 35.5455 22.1817C35.5455 22.2726 35.5455 22.2726 35.5455 22.3635C35.5455 22.4544 35.4546 22.4544 35.4546 22.4544C35.3637 22.6362 35.3637 22.6362 35.2728 22.6362Z" fill="#A5A5A5"/>
<path d="M38.7273 23.0003C38.7273 23.0912 38.7273 23.1821 38.7273 23.273C38.7273 23.3639 38.6364 23.4548 38.6364 23.4548C38.5455 23.5457 38.5455 23.5457 38.4546 23.5457C38.3637 23.5457 38.2728 23.5457 38.1819 23.5457C38.091 23.5457 38 23.5457 37.9091 23.5457C37.8182 23.5457 37.7273 23.4548 37.7273 23.4548C37.6364 23.3639 37.6364 23.3639 37.6364 23.273C37.6364 23.1821 37.6364 23.0912 37.6364 23.0003V21.7275H37.4546V23.0912C37.4546 23.1821 37.4546 23.273 37.5455 23.3639C37.5455 23.4548 37.6364 23.5457 37.7273 23.6366C37.8182 23.7275 37.9091 23.7275 38 23.8184C38.091 23.8184 38.2728 23.9094 38.3637 23.9094C38.5455 23.9094 38.6364 23.9094 38.7273 23.8184C38.8182 23.8184 38.9091 23.7275 39 23.6366C39.091 23.5457 39.091 23.4548 39.1819 23.3639C39.1819 23.273 39.2728 23.1821 39.2728 23.0912V21.7275H38.7273V23.0003Z" fill="#A5A5A5"/>
<path d="M41.9999 22.8184C41.909 22.8184 41.909 22.7275 41.8181 22.7275C41.7272 22.7275 41.6363 22.6365 41.6363 22.6365L41.0908 22.5456H40.9999C40.9999 22.5456 40.909 22.5456 40.909 22.4547L40.8181 22.3638V22.2729C40.8181 22.182 40.8181 22.0911 40.8181 22.0911C40.8181 22.0002 40.909 22.0002 40.909 22.0002C40.9999 22.0002 40.9999 21.9093 41.0908 21.9093C41.1817 21.9093 41.1817 21.9093 41.2726 21.9093C41.3635 21.9093 41.4544 21.9093 41.4544 21.9093C41.5453 21.9093 41.5453 22.0002 41.6363 22.0002C41.7272 22.0002 41.7272 22.0911 41.7272 22.182C41.7272 22.2729 41.8181 22.2729 41.8181 22.3638H41.9999C41.9999 22.2729 41.9999 22.182 41.909 22.0911C41.909 22.0002 41.8181 21.9093 41.7272 21.9093C41.6363 21.8184 41.5453 21.8184 41.4544 21.8184C41.3635 21.8184 41.2726 21.8184 41.1817 21.8184C40.9999 21.8184 40.909 21.8184 40.8181 21.9093C40.7272 21.9093 40.6363 22.0002 40.6363 22.0911C40.5453 22.182 40.5453 22.182 40.5453 22.2729C40.5453 22.3638 40.5453 22.3638 40.5453 22.4547C40.5453 22.5456 40.5453 22.6365 40.5453 22.6365C40.5453 22.7275 40.6363 22.7275 40.6363 22.8184C40.6363 22.8184 40.7272 22.9093 40.8181 22.9093C40.909 22.9093 40.909 22.9093 40.9999 23.0002L41.4544 23.0911C41.5453 23.0911 41.5453 23.0911 41.6363 23.182C41.7272 23.182 41.7272 23.182 41.8181 23.2729L41.909 23.3638C41.909 23.3638 41.909 23.4547 41.909 23.5456C41.909 23.6365 41.909 23.7275 41.8181 23.7275C41.8181 23.8184 41.7272 23.8184 41.6363 23.8184C41.5453 23.8184 41.5453 23.9093 41.4544 23.9093C41.3635 23.9093 41.3635 23.9093 41.2726 23.9093C41.1817 23.9093 41.0908 23.9093 40.9999 23.9093C40.909 23.9093 40.8181 23.8184 40.8181 23.8184C40.7272 23.8184 40.7272 23.7274 40.6363 23.6365C40.6363 23.5456 40.5453 23.4547 40.5453 23.3638H40.3635C40.3635 23.4547 40.3635 23.6365 40.4544 23.7275C40.4544 23.8184 40.5453 23.9093 40.6363 24.0002C40.7272 24.0911 40.8181 24.0911 40.909 24.0911C40.9999 24.0911 41.0908 24.0911 41.2726 24.0911C41.3635 24.0911 41.5453 24.0911 41.6363 24.0911C41.7272 24.0911 41.8181 24.0002 41.8181 24.0002C41.909 24.0002 41.909 23.9093 41.9999 23.9093L42.0908 23.8184V23.7275V23.6365C42.0908 23.5456 42.0908 23.4547 42.0908 23.4547C41.9999 22.9093 41.9999 22.9093 41.9999 22.8184Z" fill="#A5A5A5"/>
<path d="M45 22.8184C44.9091 22.8184 44.9091 22.7275 44.8182 22.7275C44.7273 22.7275 44.6364 22.6365 44.6364 22.6365L44.091 22.5456H44C44 22.5456 43.9091 22.5456 43.9091 22.4547L43.8182 22.3638V22.2729C43.8182 22.182 43.8182 22.0911 43.8182 22.0911C43.8182 22.0002 43.9091 22.0002 43.9091 22.0002C44 22.0002 44 21.9093 44.091 21.9093C44.1819 21.9093 44.1819 21.9093 44.2728 21.9093C44.3637 21.9093 44.4546 21.9093 44.4546 21.9093C44.5455 21.9093 44.5455 22.0002 44.6364 22.0002C44.7273 22.0002 44.7273 22.0911 44.7273 22.182C44.7273 22.2729 44.8182 22.2729 44.8182 22.3638H45.091C45.091 22.2729 45.091 22.182 45 22.0911C45 22.0002 44.9091 21.9093 44.8182 21.9093C44.7273 21.8184 44.6364 21.8184 44.5455 21.8184C44.4546 21.8184 44.3637 21.8184 44.2728 21.8184C44.091 21.8184 44 21.8184 43.9091 21.9093C43.8182 21.9093 43.7273 22.0002 43.7273 22.0911C43.6364 22.182 43.6364 22.182 43.6364 22.2729C43.6364 22.3638 43.6364 22.3638 43.6364 22.4547C43.6364 22.5456 43.6364 22.6365 43.6364 22.6365C43.6364 22.7275 43.7273 22.7275 43.7273 22.8184C43.7273 22.8184 43.8182 22.9093 43.9091 22.9093C44 22.9093 44 22.9093 44.091 23.0002L44.5455 23.0911C44.6364 23.0911 44.6364 23.0911 44.7273 23.182C44.8182 23.182 44.8182 23.182 44.9091 23.2729L45 23.3638C45 23.3638 45 23.4547 45 23.5456C45 23.6365 45 23.7275 44.9091 23.7275C44.9091 23.8184 44.8182 23.8184 44.7273 23.8184C44.6364 23.8184 44.6364 23.9093 44.5455 23.9093C44.4546 23.9093 44.4546 23.9093 44.3637 23.9093C44.2728 23.9093 44.1819 23.9093 44.091 23.9093C44 23.9093 43.9091 23.8184 43.9091 23.8184C43.8182 23.8184 43.8182 23.7274 43.7273 23.6365C43.7273 23.5456 43.6364 23.4547 43.6364 23.3638H43.4546C43.4546 23.4547 43.4546 23.6365 43.5455 23.7275C43.5455 23.8184 43.6364 23.9093 43.7273 24.0002C43.8182 24.0911 43.9091 24.0911 44 24.0911C44.091 24.0911 44.1819 24.0911 44.3637 24.0911C44.4546 24.0911 44.6364 24.0911 44.7273 24.0911C44.8182 24.0911 44.9091 24.0002 44.9091 24.0002C45 24.0002 45 23.9093 45.091 23.9093L45.1819 23.8184V23.7275V23.6365C45.1819 23.5456 45.1819 23.4547 45.1819 23.4547C45.0909 22.9093 45.091 22.9093 45 22.8184Z" fill="#A5A5A5"/>
<path d="M46.9091 21.7275H46.7273V23.8184H46.9091V21.7275Z" fill="#A5A5A5"/>
<path d="M49.1817 21.7275L48.3635 23.8184H48.5453L48.8181 23.1821H49.8181L50.0908 23.8184H50.2726L49.4544 21.7275H49.1817ZM48.909 23.0003L49.3635 21.9094L49.7272 23.0003H48.909Z" fill="#A5A5A5"/>
<path d="M8.72723 12.091H4.90905C5.81814 8.54554 8.99996 6.00009 12.8181 6.00009C15.0909 6.00009 17.0909 6.90918 18.5454 8.36373L21.4545 5.45463C19.2727 3.27282 16.1818 1.90918 12.8181 1.90918C5.99996 1.90918 0.54541 7.36373 0.54541 14.1819C0.54541 14.9092 0.636319 15.5455 0.727228 16.1819H8.72723V12.091Z" fill="#A5A5A5"/>
<path d="M12.7272 16.1821H20.6363C19.7272 19.7276 16.5454 22.273 12.7272 22.273C10.4545 22.273 8.45446 21.3639 6.99991 19.9094L4.09082 22.8185C6.27264 25.0003 9.36355 26.3639 12.7272 26.3639C19.4545 26.3639 24.909 20.9094 24.909 14.1821V12.1821H12.7272V16.1821Z" fill="#A5A5A5"/>
<path d="M29.5454 0.90918H29.0908V27.1819H29.5454V0.90918Z" fill="#A5A5A5"/>
</svg>
