<svg id="Слой_1" data-name="Слой 1" xmlns="http://www.w3.org/2000/svg" viewBox="0 0 80 70"><defs><style>.cls-1{fill:#696646;}</style></defs><title>Монтажная область 1</title><polygon class="cls-1" points="41.99 70.38 41.74 54.19 57.55 39.49 57.79 54.58 41.99 70.38"/><polygon class="cls-1" points="5.22 33.61 21.37 33.85 36.1 18.04 21.02 17.81 5.22 33.61"/><path class="cls-1" d="M75.18.42,46,4.14,28.32,21.82,14.89,43.74l17,17L53.78,47.27,71.46,29.59ZM34.7,31.16l11.48-4.92-5.1-5.18,23.15-2.78L52.38,25l5.8,5.89Z"/><polygon class="cls-1" points="18.22 50.71 8.92 57.19 15.4 47.88 18.22 50.71"/><polygon class="cls-1" points="22.97 55.46 6.59 69.01 20.14 52.63 22.97 55.46"/><polygon class="cls-1" points="27.71 60.2 18.41 66.68 24.88 57.37 27.71 60.2"/></svg>