<svg id="Слой_1" data-name="Слой 1" xmlns="http://www.w3.org/2000/svg" viewBox="0 0 80 70"><defs><style>.cls-1{fill:#696646;}</style></defs><title>Монтажная область 1 копия</title><path class="cls-1" d="M63.83,35.64a4.22,4.22,0,0,0-1.78,2.52,4.17,4.17,0,0,0-3.73.38,4.22,4.22,0,0,0-1.78,2.52,4.17,4.17,0,0,0-3.73.38,4.23,4.23,0,0,0-1.54,1.81L42.11,31.94a4.19,4.19,0,0,0-6.22-.32,4.33,4.33,0,0,0-.18,5.75L44.91,48.7l-.49,4.73a7.2,7.2,0,0,0,2.78,6.48L56,66.72a9.65,9.65,0,0,0,12-.15l8-6.5a9.69,9.69,0,0,0,1.41-13.62l-8-9.81A4.33,4.33,0,0,0,63.83,35.64ZM75.69,47.89a7.4,7.4,0,0,1-1.08,10.4l-8,6.5a7.37,7.37,0,0,1-9.18.11L48.6,58.1a4.93,4.93,0,0,1-1.9-4.43L47,51.21l2.49,3.07a1.14,1.14,0,1,0,1.78-1.44L37.48,35.92a2,2,0,0,1,0-2.68,1.91,1.91,0,0,1,2.83.14L53,49a1.14,1.14,0,1,0,1.78-1.44l-1.15-1.42a1.91,1.91,0,0,1,.44-2.8,2,2,0,0,1,2.63.53l1.81,2.23a1.14,1.14,0,0,0,1.78-1.44l-1.15-1.42a1.91,1.91,0,0,1,.44-2.8,2,2,0,0,1,2.63.53L64,43.21a1.14,1.14,0,0,0,1.78-1.44l-1.15-1.42a1.91,1.91,0,0,1,.44-2.8,2,2,0,0,1,2.63.53l8,9.81Z"/><path class="cls-1" d="M33.09,6.12A3.82,3.82,0,0,1,31.91,4.7a3.39,3.39,0,0,1-.32-1.43,3.32,3.32,0,0,1,.32-1.43A3.79,3.79,0,0,1,33.09.42a3.79,3.79,0,0,1,1.18,1.43,3.32,3.32,0,0,1,.32,1.43,3.39,3.39,0,0,1-.32,1.43A3.82,3.82,0,0,1,33.09,6.12Z"/><path class="cls-1" d="M7.89,31.54a4.43,4.43,0,0,1-1.68,1.18A4.57,4.57,0,0,1,4.54,33a4.49,4.49,0,0,1-1.68-.32,4.39,4.39,0,0,1-1.68-1.18,4.39,4.39,0,0,1,1.68-1.18A4.49,4.49,0,0,1,4.54,30a4.57,4.57,0,0,1,1.68.32A4.43,4.43,0,0,1,7.89,31.54Z"/><path class="cls-1" d="M65,30.56a4.43,4.43,0,0,1-1.68,1.18,4.57,4.57,0,0,1-1.68.32A4.49,4.49,0,0,1,60,31.74a4.39,4.39,0,0,1-1.68-1.18A4.39,4.39,0,0,1,60,29.38a4.49,4.49,0,0,1,1.68-.32,4.57,4.57,0,0,1,1.68.32A4.43,4.43,0,0,1,65,30.56Z"/><path class="cls-1" d="M33.09,56.4a4.43,4.43,0,0,1,1.18,1.68,4.57,4.57,0,0,1,.32,1.68,4.49,4.49,0,0,1-.32,1.68,4.39,4.39,0,0,1-1.18,1.68,4.39,4.39,0,0,1-1.18-1.68,4.49,4.49,0,0,1-.32-1.68,4.57,4.57,0,0,1,.32-1.68A4.43,4.43,0,0,1,33.09,56.4Z"/><path class="cls-1" d="M66.85,3.77a18.46,18.46,0,0,1-2.28,3.94A29.79,29.79,0,0,1,61.7,11a29.26,29.26,0,0,1-3.33,2.88,18.25,18.25,0,0,1-3.94,2.27,18.25,18.25,0,0,1,2.27-3.94,29.26,29.26,0,0,1,2.88-3.33A29.79,29.79,0,0,1,62.91,6,18.46,18.46,0,0,1,66.85,3.77Z"/><path class="cls-1" d="M17,51.88a18.46,18.46,0,0,1-2.28,3.94,29.79,29.79,0,0,1-2.88,3.34A29.26,29.26,0,0,1,8.48,62a18.25,18.25,0,0,1-3.94,2.27,18.25,18.25,0,0,1,2.27-3.94A29.26,29.26,0,0,1,9.7,57,29.79,29.79,0,0,1,13,54.15,18.46,18.46,0,0,1,17,51.88Z"/><path class="cls-1" d="M13.75,14A16.6,16.6,0,0,1,10,11.91a26.46,26.46,0,0,1-3.16-2.7,26,26,0,0,1-2.7-3.15A16.4,16.4,0,0,1,2,2.29,16.4,16.4,0,0,1,5.8,4.38,26,26,0,0,1,9,7.09a26.46,26.46,0,0,1,2.7,3.16A16.6,16.6,0,0,1,13.75,14Z"/><path class="cls-1" d="M33.09,8.15a23.39,23.39,0,1,0,14.21,42,19,19,0,0,1-1.73-2.23A20.44,20.44,0,1,1,50.18,43l1.88,2.19a23.39,23.39,0,0,0-19-37.08Z"/><path class="cls-1" d="M37.41,32.1c.45.15.88.33,1.32.51a.65.65,0,0,1,.86-.1l.15.12h0l.07.06a60.05,60.05,0,0,1,9.66,9.52A19.68,19.68,0,1,0,45,47a72.68,72.68,0,0,0-3.89-6.19c-2-2.58-4.66-4.47-4.67-8A.76.76,0,0,1,37.41,32.1Z"/></svg>