<?xml version="1.0" encoding="utf-8"?>
<!-- Generator: Adobe Illustrator 21.0.0, SVG Export Plug-In . SVG Version: 6.00 Build 0)  -->
<svg version="1.1" id="Слой_1" xmlns="http://www.w3.org/2000/svg" xmlns:xlink="http://www.w3.org/1999/xlink" x="0px" y="0px"
	 viewBox="0 0 133.4 90" style="enable-background:new 0 0 133.4 90;" xml:space="preserve">
<style type="text/css">
	.st0{opacity:0.5;}
	.st1{fill:#FFFFFF;}
</style>
<title>ТРИ СТРОКИ BSF</title>
<g id="Слой_2" class="st0">
	<g id="Layer_1">
		<path class="st1" d="M28.3,26.3c0,0.6-0.3,1.3-1.8,1.3h-7.3V25h7.3C28,25,28.3,25.6,28.3,26.3L28.3,26.3z M19.2,19.3h6.9
			c1.2,0,1.6,0.5,1.6,1.1l0,0c0,0.6-0.4,1.1-1.6,1.1h-6.9V19.3z M31,22.6c1.5-0.3,2.6-1.5,2.7-3.1v-0.2c0-1.8-1.2-3.5-5.8-3.5H13.2
			v15.6H28c5.1,0,6.6-2.1,6.6-4.5v-0.3C34.6,23.8,32.4,22.9,31,22.6"/>
		<polygon class="st1" points="41.8,26.9 41.8,15.7 35.8,15.7 35.8,31.3 50.5,31.3 52.9,26.9 		"/>
		<polygon class="st1" points="59.8,15.7 52.1,31.3 58.1,31.3 67.8,31.3 65.9,27.3 60,27.3 61.1,24.9 63.7,19.5 66.3,24.9 
			68.2,28.8 69.4,31.3 76,31.3 67.8,15.7 		"/>
		<path class="st1" d="M86.5,15.4h-0.8c-9.7,0-11,4.8-11,7.7v0.6c0,3,1.5,7.8,11,7.8h0.8c9.4,0,10.9-4.4,10.9-6.4v-0.2h-6.2
			c-0.1,0.4-0.5,2.6-5.1,2.6c-4.2,0-5.3-2.2-5.3-3.9v-0.3c0-1.7,0.9-3.6,5.2-3.6c4.5,0,5,2,5.1,2.4h6.2v-0.4
			C97.4,19.7,96,15.4,86.5,15.4"/>
		<polygon class="st1" points="110.8,22.8 119.9,15.7 112.5,15.7 104.8,21.9 104.8,15.7 98.8,15.7 98.8,31.3 104.8,31.3 104.8,24.3 
			112.4,31.3 120.2,31.3 		"/>
		<path class="st1" d="M34.4,53.8c-8.6,0-9.5-3.5-9.5-5.5V48h6.5c0.1,0.8,0.5,2.2,3.9,2.2h0.2c3.3,0,3.8-0.7,3.8-1.5l0,0
			c0-0.8-0.4-1.3-3.7-1.4l-2.9-0.1c-6-0.2-7.7-2.3-7.7-4.7v-0.2c0-2.5,1.7-4.8,9-4.8h2c7.7,0,9.5,2.5,9.5,4.9v0.2H39
			c-0.1-0.6-0.4-1.7-3.8-1.7H35c-3.1,0-3.4,0.5-3.4,1.2l0,0c0,0.6,0.5,1.1,3.4,1.2l2.8,0.1c5.9,0.2,8.2,1.6,8.2,4.7v0.3
			c0,2.6-1.5,5.3-9.7,5.3L34.4,53.8L34.4,53.8z"/>
		<polygon class="st1" points="53.1,42.1 46.4,42.1 46.4,37.9 65.8,37.9 65.8,42.1 59.1,42.1 59.1,53.5 53.1,53.5 		"/>
		<path class="st1" d="M93.4,53.5h-6V37.9h14.2c4.6,0,6.5,1.5,6.5,4v0.2c0,2.3-2,3.2-3.1,3.5c1.9,0.4,3.2,1.7,3.2,3.7v2.3
			c-0.1,0.6,0,1.2,0.3,1.8v0.1h-6.1c-0.2-0.2-0.2-0.5-0.2-0.8v-1.8c0-1.8-0.8-2.7-3.2-2.7h-5.7L93.4,53.5L93.4,53.5z M93.4,44.4h6.8
			c1.3,0,1.8-0.6,1.8-1.3l0,0c0-0.7-0.5-1.3-1.8-1.3h-6.8V44.4z"/>
		<polygon class="st1" points="78.6,37.9 70.6,37.9 62.8,53.5 68.9,53.5 78.6,53.5 76.7,49.5 70.8,49.5 71.9,47.1 71.9,47.1 
			74.5,41.7 77.1,47.1 77.1,47.1 79,51 79,51 80.2,53.5 86.7,53.5 		"/>
		<path class="st1" d="M17.9,60.3v3.8h-11v2h10.8v3.8H6.8v6H0.9V60.3H17.9z"/>
		<path class="st1" d="M25.4,75.9h-5.9V60.3h5.9V75.9z"/>
		<path class="st1" d="M33.6,64.6h-6.8v-4.3h19.4v4.3h-6.7v11.3h-5.9C33.6,75.9,33.6,64.6,33.6,64.6z"/>
		<path class="st1" d="M54.4,60.3l9.1,8.9v-8.9h5.9v15.6h-6l-9.8-9.4v9.4h-5.9V60.3H54.4z"/>
		<path class="st1" d="M88.6,60.3v3.8H77.2v2h11.2v3.8H77.2v2.2h11.6V76H71.3V60.3H88.6z"/>
		<path class="st1" d="M89.6,70.7v-0.2h6.5c0.1,0.8,0.5,2.2,3.9,2.2h0.2c3.3,0,3.8-0.7,3.8-1.5l0,0c0-0.8-0.4-1.3-3.7-1.4l-2.9-0.1
			c-6-0.2-7.7-2.3-7.7-4.7v-0.2c0-2.5,1.7-4.8,9-4.8h1.9c7.7,0,9.5,2.5,9.5,4.9v0.2h-6.5c-0.1-0.6-0.4-1.7-3.8-1.7h-0.2
			c-3.1,0-3.4,0.6-3.4,1.2l0,0c0,0.6,0.5,1.2,3.4,1.2l2.8,0.1c5.9,0.1,8.2,1.6,8.2,4.7v0.3c0,2.6-1.5,5.3-9.7,5.3H99
			C90.5,76.2,89.6,72.7,89.6,70.7z"/>
		<path class="st1" d="M111.3,70.7v-0.2h6.5c0.1,0.8,0.5,2.2,3.9,2.2h0.2c3.3,0,3.8-0.7,3.8-1.5l0,0c0-0.8-0.4-1.3-3.7-1.4l-2.9-0.1
			c-6-0.2-7.7-2.3-7.7-4.7v-0.2c0-2.5,1.7-4.8,9-4.8h1.9c7.7,0,9.5,2.5,9.5,4.9v0.2h-6.5c-0.1-0.6-0.4-1.7-3.8-1.7h-0.1
			c-3.1,0-3.4,0.6-3.4,1.2l0,0c0,0.6,0.5,1.2,3.4,1.2l2.8,0.1c5.9,0.1,8.2,1.6,8.2,4.7v0.3c0,2.6-1.5,5.3-9.7,5.3h-1.9
			C112.2,76.2,111.3,72.7,111.3,70.7z"/>
	</g>
</g>
</svg>
