<svg width="90" height="15" viewBox="0 0 90 15" fill="none" xmlns="http://www.w3.org/2000/svg">
<path d="M89.1818 2.54541C87.909 1.27268 86.1818 0.54541 84.2727 0.54541C81.2727 0.54541 78.6363 2.4545 77.7272 5.18177V0.54541H71.3636H70.8181V5.72723H66.1818L69.3636 2.54541C68.0908 1.27268 66.3636 0.54541 64.4545 0.54541C61.5454 0.54541 59.0908 2.27268 58.0908 4.81814V0.54541H44.1818V6.81814L42.6363 0.54541L37.4545 7.4545L32.2727 0.54541L28.8181 14.3636H46.0908L45.2727 11.1818C46.5454 13.0909 48.6363 14.3636 51.0908 14.3636C54.2727 14.3636 56.9999 12.1818 57.8181 9.18177H62.7272L59.5454 12.3636C60.8181 13.6363 62.5454 14.3636 64.4545 14.3636C67.3636 14.3636 69.8181 12.6363 70.8181 10.0909V14.3636H77.7272V9.72723C78.6363 12.4545 81.2727 14.3636 84.2727 14.3636C86.1818 14.3636 87.909 13.6363 89.1818 12.3636L84.2727 7.4545L89.1818 2.54541Z" fill="#A5A5A5"/>
<path d="M2.909 5.81814L0.909002 0.54541H0.0908203V6.54541H0.636275V1.18177L2.63627 6.54541H3.18173L5.09082 1.18177H5.18173V6.54541H5.72718V0.54541H4.81809L2.909 5.81814Z" fill="#A5A5A5"/>
<path d="M10.3636 0.54541L8 6.54541H8.54545L9.27273 4.63632H12L12.7273 6.54541H13.2727L11 0.54541H10.3636ZM9.45455 4.18177L10.6364 0.999956L11.8182 4.18177H9.45455Z" fill="#A5A5A5"/>
<path d="M19.7271 0.54541H19.0907L15.9998 3.63632V0.54541H15.4543V6.54541H15.9998V4.18177L16.9089 3.27268L19.4543 6.54541H20.0907L17.3634 2.90905L19.7271 0.54541Z" fill="#A5A5A5"/>
<path d="M23.0907 3.63632H26.0907V3.18177H23.0907V0.999956H26.4543V0.54541H22.4543V6.54541H26.5453V5.99996H23.0907V3.63632Z" fill="#A5A5A5"/>
<path d="M19.4544 8.45459H18.9089V14.4546H19.4544V8.45459Z" fill="#A5A5A5"/>
<path d="M22.1816 8.90914H24.0907V14.3637H24.6362V8.90914H26.5453V8.45459H22.1816V8.90914Z" fill="#A5A5A5"/>
</svg>
