<svg width="74" height="16" viewBox="0 0 74 16" fill="none" xmlns="http://www.w3.org/2000/svg">
<path fill-rule="evenodd" clip-rule="evenodd" d="M73.8073 0.056042H68.4381C68.2121 0.056042 67.873 0.140105 67.6752 0.252189L55.7218 6.61296C55.524 6.72504 55.4109 6.64098 55.4957 6.41681L57.3325 0.392294C57.389 0.168126 57.276 0 57.0499 0H56.5695H56.287H54.2524C49.6745 0 39.9535 0 39.7557 0C36.1386 0.028021 33.5671 0.896673 32.0977 2.63398C31.1369 3.75482 30.713 5.21191 30.9108 6.58494C31.3064 9.10683 35.2626 9.58319 35.2626 9.58319H44.1923C45.5205 9.58319 45.3227 12.6375 42.7229 12.6375C41.0274 12.6375 32.0977 12.6375 26.9546 12.6375C27.5763 11.6287 27.8589 10.4238 27.6893 9.331C27.6046 8.7986 27.4067 8.35026 27.4067 8.35026C27.322 8.15412 27.3785 7.87391 27.548 7.7338C27.548 7.7338 28.0567 7.34151 28.3958 6.94921C29.3566 5.82837 29.7805 4.37128 29.5826 2.99825C29.1588 0.476357 27.2372 0.0840631 24.807 0.028021C24.27 0.028021 13.6166 0.028021 13.6166 0.028021C13.3905 0.028021 13.0797 0.140105 12.9101 0.28021L9.29302 3.02627C9.12347 3.16637 9.15173 3.27846 9.3778 3.27846C9.3778 3.27846 24.5526 3.27846 24.807 3.27846C26.1351 3.27846 26.5025 4.48336 25.796 5.49212C25.3156 6.19264 23.3093 6.33275 23.3093 6.33275C23.0832 6.36077 4.43255 6.36077 4.43255 6.36077C4.20648 6.36077 3.89564 6.47286 3.72609 6.61296L0.108997 9.35902C-0.060554 9.49912 -0.0322955 9.61121 0.193773 9.61121C0.193773 9.61121 22.7723 9.61121 22.9136 9.61121C24.2418 9.61121 24.6091 10.8161 23.9027 11.8249C23.4223 12.5254 21.4159 12.6655 21.4159 12.6655C21.1899 12.6935 9.26476 12.7215 9.26476 12.7215C9.03869 12.7215 8.72785 12.8336 8.5583 13.0018L5.64767 15.6918C5.47812 15.8319 5.53464 15.972 5.7607 15.972C5.7607 15.972 18.6749 15.972 18.8161 15.972C19.014 15.972 19.2118 15.972 19.4096 15.972C19.4378 16 19.4944 16 19.5509 16H40.1231C43.7402 15.972 46.3117 15.1033 47.7812 13.366C48.7419 12.2452 49.1658 10.7881 48.968 9.41506C48.5441 6.89317 45.6335 6.41681 44.5597 6.41681H35.6865C34.3583 6.41681 33.991 5.21191 34.6974 4.20315C35.1778 3.50263 37.1842 3.36252 37.1842 3.36252C37.382 3.36252 49.3636 3.36252 52.8394 3.36252L49.1093 15.6077C49.0528 15.8319 49.1658 16 49.3919 16H52.1895C52.4155 16 52.6416 15.8319 52.6981 15.6077L54.4784 9.77933C54.5349 9.55517 54.7327 9.49912 54.9306 9.63923L63.182 15.7478C63.3516 15.8879 63.6907 16 63.9168 16H69.0881C69.2859 16 69.3707 15.7758 69.2294 15.6637C69.0033 15.4956 68.862 15.4116 68.8338 15.3835L59.4519 8.43433C59.2824 8.29422 59.2824 8.09807 59.4802 8.01401L73.8638 0.336252C74.0616 0.140105 74.0333 0.056042 73.8073 0.056042Z" fill="#FF9F00"/>
</svg>
