<svg width="120" height="42" viewBox="0 0 120 42" fill="none" xmlns="http://www.w3.org/2000/svg">
<path opacity="0.5" fill-rule="evenodd" clip-rule="evenodd" d="M119.599 24.5856C119.259 22.9568 118.7 21.3687 117.951 19.8485C115.511 20.4332 113.103 21.0178 110.749 21.5894C109.659 21.8538 108.581 22.1155 107.517 22.3732C108.116 23.6219 108.579 24.9249 108.893 26.2551C110.278 26.0385 111.685 25.8198 113.106 25.599C115.248 25.2661 117.421 24.9283 119.599 24.5856ZM106.958 21.3009C106.182 19.93 105.228 18.627 104.111 17.3782C105.869 16.846 107.664 16.3018 109.484 15.7499C111.005 15.2882 112.545 14.8212 114.096 14.3514C115.445 15.8037 116.575 17.3375 117.474 18.9527C114.369 19.6469 111.305 20.3308 108.326 20.9957L106.958 21.3009ZM103.362 16.591C102.177 15.3965 100.842 14.27 99.3438 13.2112C101.352 12.4365 103.424 11.6492 105.528 10.8494C106.521 10.4722 107.521 10.0922 108.525 9.70936C110.377 10.9445 112.026 12.2883 113.456 13.7135C112.767 13.9097 112.079 14.1053 111.394 14.3003C108.666 15.0766 105.975 15.8425 103.362 16.591ZM98.3222 12.519C96.4696 11.311 94.4127 10.2116 92.1515 9.22073C93.6019 8.53217 95.0861 7.83096 96.5972 7.1171C97.7967 6.5504 99.0131 5.97573 100.243 5.39309C102.967 6.49252 105.433 7.74125 107.639 9.13929C106.262 9.63801 104.897 10.1342 103.547 10.6245C101.776 11.2686 100.031 11.9025 98.3222 12.519ZM14.0305 17.4189C30.867 6.98115 48.6298 -0.755573 72.1819 0.0588185C82.6026 0.425295 91.6747 2.16266 99.0714 4.94517C97.9151 5.46586 96.7702 5.98202 95.6393 6.49182C93.9992 7.23122 92.3888 7.95723 90.8166 8.66423C83.992 5.93601 75.5329 4.21222 65.7661 3.80502C45.8238 2.99063 29.355 9.11214 14.0305 17.4189ZM50.0874 18.0026L47.581 32.173H52.0762L53.1795 25.9972H57.9744L58.3967 23.5948H53.6018L54.1467 20.4051H60.004L60.4399 18.0026H50.0874ZM39.5441 28.0468C39.4896 28.0468 39.4623 28.2911 39.4623 28.7797C39.4623 29.8927 40.0617 30.4628 41.2604 30.4628C42.2139 30.4356 43.0585 30.2863 43.7668 30.0149C44.4751 29.7434 44.9792 29.5127 45.2516 29.3362L44.3662 31.7794C44.0665 31.9016 43.5352 32.0509 42.7452 32.2273C41.9687 32.4173 41.0561 32.4988 40.0208 32.4988C39.9391 32.4988 39.8165 32.4988 39.6667 32.4852C39.5168 32.4716 39.3942 32.4716 39.3261 32.4716C36.9014 32.3495 35.6891 31.1143 35.6891 28.7933C35.6891 28.2639 35.7299 27.7889 35.8117 27.341C36.411 23.7169 38.3453 21.871 41.5737 21.8031C42.5817 21.8031 43.3718 21.871 43.9439 22.0203C44.5296 22.156 45.02 22.4818 45.4423 22.9704C45.8509 23.4455 46.0553 24.192 46.0553 25.1964C46.0553 25.8208 45.9872 26.4587 45.8509 27.1102C45.7147 27.7617 45.633 28.0875 45.5921 28.0875H39.5441V28.0468ZM42.0777 23.9884C41.2195 23.9884 40.6338 24.2734 40.3341 24.8435C40.0344 25.4136 39.871 25.8886 39.8437 26.2687H43.3582C43.4263 26.2687 43.4808 25.9972 43.508 25.4543C43.5216 24.5449 43.0312 24.0698 42.0777 23.9884ZM32.5016 32.1594C33.101 32.0101 33.496 31.8744 33.714 31.7794L34.4481 29.3274C34.4491 29.3257 34.4495 29.3241 34.4495 29.3227L34.4481 29.3274C34.4307 29.3598 34.2548 29.4533 33.9319 29.6077C33.5914 29.7706 33.1555 29.9199 32.6515 30.0556C32.1475 30.1913 31.6026 30.2592 31.0441 30.2592C30.0225 30.1642 29.5185 29.567 29.5185 28.4947C29.5185 28.2368 29.5729 27.721 29.6955 26.9473C29.859 26.0379 30.1314 25.3321 30.4992 24.8299C30.867 24.3141 31.4527 24.0291 32.2837 23.9612C33.0737 23.9612 33.7003 24.0563 34.1635 24.2463C34.6266 24.4363 34.9399 24.5856 35.1034 24.7213L35.226 22.3189C34.9944 22.2374 34.5721 22.1424 33.9728 22.0338C33.3734 21.9117 32.6378 21.8574 31.7797 21.8574C30.0769 21.8981 28.7556 22.346 27.8293 23.1876C26.9031 24.0291 26.3037 25.2643 26.0176 26.9066C25.8951 27.626 25.8269 28.2639 25.8269 28.8204C25.8269 30.0963 26.1947 31.0057 26.9031 31.5622C27.625 32.1187 28.7556 32.3902 30.3221 32.3902C31.1803 32.3902 31.9023 32.3088 32.5016 32.1594ZM19.8606 32.2002L20.0377 31.1686C19.9287 31.3586 19.629 31.5894 19.1659 31.888C18.7027 32.173 17.9808 32.3359 17.0136 32.3631C16.1691 32.3631 15.4471 32.1323 14.875 31.6708C14.3029 31.2093 14.0168 30.4764 14.0168 29.4584C14.1258 28.739 14.3846 28.1689 14.7797 27.7346C15.1747 27.3002 15.6923 26.9745 16.3325 26.7437C16.9728 26.513 17.7492 26.3365 18.6891 26.2008C19.52 26.0787 20.133 25.8886 20.5553 25.6172C20.9776 25.3457 21.1955 25.0742 21.1955 24.8028C21.1955 24.5449 21.0457 24.3277 20.7596 24.1513C20.4736 23.9748 20.0785 23.8934 19.6018 23.8934C18.4303 23.8934 17.4768 24.0562 16.7412 24.382C16.0056 24.7078 15.5152 24.9792 15.2564 25.1964L16.3325 22.8211C16.3325 22.7939 16.5232 22.6989 16.9047 22.536C17.2861 22.3732 17.7901 22.2239 18.4303 22.0881C19.0705 21.9524 19.8197 21.8845 20.6643 21.8845C22.1899 21.8845 23.2933 22.1289 23.9744 22.6175C24.6555 23.1061 24.996 23.7305 24.996 24.5042C24.996 24.6128 24.9824 24.7756 24.9415 25.0199L23.7019 32.173L19.8606 32.2002ZM18.8117 30.1778C19.3566 30.042 19.7652 29.8249 20.024 29.5263C20.2829 29.2276 20.4191 29.0105 20.4191 28.9019L20.6915 27.3545C20.6681 27.3857 20.6357 27.4213 20.5969 27.4639L20.5969 27.4639L20.5966 27.4642L20.5964 27.4644C20.5677 27.496 20.5355 27.5314 20.5008 27.5717C20.4191 27.6532 20.242 27.7617 19.9559 27.8839C19.6835 28.0061 19.2885 28.1011 18.7981 28.1825C18.1306 28.2911 17.6402 28.4404 17.3406 28.6576C17.0409 28.8747 16.891 29.1869 16.8774 29.6077C16.8774 30.0692 17.2316 30.2999 17.9263 30.2999C18.0761 30.2864 18.3758 30.2456 18.8117 30.1778ZM119.94 30.2456C120.063 28.6304 119.994 27.0695 119.763 25.5357C116.153 26.1737 112.571 26.798 109.124 27.3953C109.329 28.6711 109.397 29.9877 109.342 31.3179C110.968 31.1521 112.614 30.9863 114.275 30.8191L114.276 30.819L114.276 30.8189L114.277 30.8189L114.277 30.8189C116.15 30.6303 118.041 30.4398 119.94 30.2456ZM119.845 31.2229C119.64 32.7974 119.272 34.4126 118.728 36.055C115.254 36.2043 111.808 36.3536 108.457 36.5029C108.852 35.1455 109.124 33.8154 109.26 32.5123L110.032 32.4181L110.04 32.4172L110.054 32.4154L110.069 32.4136C113.262 32.0238 116.542 31.6233 119.845 31.2229ZM106.141 41.9457C106.808 40.6427 107.612 39.0003 108.062 37.7245C110.755 37.5506 113.51 37.368 116.291 37.1837L118.373 37.0458C117.76 38.6746 116.97 40.3169 116.017 41.9864L106.141 41.9457ZM14.8206 37.2223C15.0113 37.2494 15.1883 37.3173 15.3518 37.4394L16.3462 36.4079C16.2931 36.3656 16.2318 36.3315 16.1623 36.2929L16.1203 36.2695L16.101 36.2586C16.0056 36.2043 15.8831 36.1635 15.7468 36.1228C15.6106 36.0821 15.4472 36.0414 15.2564 36.0142C15.0794 35.9871 14.8614 35.9735 14.6162 35.9735C14.2757 35.9735 13.9624 36.0007 13.6899 36.055C13.4175 36.1092 13.1723 36.1635 12.9544 36.245C12.7364 36.3264 12.5593 36.4079 12.3959 36.4893C12.3617 36.5109 12.3283 36.5319 12.2957 36.5523L12.2956 36.5523L12.2955 36.5525C12.1852 36.6215 12.0849 36.6844 12.0008 36.7472C11.7284 36.9508 11.4832 37.1951 11.2789 37.453C11.0746 37.7109 10.9111 37.9959 10.7749 38.281C10.6387 38.566 10.5433 38.8646 10.4752 39.1632C10.3935 39.4618 10.3662 39.7469 10.3662 40.0319C10.3662 40.1405 10.3662 40.2355 10.3798 40.3577C10.3935 40.4798 10.4207 40.5884 10.4752 40.7106C10.5161 40.8327 10.5842 40.9549 10.6659 41.077C10.7476 41.1992 10.8566 41.3214 11.0064 41.4299C11.1563 41.5521 11.3197 41.6471 11.4832 41.715C11.6467 41.7828 11.8238 41.8371 11.9872 41.8779C12.1507 41.9186 12.3141 41.9457 12.464 41.9593L12.5048 41.963C12.6387 41.9752 12.7613 41.9864 12.8726 41.9864C13.0361 41.9864 13.2268 41.9729 13.4175 41.9593C13.6047 41.9469 13.7805 41.9116 13.9658 41.8745L14.0169 41.8643C14.2212 41.8236 14.4255 41.7693 14.6298 41.6878C14.8342 41.6064 15.0249 41.5114 15.2292 41.3892L14.6843 40.3577C14.5481 40.4527 14.3574 40.5477 14.1395 40.6291C13.9215 40.7241 13.6763 40.7649 13.4039 40.7649C13.1042 40.7649 12.8726 40.697 12.7092 40.5477C12.6002 40.4527 12.5185 40.3441 12.4912 40.2219C12.4504 40.0998 12.4367 39.9912 12.4367 39.8962C12.4367 39.7876 12.4367 39.6519 12.464 39.5025C12.4776 39.3532 12.5048 39.2175 12.5321 39.0954C12.5529 39.0019 12.5817 38.9085 12.6124 38.809L12.6124 38.8089C12.6219 38.7784 12.6315 38.7472 12.6411 38.7153C12.6819 38.5796 12.7228 38.4574 12.7773 38.3488L12.8015 38.3002L12.8177 38.2672C12.8733 38.1543 12.9323 38.0344 13.0089 37.9145C13.1042 37.7652 13.2132 37.643 13.3222 37.548C13.4448 37.4394 13.581 37.3444 13.7444 37.2765C13.9079 37.2087 14.1122 37.168 14.3438 37.168C14.48 37.168 14.6435 37.1815 14.8206 37.2223ZM20.9776 36.0278C20.8141 36.0142 20.6371 36.0007 20.4736 36.0007C19.8198 36.0007 19.2613 36.0957 18.7436 36.2586C18.2669 36.4486 17.8446 36.6929 17.504 37.0187C17.2861 37.2087 17.109 37.4258 16.9456 37.6702C16.7821 37.9145 16.6595 38.1724 16.5505 38.4303C16.4552 38.6882 16.3734 38.9596 16.319 39.2175C16.2645 39.4754 16.2372 39.7333 16.2372 39.964C16.2372 40.0617 16.2482 40.1593 16.2604 40.2667L16.2645 40.3034C16.2781 40.4255 16.319 40.5477 16.3598 40.6698C16.4007 40.8056 16.4688 40.9277 16.5505 41.0499C16.6305 41.1828 16.7497 41.2896 16.8825 41.4087L16.8911 41.4164C17.0409 41.5385 17.1907 41.6335 17.3542 41.7014C17.5177 41.7693 17.6811 41.8236 17.8446 41.8643C18.0217 41.905 18.1851 41.9321 18.3486 41.9457C18.5121 41.9593 18.6755 41.9729 18.8254 41.9729C19.4247 41.9729 19.9423 41.8914 20.3919 41.7421C20.8414 41.5928 21.2228 41.3892 21.5497 41.1178C21.7813 40.9413 21.972 40.7241 22.1491 40.4934C22.3262 40.2626 22.4624 40.0183 22.585 39.7469C22.7076 39.489 22.7893 39.2175 22.8574 38.9325C22.9255 38.6474 22.9528 38.376 22.9528 38.1181C22.9528 37.738 22.8983 37.4258 22.7893 37.168C22.6803 36.9236 22.5441 36.72 22.3807 36.5707C22.2581 36.4622 22.1082 36.3671 21.9584 36.2857C21.8085 36.2043 21.6451 36.15 21.4816 36.1092C21.3181 36.0685 21.1411 36.0414 20.9776 36.0278ZM20.9283 37.6753C20.94 37.7788 20.9504 37.8705 20.9504 37.9416C20.9504 38.3081 20.8959 38.6746 20.7733 39.0411C20.6643 39.394 20.5417 39.6926 20.4055 39.9369C20.2965 40.1541 20.1739 40.3169 20.0513 40.4391C19.9287 40.5613 19.8061 40.6563 19.6972 40.7106C19.5746 40.7649 19.4656 40.8056 19.3702 40.8191C19.3187 40.8191 19.2671 40.8231 19.2198 40.8268L19.2197 40.8268H19.2197H19.2196H19.2196H19.2195C19.1795 40.8299 19.1426 40.8327 19.1114 40.8327C18.9752 40.8327 18.8662 40.8191 18.7709 40.792C18.6755 40.7649 18.6074 40.7377 18.5529 40.697C18.4984 40.6563 18.4576 40.602 18.4167 40.5477C18.3758 40.4798 18.3486 40.4255 18.335 40.3577C18.3214 40.3034 18.3077 40.2355 18.3077 40.1812V40.0319C18.3077 39.8826 18.3214 39.7061 18.3486 39.5297C18.3758 39.3532 18.4167 39.1768 18.4712 39.0003C18.5257 38.8239 18.5802 38.6474 18.6483 38.4846C18.7164 38.3081 18.7845 38.1588 18.8526 38.0366C19.0433 37.6973 19.2613 37.4666 19.4792 37.3444C19.7108 37.2223 19.956 37.168 20.2148 37.168C20.2693 37.168 20.3374 37.168 20.4464 37.1815C20.5553 37.2087 20.6507 37.2494 20.7324 37.3173C20.8414 37.3987 20.9095 37.5073 20.9231 37.6294L20.9283 37.6753ZM26.9712 41.8914H28.8374L30.3222 36.0957H28.5922L28.129 37.8873C28.1249 37.9037 28.1208 37.9213 28.1164 37.9405L28.1163 37.9408C28.1059 37.9852 28.0936 38.0383 28.0746 38.1045C28.0576 38.1637 28.0459 38.2228 28.0329 38.2885L28.0329 38.2885L28.0329 38.2887C28.0251 38.3284 28.0167 38.3706 28.0065 38.4167L28.0064 38.4169C27.9792 38.539 27.952 38.6611 27.9247 38.7967C27.8975 38.9189 27.8702 39.0546 27.8566 39.1904C27.833 39.0377 27.789 38.8748 27.7423 38.7017L27.7204 38.6203C27.6659 38.4167 27.6114 38.2402 27.5569 38.0909L26.7805 36.1092H25.0369L23.5385 41.8914H25.2685L25.6907 40.2626C25.718 40.1812 25.7452 40.0726 25.7725 39.9505C25.7997 39.8283 25.827 39.7061 25.8542 39.5704C25.8815 39.4347 25.9087 39.299 25.9223 39.1632C25.9496 39.0275 25.9632 38.9053 25.9632 38.7967C26.0041 39.0139 26.0449 39.2175 26.0994 39.4211C26.1288 39.5308 26.1581 39.6248 26.1832 39.7051C26.2047 39.7738 26.2231 39.8325 26.2356 39.8826L26.9712 41.8914ZM34.0137 41.8914H35.8799L37.3646 36.0957H35.6347L35.1715 37.8873C35.1674 37.9038 35.1633 37.9215 35.1588 37.9408C35.1484 37.9852 35.136 38.0383 35.117 38.1045C35.1001 38.1637 35.0884 38.2228 35.0754 38.2885C35.0675 38.3284 35.0592 38.3706 35.0489 38.4167C35.0217 38.5389 34.9944 38.661 34.9672 38.7967C34.9526 38.8621 34.9419 38.9314 34.931 39.0025L34.931 39.0026C34.9215 39.0643 34.9117 39.1273 34.8991 39.1904C34.8755 39.0376 34.8315 38.8747 34.7848 38.7016L34.7629 38.6203C34.7084 38.4167 34.6539 38.2402 34.5994 38.0909L33.823 36.1092H32.0794L30.581 41.8914H32.3109L32.7332 40.2626C32.7605 40.1812 32.7877 40.0726 32.8149 39.9505L32.8151 39.95C32.8423 39.828 32.8695 39.706 32.8967 39.5704C32.9239 39.4347 32.9512 39.299 32.9648 39.1632C32.992 39.0275 33.0057 38.9053 33.0057 38.7967C33.0465 39.0139 33.0874 39.2175 33.1419 39.4211C33.1712 39.5308 33.2006 39.6248 33.2257 39.7051C33.2472 39.7738 33.2655 39.8325 33.2781 39.8826L34.0137 41.8914ZM40.6339 37.3173H42.7997L43.2356 36.1092H39.1218L37.6234 41.8914H41.8734L42.2004 40.6563H39.7757L40.0754 39.4754H41.8462L42.1459 38.2945H40.375L40.6339 37.3173ZM47.5265 37.2223C47.7172 37.2494 47.8943 37.3173 48.0577 37.4394L49.0385 36.4079C48.9855 36.3656 48.9242 36.3315 48.8546 36.2929L48.8201 36.2737L48.7933 36.2586C48.698 36.2043 48.5754 36.1635 48.4392 36.1228C48.3029 36.0821 48.1395 36.0414 47.9488 36.0142C47.7717 35.9871 47.5537 35.9735 47.3085 35.9735C46.968 35.9735 46.6547 36.0007 46.3823 36.055C46.1098 36.1092 45.8646 36.1635 45.6467 36.245C45.4424 36.3264 45.2517 36.4079 45.0882 36.4893L45.0482 36.5145L44.988 36.5523C44.8777 36.6214 44.7773 36.6843 44.6932 36.7472C44.4207 36.9508 44.1755 37.1951 43.9712 37.453C43.7669 37.7109 43.6034 37.9959 43.4672 38.281C43.331 38.566 43.2356 38.8646 43.1675 39.1632C43.0994 39.4618 43.0585 39.7469 43.0585 40.0319C43.0585 40.1405 43.0585 40.2355 43.0722 40.3577C43.0858 40.4798 43.113 40.5884 43.1675 40.7106C43.2084 40.8327 43.2765 40.9549 43.3582 41.077C43.4399 41.1992 43.5489 41.3214 43.6988 41.4299C43.8486 41.5521 44.0121 41.6471 44.1755 41.715C44.339 41.7828 44.5161 41.8371 44.6795 41.8779C44.843 41.9186 45.0065 41.9457 45.1563 41.9593L45.1972 41.963C45.331 41.9752 45.4536 41.9864 45.565 41.9864C45.7076 41.9864 45.8606 41.9761 46.033 41.9645L46.0333 41.9644L46.1098 41.9593C46.297 41.9469 46.4728 41.9116 46.6581 41.8745L46.7092 41.8643C46.9135 41.8236 47.1178 41.7693 47.3222 41.6878C47.5265 41.6064 47.7172 41.5114 47.9215 41.3892L47.3767 40.3577C47.2541 40.4527 47.0634 40.5477 46.8454 40.6291C46.6275 40.7241 46.3823 40.7649 46.1098 40.7649C45.8101 40.7649 45.565 40.697 45.4015 40.5477C45.2925 40.4527 45.2244 40.3441 45.1835 40.2219C45.1427 40.0998 45.1291 39.9912 45.1291 39.8962C45.1291 39.7986 45.1401 39.6791 45.1522 39.5475L45.1522 39.5474L45.1563 39.5025C45.1699 39.3532 45.1972 39.2175 45.2244 39.0954C45.2452 39.0019 45.2741 38.9085 45.3047 38.8089L45.3048 38.8089C45.3142 38.7783 45.3238 38.7472 45.3334 38.7153C45.3619 38.6206 45.3971 38.5324 45.4296 38.4509L45.4296 38.4508L45.4297 38.4507L45.4297 38.4506L45.4299 38.4502L45.4301 38.4497C45.444 38.4149 45.4574 38.3812 45.4696 38.3488C45.4829 38.3223 45.4963 38.2952 45.5098 38.2676L45.51 38.2672C45.5656 38.1543 45.6246 38.0344 45.7012 37.9145C45.7965 37.7652 45.9055 37.643 46.0145 37.548C46.1371 37.4394 46.2733 37.3444 46.4367 37.2765C46.6138 37.2087 46.8045 37.168 47.0497 37.168C47.1859 37.168 47.3494 37.1815 47.5265 37.2223ZM52.9752 37.3444H54.6235L55.1547 36.1092H49.8013L49.488 37.3444H51.1363L49.9512 41.905H51.7901L52.9752 37.3444ZM54.569 41.8914H56.4351L57.9335 36.1092H56.081L54.569 41.8914ZM61.6251 41.8914H63.4912L64.9896 36.0957H63.2597L62.7965 37.8873L62.7915 37.9079L62.7838 37.9407C62.7734 37.9852 62.761 38.0382 62.742 38.1045C62.7251 38.1637 62.7134 38.2228 62.7004 38.2885L62.6919 38.3314C62.6865 38.3585 62.6806 38.3868 62.6739 38.4167L62.6739 38.4169C62.6467 38.539 62.6194 38.6611 62.5922 38.7967C62.565 38.9189 62.5377 39.0546 62.5241 39.1904C62.5005 39.0376 62.4565 38.8747 62.4098 38.7016L62.3879 38.6203C62.3334 38.4167 62.2789 38.2402 62.2244 38.0909L61.448 36.1092H59.7044L58.1924 41.8914H59.9223L60.3446 40.2626C60.3718 40.1812 60.3991 40.0726 60.4263 39.9505C60.4536 39.8283 60.4808 39.7061 60.5081 39.5704C60.5353 39.4347 60.5626 39.299 60.5762 39.1632C60.5936 39.0762 60.5999 38.9948 60.6057 38.9189C60.609 38.8764 60.6122 38.8357 60.617 38.7967C60.6579 39.0139 60.6988 39.2175 60.7533 39.4211C60.8077 39.6247 60.8486 39.774 60.8895 39.8826L61.6251 41.8914ZM70.3566 37.2901C70.5746 37.358 70.7789 37.453 70.9696 37.5887L72.1547 36.7472C72.0594 36.6522 71.9231 36.5572 71.7597 36.4622C71.5962 36.3671 71.4055 36.2721 71.1739 36.2043C70.9832 36.1364 70.7653 36.0957 70.5201 36.055C70.2749 36.0142 70.0297 36.0007 69.7845 36.0007C69.1852 36.0007 68.6539 36.0957 68.2044 36.2586C67.7549 36.4214 67.3462 36.6522 67.0057 36.9508C66.7332 37.1815 66.5153 37.4258 66.3246 37.6837C66.1475 37.9416 65.984 38.2131 65.8751 38.471C65.7661 38.7424 65.6843 39.0003 65.6299 39.2447C65.5754 39.489 65.5481 39.7197 65.5481 39.9097C65.5481 40.1405 65.589 40.3712 65.6707 40.6156C65.7525 40.8599 65.8751 41.077 66.0521 41.2671C66.1339 41.3621 66.2428 41.4571 66.3654 41.5385C66.488 41.62 66.6379 41.7014 66.815 41.7693C66.992 41.8371 67.1964 41.8914 67.4143 41.9321C67.6459 41.9729 67.8911 42 68.1771 42C68.5041 42 68.8991 41.9593 69.3759 41.8914C69.839 41.8236 70.343 41.6743 70.8743 41.4299L71.6098 38.6067H68.722L68.6267 39.7876H69.4848L69.2533 40.697C69.1202 40.7301 69.0052 40.7453 68.9156 40.7571L68.9155 40.7571L68.8889 40.7606L68.8582 40.7649C68.7629 40.7784 68.6948 40.7784 68.6267 40.7784C68.5041 40.7784 68.3815 40.7649 68.2589 40.7513C68.1499 40.7241 68.0409 40.6834 67.9456 40.602C67.8775 40.5613 67.823 40.507 67.7821 40.4391C67.7412 40.3712 67.714 40.3169 67.7004 40.2491C67.6831 40.2059 67.6767 40.1628 67.6709 40.1231C67.6676 40.1004 67.6645 40.0788 67.6595 40.0591C67.6459 39.9912 67.6459 39.9369 67.6459 39.8962C67.6459 39.7061 67.6731 39.5025 67.714 39.2854C67.7549 39.0682 67.8093 38.8646 67.8775 38.6746C67.9456 38.4438 68.0545 38.2267 68.1771 38.0095C68.2997 37.8059 68.4904 37.6159 68.722 37.453C68.8718 37.358 69.0081 37.2901 69.1443 37.2494C69.2805 37.2087 69.444 37.1951 69.6347 37.1951C69.7437 37.1951 69.8662 37.1951 69.9888 37.2087C70.0978 37.2223 70.234 37.2494 70.3566 37.2901ZM78.4207 37.3173H80.3823L80.8318 36.1092H76.9223L75.4239 41.8914H77.2493L77.8759 39.4754H79.456L79.7557 38.2945H78.1619L78.4207 37.3173ZM83.6243 40.7784L83.706 41.8914H85.6267L84.9865 36.1092H83.093L79.3062 41.8914H81.2813L81.9488 40.7784H83.6243ZM83.4744 38.5796L83.5289 39.6383V39.6519H82.6162L83.1066 38.7017C83.1241 38.6727 83.1391 38.6462 83.1526 38.6221L83.1534 38.6208L83.1535 38.6207L83.1537 38.6203L83.1539 38.62L83.1539 38.6199L83.154 38.6197L83.1687 38.5938L83.1771 38.5791L83.184 38.5676L83.1929 38.553L83.202 38.5388C83.2196 38.5126 83.2315 38.4863 83.2451 38.4563L83.2451 38.4561C83.2526 38.4397 83.2605 38.4223 83.2701 38.4031C83.29 38.3634 83.31 38.3163 83.3353 38.2567L83.3654 38.1859C83.4095 38.1092 83.4535 38.0058 83.5119 37.8687L83.5562 37.7652C83.5153 37.9688 83.488 38.1317 83.4744 38.2538C83.4744 38.2962 83.4728 38.3369 83.4712 38.376V38.3761V38.3761V38.3762V38.3763V38.3764V38.3764C83.4683 38.4499 83.4655 38.5176 83.4744 38.5796ZM89.9993 41.8914H91.8655L93.3639 36.0957H91.6339L91.1707 37.8873C91.1667 37.9035 91.1626 37.921 91.1582 37.9399L91.158 37.9407C91.1476 37.9852 91.1353 38.0382 91.1163 38.1045C91.0993 38.1637 91.0876 38.2228 91.0746 38.2885C91.0668 38.3283 91.0584 38.3706 91.0481 38.4167L91.0481 38.4169C91.0209 38.539 90.9936 38.6611 90.9664 38.7967C90.9392 38.9189 90.9119 39.0546 90.8983 39.1904C90.8747 39.0377 90.8307 38.8748 90.784 38.7017L90.7621 38.6203C90.7076 38.4167 90.6531 38.2402 90.5986 38.0909L89.8222 36.1092H88.0786L86.5802 41.8914H88.3102L88.7324 40.2626C88.742 40.2056 88.7582 40.1351 88.7765 40.056L88.7765 40.0559L88.7765 40.0558C88.7843 40.0221 88.7924 39.9869 88.8006 39.9505C88.8278 39.8283 88.855 39.7061 88.8823 39.5704C88.9095 39.4347 88.9368 39.299 88.9504 39.1632C88.9679 39.0762 88.9741 38.9947 88.98 38.9189C88.9832 38.8764 88.9864 38.8357 88.9912 38.7967C89.0321 39.0139 89.073 39.2175 89.1275 39.4211C89.182 39.6247 89.2228 39.774 89.2637 39.8826L89.9993 41.8914ZM98.2268 37.3037C98.4993 37.358 98.7717 37.453 99.0305 37.6023L100.188 36.5164C100.039 36.435 99.8751 36.3536 99.7252 36.2993C99.5754 36.245 99.4119 36.1907 99.2485 36.15C99.0441 36.1092 98.8262 36.0685 98.581 36.0414C98.3358 36.0142 98.077 36.0007 97.8046 36.0007C97.5322 36.0007 97.3006 36.0278 97.0691 36.0549L97.069 36.055C96.8374 36.0957 96.6331 36.1364 96.456 36.1907C96.2653 36.245 96.1018 36.2993 95.9656 36.3671C95.8725 36.4093 95.7952 36.4515 95.7238 36.4904C95.6803 36.5141 95.6391 36.5366 95.5978 36.5572C95.3799 36.6793 95.2028 36.8151 95.0666 36.9508C94.9304 37.1001 94.8078 37.2358 94.726 37.3851C94.6443 37.5209 94.5898 37.6702 94.5489 37.8059C94.5081 37.9416 94.4945 38.0774 94.4945 38.1995C94.4945 38.3081 94.5217 38.4167 94.5626 38.5524C94.6034 38.6882 94.6579 38.7967 94.7397 38.9053C94.835 39.0411 94.9848 39.1632 95.1756 39.2718C95.3663 39.3804 95.5842 39.4618 95.8294 39.5297L96.6195 39.7333C96.7589 39.7586 96.8512 39.7956 96.9182 39.8225L96.9328 39.8283C96.9581 39.8409 96.9834 39.8506 97.0046 39.8587C97.0291 39.8681 97.0481 39.8753 97.0554 39.8826C97.1643 39.9505 97.2188 40.0319 97.2188 40.1405C97.2188 40.2084 97.2052 40.2762 97.1643 40.3712C97.1235 40.4662 97.0281 40.5477 96.8647 40.6291C96.7421 40.6834 96.6195 40.7241 96.4969 40.7377C96.3606 40.7649 96.2244 40.7784 96.0746 40.7784C95.8839 40.7784 95.7068 40.7649 95.5025 40.7377C95.3118 40.7106 95.1347 40.6698 94.9712 40.6291C94.8486 40.602 94.726 40.5613 94.6034 40.507C94.4808 40.4662 94.3446 40.3984 94.2084 40.3305L93.2685 41.4842C93.4183 41.5657 93.5818 41.6335 93.7316 41.6878C93.8951 41.7421 94.0313 41.7828 94.1812 41.8236C94.3991 41.8779 94.6443 41.9322 94.9167 41.9593C95.1892 41.9864 95.4616 42 95.734 42C96.2381 42 96.7012 41.9457 97.1371 41.8371C97.573 41.7286 97.9544 41.5792 98.2813 41.4028C98.4856 41.2806 98.6627 41.1449 98.8126 41.0092C98.9488 40.8734 99.0714 40.7377 99.1667 40.5884C99.2485 40.4391 99.3166 40.3034 99.3574 40.1541C99.3983 40.0048 99.4119 39.869 99.4119 39.7469C99.4119 39.6111 99.3983 39.4754 99.3574 39.3397C99.3166 39.1904 99.2485 39.0682 99.1531 38.9596L99.1531 38.9596C99.0714 38.8782 98.9896 38.7967 98.8807 38.7289C98.7717 38.661 98.6627 38.6067 98.5538 38.5524L98.2268 38.4303C98.1951 38.4212 98.1618 38.4122 98.1285 38.4031C98.0619 38.385 97.9953 38.3669 97.9408 38.3488L97.2461 38.1859C97.1644 38.1724 97.0826 38.1452 97.0009 38.1181L97.0009 38.1181C96.9192 38.0909 96.8511 38.0367 96.783 37.9824L96.7829 37.9823C96.7148 37.9145 96.674 37.833 96.674 37.738C96.674 37.6983 96.6886 37.6585 96.7071 37.6081C96.7138 37.5897 96.7211 37.5698 96.7284 37.548C96.7557 37.4666 96.851 37.3987 96.9873 37.3308C97.0554 37.2901 97.1371 37.263 97.2324 37.2494C97.3142 37.2358 97.4095 37.2223 97.5049 37.2223C97.7228 37.2223 97.9544 37.2494 98.2268 37.3037ZM64.4039 31.1686L64.2268 32.2002L68.0545 32.173L69.3077 25.0199C69.3486 24.7756 69.3622 24.6128 69.3622 24.5042C69.3622 23.7305 69.0217 23.1061 68.3406 22.6175C67.6595 22.1289 66.5561 21.8845 65.0305 21.8845C64.1859 21.8845 63.4367 21.9524 62.7965 22.0881C62.1563 22.2239 61.6523 22.3732 61.2709 22.536C60.8894 22.6989 60.6987 22.7939 60.6987 22.8211L59.6226 25.1964C59.8814 24.9792 60.3718 24.7078 61.1074 24.382C61.843 24.0562 62.7965 23.8934 63.968 23.8934C64.4447 23.8934 64.8398 23.9748 65.1258 24.1513C65.4119 24.3277 65.5617 24.5449 65.5617 24.8028C65.5617 25.0742 65.3438 25.3457 64.9215 25.6172C64.4992 25.8886 63.8862 26.0787 63.0553 26.2008C62.1154 26.3365 61.339 26.513 60.6987 26.7437C60.0585 26.9745 59.5409 27.3002 59.1459 27.7346C58.7508 28.1689 58.492 28.739 58.383 29.4584C58.383 30.4764 58.6691 31.2093 59.2412 31.6708C59.8133 32.1323 60.5353 32.3631 61.3798 32.3631C62.347 32.3359 63.0689 32.173 63.5321 31.888C63.9952 31.5894 64.2949 31.3586 64.4039 31.1686ZM64.3903 29.5263C64.1314 29.8249 63.7228 30.042 63.1779 30.1778C62.7284 30.2456 62.4423 30.2864 62.2925 30.2999C61.5842 30.2999 61.2436 30.0692 61.2436 29.6077C61.2572 29.1869 61.4071 28.8747 61.7068 28.6576C62.0064 28.4404 62.4968 28.2911 63.1643 28.1825C63.6547 28.1011 64.0497 28.0061 64.3221 27.8839C64.6082 27.7617 64.7853 27.6532 64.867 27.5717C64.9019 27.5312 64.9343 27.4956 64.9632 27.4638C65.0019 27.4212 65.0343 27.3857 65.0577 27.3545L64.7853 28.9019C64.7853 29.0105 64.6627 29.2276 64.3903 29.5263ZM78.0801 31.7794C77.8622 31.8744 77.4671 32.0101 76.8678 32.1594C76.2684 32.3088 75.5465 32.3902 74.6883 32.3902C73.1218 32.3902 71.9912 32.1187 71.2692 31.5622C70.5473 31.0057 70.1931 30.0963 70.1931 28.8204C70.1931 28.2639 70.2612 27.626 70.3838 26.9066C70.6699 25.2643 71.2692 24.0291 72.1955 23.1876C73.1218 22.346 74.4431 21.8981 76.1458 21.8574C77.004 21.8574 77.7396 21.9117 78.3389 22.0338C78.9383 22.1424 79.3606 22.2374 79.5921 22.3189L79.4696 24.7213C79.3061 24.5856 78.9928 24.4363 78.5296 24.2463C78.0665 24.0563 77.4399 23.9612 76.6498 23.9612C75.8189 24.0291 75.2332 24.3141 74.8654 24.8299C74.4976 25.3321 74.2252 26.0379 74.0617 26.9473C73.9391 27.721 73.8846 28.2368 73.8846 28.4947C73.8846 29.567 74.3886 30.1642 75.4102 30.2592C75.9687 30.2592 76.5136 30.1913 77.0176 30.0556C77.5216 29.9199 77.9575 29.7706 78.2981 29.6077C78.6197 29.4538 78.7834 29.3606 78.8006 29.3278L78.0801 31.7794ZM78.8006 29.3278L78.8021 29.3227L78.802 29.3236C78.8019 29.3249 78.8014 29.3263 78.8006 29.3278ZM83.8149 28.7797C83.8149 28.2911 83.8558 28.0468 83.9103 28.0468V28.0875H89.9583C89.9992 28.0875 90.0809 27.7617 90.2171 27.1102C90.3534 26.4587 90.4215 25.8208 90.4215 25.1964C90.4215 24.192 90.2171 23.4455 89.8085 22.9704C89.3862 22.4818 88.8958 22.156 88.3101 22.0203C87.738 21.871 86.9479 21.8031 85.9399 21.8031C82.6979 21.871 80.7636 23.7169 80.1643 27.341C80.0825 27.7889 80.0417 28.2639 80.0417 28.7933C80.0417 31.1143 81.254 32.3495 83.6787 32.4716C83.7468 32.4716 83.8694 32.4716 84.0192 32.4852C84.1691 32.4988 84.2917 32.4988 84.3734 32.4988C85.4087 32.4988 86.3213 32.4173 87.0978 32.2273C87.8878 32.0509 88.4191 31.9016 88.7188 31.7794L89.6042 29.3362C89.3317 29.5127 88.8277 29.7434 88.1194 30.0149C87.4111 30.2863 86.5665 30.4356 85.613 30.4628C84.4143 30.4628 83.8149 29.8927 83.8149 28.7797ZM84.7003 24.8435C85 24.2734 85.5857 23.9884 86.4439 23.9884C87.3974 24.0698 87.8742 24.5449 87.8878 25.4543C87.847 25.9972 87.7925 26.2687 87.7244 26.2687H84.2099C84.2372 25.8886 84.4006 25.4136 84.7003 24.8435ZM90.5986 32.173L92.3966 22.0474H96.2516L96.0609 23.1061C96.0915 23.068 96.1307 23.0256 96.176 22.9766C96.2115 22.9383 96.2507 22.8959 96.2925 22.8482C96.3878 22.7397 96.5649 22.6175 96.7965 22.4818C97.0281 22.3325 97.3414 22.2103 97.7091 22.1153C98.1314 21.9931 98.5946 21.9388 99.1122 21.9388C99.5481 21.9388 99.8886 21.966 100.147 22.0338V24.287C99.6298 24.097 99.0713 24.0155 98.472 24.0155C97.9816 24.0155 97.5321 24.097 97.1507 24.2598C96.1971 24.667 95.6523 25.305 95.5024 26.2008L94.4399 32.2002H90.5986V32.173ZM10.3798 26.4861L13.0906 32.1733L8.26843 32.2004L5.73478 25.1152H7.47837C7.95513 25.1152 8.44552 24.9388 8.9359 24.5994C9.42629 24.2465 9.73959 23.6629 9.88943 22.8349C9.94391 22.5635 9.98478 22.3056 9.98478 22.0748C9.98478 20.9347 9.41266 20.3782 8.28205 20.3782H6.56571L4.48157 32.1869H0L2.50641 18.0164H10.2845C11.5649 18.0164 12.5865 18.2879 13.3494 18.8308C14.1122 19.3738 14.4936 20.2289 14.4936 21.3962C14.4936 21.7083 14.4664 22.0612 14.3982 22.4549C14.2348 23.4186 13.9487 24.1922 13.5401 24.7623C13.1314 25.3324 12.6955 25.7396 12.246 25.9703C11.7965 26.2011 11.3878 26.3504 11.0064 26.4047C10.625 26.459 10.4207 26.4861 10.3798 26.4861Z" fill="white"/>
</svg>
