<svg width="216" height="165" fill="none" xmlns="http://www.w3.org/2000/svg"><path d="M4.802 11h3.976V3.426h4.494V.584H.308v2.842h4.494V11zM23.216.388c-6.748 0-7.602 3.192-7.602 5.166v.42c0 1.946.854 5.222 7.602 5.222h.63c6.734 0 7.588-3.276 7.588-5.222v-.42c0-1.974-.868-5.166-7.588-5.166h-.63zm4.102 5.264v.196c0 1.106-.714 2.534-3.794 2.534S19.73 6.912 19.73 5.82v-.168c0-1.106.658-2.464 3.794-2.464 3.094 0 3.794 1.358 3.794 2.464zM34.443 11h3.976V7.038h6.51V11h3.962V.584H44.93v3.682h-6.51V.584h-3.976V11zm17.81 0h3.975V7.038h6.51V11H66.7V.584h-3.962v3.682h-6.51V.584h-3.976V11zM70.06.584V11h11.634V8.396H73.98V6.968h7.448V4.434H73.98V3.132h7.602V.584H70.061zM94.116 11h3.962V.584H86.374c0 5.404-.14 6.58-.532 7.07-.238.308-.56.378-1.12.378h-.21V11H85.8c1.918 0 2.772-.448 3.346-1.386.546-.91.812-2.198.812-6.356h4.158V11zm15.697-7.35h-4.382V.584h-3.976V11h8.358c4.214 0 5.264-1.638 5.264-3.584v-.224c0-1.932-1.064-3.542-5.264-3.542zm-4.382 4.76V6.24h3.878c1.288 0 1.652.462 1.652 1.05v.042c0 .574-.364 1.078-1.652 1.078h-3.878z" fill="#fff"/><path d="M205 140.162l-10 5.909v11.858l10 5.909 10-5.909v-11.858l-10-5.909z" stroke="#fff" stroke-width="2"/><path d="M205 144.147l-7 3.938v7.83l7 3.938 7-3.938v-7.83l-7-3.938z" stroke="#fff" stroke-width="2"/><path opacity=".7" d="M125.5 6h10L200 143" stroke="#fff"/><circle r="2" transform="matrix(-1 0 0 1 125 6)" fill="#fff"/></svg>