<svg width="65" height="14" fill="none" xmlns="http://www.w3.org/2000/svg"><path fill-rule="evenodd" clip-rule="evenodd" d="M64.581.049h-4.698c-.197 0-.494.074-.667.172l-10.46 5.565c-.172.098-.271.025-.197-.171L50.166.343c.05-.196-.05-.343-.247-.343H34.786c-3.165.025-5.415.785-6.7 2.305-.841.98-1.212 2.255-1.039 3.457.346 2.206 3.808 2.623 3.808 2.623h7.813c1.162 0 .99 2.673-1.285 2.673H23.584c.544-.883.791-1.937.643-2.893-.074-.466-.247-.859-.247-.859a.49.49 0 0 1 .123-.539s.446-.343.742-.686c.841-.981 1.212-2.256 1.039-3.458-.37-2.206-2.052-2.55-4.178-2.598h-9.791c-.198 0-.47.098-.619.22L8.131 2.648c-.148.123-.123.22.075.22h13.5c1.162 0 1.484 1.055.866 1.938-.42.613-2.176.735-2.176.735-.198.025-16.518.025-16.518.025-.197 0-.47.098-.618.22L.095 8.19c-.148.123-.123.22.075.22h19.88c1.162 0 1.483 1.055.865 1.938-.42.613-2.176.735-2.176.735-.198.025-10.632.05-10.632.05a.98.98 0 0 0-.618.245L4.942 13.73c-.149.123-.1.245.099.245h11.943c.024.025.074.025.123.025h18c3.166-.024 5.416-.785 6.702-2.305.84-.98 1.211-2.255 1.038-3.457-.37-2.206-2.918-2.623-3.857-2.623h-7.764c-1.162 0-1.484-1.055-.866-1.937.42-.613 2.176-.736 2.176-.736h13.698l-3.263 10.715c-.05.196.05.343.247.343h2.448a.474.474 0 0 0 .445-.343l1.558-5.1c.05-.196.222-.245.395-.123l7.22 5.345c.149.123.445.221.643.221h4.525c.173 0 .247-.196.124-.294-.198-.147-.322-.22-.346-.245L52.02 7.38c-.148-.123-.148-.294.025-.368L64.631.294c.173-.171.148-.245-.05-.245z" fill="#fff"/></svg>