<?xml version="1.0" standalone="no"?>
<!DOCTYPE svg PUBLIC "-//W3C//DTD SVG 20010904//EN"
 "http://www.w3.org/TR/2001/REC-SVG-20010904/DTD/svg10.dtd">
<svg version="1.0" xmlns="http://www.w3.org/2000/svg"
 width="700.000000pt" height="700.000000pt" viewBox="0 0 700.000000 700.000000"
 preserveAspectRatio="xMidYMid meet">
<metadata>
Created by potrace 1.11, written by Peter Selinger 2001-2013
</metadata>
<g transform="translate(0.000000,700.000000) scale(0.100000,-0.100000)"
fill="#000000" stroke="none">
<path d="M6 6993 c-3 -3 -6 -1578 -6 -3500 l0 -3493 3500 0 3500 0 -2 3498 -3
3497 -3491 2 c-1920 1 -3494 -1 -3498 -4z m2604 -2873 c98 -16 125 -23 150
-38 37 -23 100 -84 100 -97 0 -7 7 -26 16 -44 13 -25 15 -54 12 -132 -2 -59
-9 -104 -16 -111 -7 -7 -12 -19 -12 -27 0 -20 -58 -109 -98 -151 -30 -31 -33
-39 -27 -75 17 -106 17 -169 0 -224 -10 -31 -22 -62 -28 -69 -5 -7 -8 -14 -5
-17 2 -2 292 -5 643 -6 584 -1 645 0 693 16 68 23 105 67 100 121 -2 26 -11
43 -29 56 -25 19 -48 20 -375 23 -369 3 -435 7 -499 32 -99 39 -127 56 -169
102 -50 55 -55 70 -56 167 0 107 18 164 84 262 55 81 222 176 331 189 22 3 46
10 54 17 10 8 234 10 823 9 445 -2 813 -5 817 -8 10 -5 5 -41 -15 -110 -8 -27
-22 -75 -31 -105 -9 -30 -19 -64 -24 -75 -4 -11 -10 -31 -12 -45 -5 -24 -27
-103 -41 -147 -10 -31 13 -30 62 1 21 13 58 33 82 45 46 23 82 42 230 126 133
75 169 95 255 141 44 23 109 59 145 78 36 20 94 50 128 66 l64 30 206 0 c196
0 265 -8 213 -25 -11 -3 -21 -10 -21 -14 0 -4 -21 -18 -47 -31 -27 -12 -62
-33 -80 -46 -17 -13 -36 -24 -42 -24 -6 0 -40 -18 -76 -40 -36 -22 -69 -40
-73 -40 -4 0 -59 -30 -122 -66 -63 -36 -131 -72 -150 -81 -19 -9 -42 -22 -50
-28 -8 -7 -42 -27 -75 -44 -33 -18 -67 -36 -75 -41 -94 -57 -154 -90 -165 -90
-7 0 -18 -7 -25 -15 -7 -8 -18 -15 -24 -15 -18 -1 -56 -37 -56 -53 0 -8 12
-23 28 -33 15 -9 49 -36 77 -58 27 -23 55 -45 63 -51 7 -5 18 -15 25 -21 7 -6
30 -24 52 -40 23 -16 47 -35 55 -42 13 -12 251 -191 382 -288 50 -38 66 -63
46 -76 -7 -4 -107 -8 -221 -8 l-208 0 -52 38 c-29 21 -62 44 -73 52 -12 8 -57
42 -99 75 -43 33 -90 69 -105 80 -16 11 -57 42 -92 70 -150 117 -244 185 -255
185 -7 0 -16 -12 -19 -27 -4 -16 -10 -32 -14 -38 -4 -5 -11 -29 -15 -52 -4
-24 -11 -45 -16 -49 -5 -3 -9 -16 -9 -30 0 -14 -7 -49 -16 -77 -38 -121 -67
-203 -76 -214 -16 -20 -251 -18 -268 2 -13 15 -9 49 16 125 7 25 25 79 38 120
35 109 75 249 96 330 15 61 101 334 111 352 5 10 9 27 9 38 l0 21 -662 -3
-663 -3 -56 -27 c-47 -23 -58 -34 -69 -67 -9 -30 -10 -46 -1 -74 11 -31 16
-35 59 -41 26 -3 126 -6 222 -7 301 -1 484 -6 520 -13 62 -13 140 -38 146 -47
3 -5 13 -9 22 -9 20 0 100 -72 126 -114 26 -41 26 -213 -1 -271 -26 -58 -64
-117 -93 -144 -48 -45 -127 -101 -143 -101 -9 0 -18 -4 -21 -9 -4 -5 -30 -16
-59 -25 -153 -46 -100 -45 -1620 -47 -1084 -2 -1440 0 -1449 9 -9 9 16 38 103
124 63 62 129 121 146 131 28 16 74 17 535 17 455 0 507 2 548 18 82 31 94 45
94 106 1 32 -4 60 -12 68 -10 10 -191 13 -920 15 -847 2 -907 3 -919 19 -18
25 -17 27 30 61 23 17 53 41 67 53 14 11 34 29 45 38 11 10 36 27 56 40 20 12
47 33 60 46 14 13 43 27 69 32 25 4 388 8 806 8 693 1 764 2 780 17 11 10 28
19 38 20 23 5 54 54 55 87 1 13 -8 37 -20 53 l-20 29 -629 2 c-345 2 -632 6
-636 11 -10 10 16 57 33 57 7 0 13 3 13 8 0 10 115 102 128 102 6 0 12 3 14 8
2 4 23 23 48 42 25 19 47 37 50 41 3 3 12 9 20 12 24 9 950 6 1010 -3z"/>
</g>
</svg>
