<svg width="43" height="14" id="Слой_1" data-name="Слой 1" xmlns="http://www.w3.org/2000/svg" viewBox="0 0 201.6 73.65"><defs><style>.cls-1,.cls-2{fill:#696646;fill-rule:evenodd;}.cls-2{opacity:0.4;}</style></defs><title>Монтажная область 1 копия</title><polygon class="cls-1" points="16.34 73.65 0 73.65 23.27 0 39.6 0 16.34 73.65"/><polygon class="cls-1" points="43.34 73.65 27 73.65 50.27 0 66.6 0 43.34 73.65"/><polygon class="cls-1" points="70.34 73.65 54 73.65 77.27 0 93.6 0 70.34 73.65"/><polygon class="cls-1" points="97.34 73.65 81 73.65 104.27 0 120.6 0 97.34 73.65"/><polygon class="cls-1" points="124.34 73.65 108 73.65 131.26 0 147.6 0 124.34 73.65"/><polygon class="cls-1" points="151.34 73.65 135 73.65 158.26 0 174.6 0 151.34 73.65"/><polygon class="cls-2" points="178.34 73.65 162 73.65 185.26 0 201.6 0 178.34 73.65"/></svg>