<svg width="16" height="12" viewBox="0 0 16 12" fill="none" xmlns="http://www.w3.org/2000/svg">
<path d="M15.998 10.7854C15.9968 10.7491 15.9955 10.7125 15.9943 10.6759C15.993 10.6392 15.9917 10.6024 15.9905 10.5655L15.9894 10.5378L15.9889 10.524L15.9888 10.5205L15.9885 10.4895L15.9884 10.4881L15.9879 10.4823L15.9846 10.4364C15.98 10.3752 15.9754 10.3136 15.9709 10.2521L15.9674 10.2055L15.9621 10.1451C15.9585 10.105 15.9549 10.0648 15.9512 10.0248C15.9475 9.98476 15.9437 9.94483 15.94 9.90503C15.938 9.88515 15.9361 9.8653 15.9342 9.84549C15.9319 9.82716 15.9296 9.80886 15.9272 9.79057C15.908 9.64543 15.8909 9.5028 15.8665 9.36567C15.8549 9.29707 15.8442 9.2296 15.8323 9.16385C15.8192 9.09826 15.8064 9.03412 15.7939 8.97166C15.7703 8.84667 15.7406 8.72994 15.7156 8.62203C15.7092 8.59511 15.703 8.56869 15.6969 8.54293C15.6901 8.51727 15.6834 8.49227 15.6769 8.46784C15.6637 8.41914 15.6512 8.37291 15.6395 8.32952C15.6275 8.28619 15.617 8.24551 15.606 8.20821C15.5946 8.17104 15.5842 8.13688 15.5748 8.10603C15.5608 8.0607 15.5491 8.02252 15.5398 7.99236C15.5261 7.94782 15.4811 7.92278 15.438 7.9356L12.7329 8.7416C12.6917 8.75387 12.6662 8.7968 12.674 8.84086C12.6769 8.85731 12.6803 8.87615 12.684 8.89723C12.6879 8.91845 12.6922 8.94197 12.6968 8.96756C12.7012 8.99322 12.7047 9.02132 12.7091 9.05103C12.7134 9.08077 12.7181 9.11245 12.7229 9.14582C12.7253 9.1625 12.7281 9.17949 12.7303 9.19706C12.7322 9.21467 12.7342 9.23272 12.7362 9.25112C12.7437 9.3248 12.755 9.4038 12.76 9.4885C12.7633 9.53064 12.7668 9.57394 12.7703 9.61812C12.7729 9.66246 12.7742 9.70789 12.7765 9.75387C12.7823 9.84567 12.7812 9.94125 12.7829 10.0376L12.7833 10.0735L12.7821 10.1053C12.7814 10.1265 12.7807 10.1477 12.78 10.169C12.7795 10.1902 12.7789 10.2115 12.7783 10.2328L12.7777 10.2646L12.7758 10.3104C12.7734 10.3721 12.7708 10.4337 12.7683 10.4951L12.7664 10.5411L12.7662 10.5469L12.7661 10.5483C12.7662 10.5552 12.7656 10.4935 12.7658 10.5201L12.7656 10.5224L12.7648 10.5315L12.7632 10.5497C12.7611 10.5738 12.759 10.5979 12.7569 10.6219C12.7549 10.6458 12.7529 10.6697 12.7509 10.6934C12.7482 10.717 12.7456 10.7406 12.7429 10.7639C12.7371 10.8106 12.7336 10.8568 12.7265 10.9018C12.7203 10.9469 12.7141 10.9912 12.7081 11.0345C12.7009 11.0776 12.6939 11.1197 12.6871 11.1607C12.681 11.2017 12.6727 11.2413 12.6654 11.2795C12.6577 11.3177 12.6516 11.3548 12.6436 11.3899C12.6359 11.4251 12.6284 11.4588 12.6213 11.4908C12.6178 11.5066 12.6144 11.5221 12.6111 11.5371C12.6077 11.5499 12.6044 11.5624 12.6012 11.5745C12.5993 11.5819 12.5975 11.5888 12.5957 11.596H15.9042C15.9485 11.596 15.9854 11.5596 15.9871 11.5133C15.9872 11.513 15.9872 11.5127 15.9872 11.5124C15.9899 11.448 15.9927 11.3819 15.9956 11.3143C15.9969 11.2467 15.9981 11.1777 15.9994 11.1075C16.0013 11.0374 15.9993 10.9661 15.9991 10.8941C15.9987 10.858 15.9983 10.8218 15.998 10.7854Z" fill="#A5A5A5"/>
<path d="M15.1374 7.1548C15.1818 7.13612 15.2021 7.08237 15.1816 7.03717C15.1725 7.01708 15.1619 6.99359 15.1498 6.96701C15.1385 6.94204 15.1259 6.9144 15.1123 6.8843C15.0946 6.84667 15.0755 6.806 15.0551 6.76252C15.0345 6.71922 15.0126 6.67313 14.9895 6.62457C14.9778 6.59932 14.9663 6.57849 14.9542 6.55478C14.9422 6.53161 14.93 6.50791 14.9174 6.4837C14.8922 6.43538 14.8664 6.38485 14.8388 6.33312C14.8102 6.28195 14.7806 6.22901 14.7503 6.1746C14.735 6.14747 14.7196 6.11994 14.704 6.09212C14.6876 6.06472 14.6711 6.03699 14.6543 6.00895C14.6207 5.95311 14.5863 5.89604 14.5514 5.83804C14.4777 5.72446 14.4043 5.60567 14.3224 5.49006C14.3023 5.46095 14.282 5.43174 14.2618 5.40244L14.2313 5.35852L14.1996 5.31533C14.1571 5.25787 14.1145 5.20022 14.0719 5.14255C14.0285 5.08554 13.9837 5.02974 13.9397 4.97373C13.9175 4.9459 13.8959 4.91768 13.8732 4.89049C13.8505 4.86339 13.8278 4.83636 13.8052 4.80943C13.7826 4.78261 13.76 4.75585 13.7376 4.72924C13.7153 4.70253 13.6929 4.67627 13.6697 4.65088C13.6238 4.5998 13.5785 4.54935 13.534 4.49971C13.4893 4.45022 13.4431 4.40372 13.3991 4.35723C13.3548 4.31099 13.3118 4.26557 13.2678 4.2234C13.2244 4.18086 13.182 4.13947 13.1412 4.09943C13.1004 4.0593 13.0588 4.02285 13.0201 3.98675C12.981 3.95104 12.9436 3.91682 12.908 3.88428C12.8715 3.85281 12.8368 3.82298 12.8043 3.79495C12.7717 3.76702 12.7413 3.74089 12.7131 3.71673C12.6849 3.69266 12.6579 3.67179 12.6341 3.65233C12.5994 3.62453 12.5701 3.60104 12.5469 3.58237C12.5114 3.55392 12.4609 3.55999 12.4324 3.59604L10.9805 5.43348C10.9531 5.46814 10.9555 5.51878 10.986 5.55041C10.9981 5.56295 11.0122 5.57746 11.0279 5.59378C11.043 5.60965 11.0603 5.62645 11.0781 5.64606C11.0958 5.66566 11.115 5.68688 11.1355 5.70953C11.156 5.73206 11.1779 5.75605 11.2009 5.78134C11.223 5.80743 11.2464 5.83492 11.2707 5.86357C11.2947 5.89248 11.321 5.92119 11.346 5.9532C11.3712 5.9849 11.3973 6.01765 11.4241 6.05134C11.4514 6.08441 11.4774 6.12031 11.5044 6.15659C11.5311 6.19311 11.5596 6.22912 11.5865 6.26774C11.6133 6.30623 11.6406 6.34536 11.6682 6.38498C11.6822 6.40447 11.6956 6.42481 11.7088 6.44545C11.7221 6.46595 11.7354 6.48651 11.7489 6.50719C11.7623 6.52775 11.7758 6.54843 11.7893 6.56917C11.8029 6.58991 11.8152 6.61161 11.8283 6.63283C11.8539 6.67565 11.8805 6.71784 11.9057 6.76097C11.9302 6.80452 11.9548 6.84808 11.9793 6.89145L11.9976 6.92382L12.0148 6.95687C12.0263 6.97881 12.0378 7.00072 12.0492 7.0225C12.0962 7.10859 12.136 7.19736 12.1775 7.28076C12.1966 7.32351 12.2153 7.36553 12.2336 7.4067C12.2428 7.42719 12.2518 7.44748 12.2608 7.4675C12.2691 7.48789 12.2773 7.50802 12.2854 7.5279C12.3016 7.56745 12.3174 7.60598 12.3327 7.64319C12.3469 7.68092 12.3605 7.71738 12.3736 7.75235C12.3802 7.76982 12.3866 7.78691 12.3928 7.80363C12.3988 7.81993 12.4061 7.83758 12.4101 7.85115C12.4194 7.87966 12.4282 7.90673 12.4366 7.93215C12.4451 7.95741 12.453 7.98102 12.4604 8.00287C12.47 8.033 12.4789 8.06061 12.4869 8.08558C12.4958 8.11348 12.5036 8.13813 12.5104 8.15926C12.5255 8.20668 12.5757 8.23086 12.6201 8.21223L15.1374 7.1548Z" fill="#A5A5A5"/>
<path d="M7.74438 3.87281C7.76637 3.87594 7.79069 3.87941 7.8172 3.8832C7.84354 3.88799 7.87204 3.89318 7.90247 3.89873C7.93285 3.90419 7.96519 3.90998 7.99926 3.91611C8.02887 3.92125 8.05954 3.92872 8.09142 3.93569L9.00769 1.97609C8.96226 1.96868 8.91721 1.96132 8.87307 1.95412C8.84282 1.94941 8.81304 1.94401 8.78339 1.94013C8.75373 1.93638 8.72442 1.93267 8.6955 1.92901C8.63775 1.92184 8.58159 1.91485 8.52727 1.9081C8.4728 1.90322 8.42017 1.89851 8.36966 1.89398C8.31914 1.88993 8.27095 1.88459 8.22482 1.8823C8.17878 1.87995 8.13509 1.87769 8.09405 1.87558C8.05304 1.87355 8.01467 1.87167 7.97922 1.86991C7.94373 1.86931 7.91113 1.86876 7.88167 1.86827C7.84024 1.86774 7.80507 1.8673 7.77688 1.86695C7.73216 1.86639 7.69516 1.90293 7.69302 1.94963L7.60947 3.77354C7.60742 3.81848 7.63842 3.85761 7.68105 3.86372C7.69921 3.86633 7.72038 3.86937 7.74438 3.87281Z" fill="#A5A5A5"/>
<path d="M10.2069 4.87712C10.2315 4.89583 10.2548 4.91358 10.2768 4.9303C10.2987 4.94674 10.3193 4.96213 10.3383 4.97638C10.3465 4.9823 10.3601 4.99307 10.3712 5.0017C10.3827 5.01063 10.3936 5.01913 10.4039 5.0272C10.4264 5.04479 10.4463 5.06032 10.4634 5.07362C10.5017 5.10352 10.5561 5.09341 10.5824 5.0516L11.7787 3.14637C11.8049 3.10457 11.7922 3.04834 11.7507 3.02346C11.7322 3.0124 11.7107 2.99948 11.6863 2.98485C11.6751 2.97812 11.6633 2.97106 11.6509 2.96363C11.6374 2.95565 11.6233 2.9473 11.6086 2.9386C11.5746 2.91899 11.5378 2.8978 11.4985 2.87514C11.4591 2.85273 11.4172 2.82888 11.3731 2.80372C11.331 2.78169 11.2868 2.75853 11.2407 2.73436C11.1944 2.71073 11.1471 2.68444 11.0965 2.66058C11.046 2.63642 10.9939 2.61143 10.9403 2.58574C10.887 2.55946 10.8309 2.5356 10.7738 2.51056C10.7166 2.48605 10.659 2.45925 10.5988 2.4356C10.5835 2.42956 10.5681 2.42345 10.5527 2.41736L10.0366 4.75933C10.0652 4.77807 10.092 4.79793 10.1185 4.81585C10.1493 4.83721 10.1788 4.85766 10.2069 4.87712Z" fill="#A5A5A5"/>
<path d="M6.13804 3.86326C6.16115 3.86007 6.18384 3.85613 6.20649 3.85363C6.22914 3.85123 6.25153 3.84886 6.27359 3.8465C6.31763 3.84172 6.36046 3.83707 6.40191 3.83257C6.44348 3.82966 6.48365 3.82684 6.5222 3.82413C6.54144 3.82276 6.56027 3.82142 6.57867 3.8201C6.59703 3.81881 6.61542 3.81718 6.63119 3.81716C6.66368 3.81626 6.69452 3.81543 6.72347 3.81464C6.75234 3.81369 6.77932 3.81279 6.80431 3.81196C6.83512 3.81175 6.86341 3.81156 6.88895 3.81138C6.91707 3.81122 6.94193 3.81108 6.96319 3.81096C7.01102 3.8107 7.04861 3.76835 7.04548 3.71844L6.93779 2.00032C6.93464 1.95041 6.8921 1.91356 6.84465 1.91982C6.82355 1.92261 6.79891 1.92586 6.771 1.92954C6.74513 1.93298 6.71648 1.9368 6.68529 1.94095C6.64844 1.94668 6.60859 1.95284 6.56599 1.95944C6.52353 1.96621 6.47833 1.97341 6.43068 1.981C6.40629 1.98459 6.38384 1.98936 6.36028 1.99401C6.33678 1.9987 6.31275 2.0035 6.28821 2.0084C6.23922 2.01829 6.1882 2.02861 6.13535 2.03928C6.08292 2.05177 6.02868 2.06469 5.97295 2.07795C5.94515 2.08463 5.91695 2.09141 5.88842 2.09828C5.85992 2.10525 5.83134 2.11377 5.80236 2.12161C5.7445 2.13772 5.68544 2.15418 5.62534 2.17091C5.56585 2.18967 5.50537 2.20872 5.44417 2.22802C5.41365 2.2379 5.38281 2.24721 5.35216 2.25776C5.32164 2.26866 5.2909 2.2796 5.26008 2.2906C5.22931 2.30163 5.19842 2.31268 5.16745 2.3238C5.13646 2.33482 5.10542 2.3459 5.0748 2.35852C5.01341 2.38302 4.95178 2.40762 4.89015 2.43222C4.8288 2.45733 4.76845 2.48515 4.70797 2.51147C4.67782 2.52491 4.64759 2.53787 4.61779 2.55166C4.5882 2.56594 4.55871 2.58017 4.52932 2.59436C4.5 2.60855 4.47078 2.62271 4.44172 2.63678C4.41267 2.65083 4.38373 2.66467 4.35561 2.67994C4.29915 2.70974 4.24339 2.73918 4.18855 2.76813C4.13369 2.79688 4.08141 2.82862 4.02949 2.85783C3.9778 2.88759 3.92697 2.91597 3.87902 2.94656C3.8308 2.97646 3.78389 3.00557 3.73852 3.03371C3.69301 3.06146 3.6508 3.09143 3.60944 3.11851C3.56836 3.14604 3.529 3.17243 3.49156 3.19753C3.45492 3.22382 3.42016 3.24875 3.3875 3.27219C3.35493 3.29565 3.32445 3.31759 3.29625 3.33789C3.26809 3.35819 3.24318 3.37832 3.22023 3.39572C3.18912 3.41974 3.16256 3.44023 3.14107 3.45682C3.10517 3.48452 3.09675 3.53684 3.12185 3.57542L3.80422 4.62433C3.82851 4.66166 3.87599 4.67337 3.91359 4.65116C3.93093 4.64095 3.95141 4.62885 3.97477 4.61508C3.99513 4.6033 4.01716 4.58939 4.04204 4.57585C4.06689 4.56229 4.09378 4.54767 4.12249 4.53204C4.15112 4.51638 4.18161 4.49972 4.21373 4.48217C4.2464 4.46579 4.28074 4.44857 4.31658 4.43061C4.35259 4.41307 4.38912 4.39298 4.42852 4.37546C4.46761 4.35751 4.50803 4.33897 4.5496 4.3199C4.59075 4.30009 4.63433 4.28278 4.67843 4.26429C4.72276 4.24633 4.76715 4.22601 4.81365 4.20884C4.85995 4.19139 4.90705 4.17366 4.95469 4.15569C4.97832 4.14631 5.00264 4.13837 5.02701 4.13023C5.05133 4.12204 5.07579 4.11382 5.10033 4.10556C5.12482 4.09729 5.14941 4.08897 5.17407 4.08063C5.19886 4.07276 5.224 4.06571 5.24898 4.05818C5.29915 4.04367 5.34899 4.02757 5.39952 4.01408C5.45008 4.001 5.50064 3.98791 5.551 3.9749C5.57599 3.96795 5.60136 3.9625 5.62661 3.95706C5.6518 3.95152 5.67693 3.94599 5.70198 3.94048C5.72694 3.93493 5.75181 3.92942 5.77657 3.92392C5.80138 3.91875 5.82632 3.91475 5.85093 3.91012C5.90014 3.90119 5.94875 3.89235 5.99658 3.88369C6.04458 3.87677 6.09179 3.86993 6.13804 3.86326Z" fill="#A5A5A5"/>
<path d="M1.48503 5.21939C1.46715 5.24584 1.44919 5.27241 1.43116 5.29909C1.41317 5.32575 1.39511 5.35252 1.37699 5.37937C1.35895 5.40626 1.34208 5.43415 1.32453 5.46159C1.28993 5.51683 1.25453 5.57165 1.22064 5.6275C1.18755 5.68383 1.15445 5.74017 1.12149 5.79629L1.0969 5.8383L1.07356 5.88101C1.05804 5.90939 1.04258 5.93772 1.02717 5.96592C0.964182 6.07779 0.909461 6.19214 0.853847 6.30076C0.82796 6.35614 0.802494 6.4106 0.777568 6.46392C0.765205 6.49055 0.752961 6.51693 0.740885 6.54295C0.729516 6.56933 0.718299 6.59541 0.707217 6.62116C0.685153 6.67254 0.663696 6.72255 0.642929 6.77091C0.62356 6.81988 0.604832 6.86718 0.586861 6.91257C0.569244 6.95811 0.551441 7.0012 0.536266 7.04302C0.521293 7.08488 0.507078 7.12461 0.493705 7.16192C0.4804 7.1992 0.467953 7.23408 0.45645 7.26634C0.445822 7.29892 0.436071 7.32884 0.427245 7.35587C0.415792 7.3914 0.405956 7.4219 0.397922 7.44687C0.383691 7.491 0.405333 7.53888 0.446934 7.55556L1.08206 7.81013C1.12248 7.82633 1.16801 7.80742 1.18669 7.76658C1.19595 7.74637 1.20702 7.72216 1.21973 7.69435C1.23028 7.67144 1.24193 7.64607 1.25465 7.61844C1.26815 7.5912 1.28276 7.56179 1.29837 7.53032C1.31393 7.49896 1.33047 7.46552 1.34792 7.4303C1.3655 7.39519 1.38575 7.35918 1.40584 7.32114C1.42619 7.28332 1.44739 7.24389 1.46934 7.20307C1.49246 7.16305 1.51636 7.12163 1.54095 7.07905C1.5532 7.0578 1.56561 7.03626 1.57817 7.01446C1.59139 6.99306 1.60478 6.97144 1.61831 6.94952C1.64536 6.90585 1.673 6.86126 1.70111 6.81586C1.76083 6.72746 1.81924 6.63436 1.88524 6.54457C1.90136 6.52188 1.91755 6.49911 1.93378 6.47627L1.95812 6.44198L1.98362 6.40845C2.01758 6.36374 2.05166 6.31889 2.08575 6.27404C2.12047 6.22974 2.15649 6.18658 2.19151 6.14305C2.20926 6.12144 2.2263 6.0994 2.24448 6.07839C2.26267 6.05741 2.28079 6.03649 2.29884 6.01566C2.31687 5.99485 2.3348 5.97412 2.35266 5.95348C2.37034 5.93274 2.38819 5.91237 2.40674 5.89284C2.44322 5.85334 2.47926 5.81432 2.51471 5.77591C2.5501 5.73758 2.58703 5.70201 2.6219 5.66605C2.65703 5.63036 2.69102 5.59514 2.72602 5.56286C2.76044 5.53011 2.79393 5.49825 2.82633 5.46742C2.85847 5.43641 2.89158 5.40873 2.92217 5.38094C2.95295 5.35352 2.98246 5.32725 3.01052 5.30226C3.03807 5.27946 3.06421 5.25783 3.08877 5.23748C3.11319 5.21715 3.13605 5.19812 3.15718 5.18051C3.16689 5.17213 3.18002 5.16209 3.19112 5.15327C3.20251 5.14427 3.21337 5.13571 3.22368 5.12759C3.24613 5.10986 3.26595 5.09422 3.28293 5.08084C3.32111 5.05071 3.32702 4.99327 3.29597 4.95523L2.57284 4.06951C2.54178 4.03147 2.48659 4.02857 2.45214 4.06326C2.43683 4.07868 2.41893 4.0967 2.39869 4.1171C2.38939 4.12646 2.37959 4.13633 2.36931 4.14667C2.35885 4.15729 2.3489 4.16696 2.33593 4.18082C2.31114 4.20696 2.28434 4.23526 2.25569 4.26548C2.2272 4.29572 2.19686 4.32789 2.16488 4.3618C2.13515 4.39547 2.10389 4.43087 2.07129 4.46779C2.03908 4.505 2.00435 4.54249 1.97075 4.58359C1.93702 4.62448 1.90215 4.66676 1.8663 4.7102C1.83 4.75313 1.79488 4.79925 1.75876 4.84604C1.7229 4.89307 1.68511 4.94 1.64905 4.98973C1.61309 5.03946 1.57654 5.09002 1.53955 5.14122C1.52076 5.1666 1.50279 5.1928 1.48503 5.21939Z" fill="#A5A5A5"/>
<path d="M0.171035 8.32476C0.166807 8.34652 0.161856 8.37202 0.156247 8.40083C0.15111 8.42728 0.145418 8.45658 0.13922 8.48847C0.133139 8.52109 0.127194 8.5596 0.120558 8.5989C0.114023 8.63859 0.107084 8.68082 0.0997746 8.72533C0.0962377 8.74752 0.0921955 8.77045 0.0888438 8.79357C0.0858627 8.81655 0.0828311 8.84004 0.0797152 8.86401C0.0678582 8.96003 0.0522452 9.06334 0.0432514 9.17372C0.0380302 9.22871 0.0326743 9.28519 0.0272005 9.34293C0.0226868 9.40074 0.019672 9.45994 0.0157814 9.51995C0.00668645 9.63989 0.00501905 9.76428 0.0012295 9.89012L0 9.93741L0.000218952 9.98491C0.000387376 10.0166 0.0005558 10.0484 0.000724225 10.0802C0.000909491 10.1121 0.00109476 10.1439 0.00126318 10.1758L0.0015495 10.2237L0.00330112 10.2716C0.00577695 10.3352 0.00825279 10.399 0.0107286 10.4624L0.0125981 10.5099L0.0131708 10.5253L0.0139792 10.5367L0.0155961 10.5596C0.0177519 10.5901 0.0198909 10.6205 0.0220299 10.6508C0.0241689 10.6811 0.0263079 10.7113 0.0284132 10.7413C0.0313269 10.7726 0.034207 10.8038 0.0371039 10.8348C0.0400176 10.8657 0.0429145 10.8965 0.0457946 10.9271C0.047243 10.9423 0.0486915 10.9575 0.0501399 10.9726C0.0519421 10.9875 0.0537442 11.0024 0.0555295 11.0172C0.0627044 11.0762 0.0697614 11.1342 0.0766668 11.191C0.0850038 11.2475 0.0931555 11.3029 0.101071 11.3567C0.108482 11.4106 0.118032 11.4626 0.126807 11.513C0.127531 11.517 0.128255 11.521 0.128963 11.525C0.136289 11.5661 0.170546 11.596 0.210581 11.596H0.434434C0.482233 11.596 0.520162 11.5539 0.517349 11.504C0.516591 11.4907 0.515816 11.4773 0.514957 11.4637C0.512162 11.4151 0.508793 11.3651 0.507715 11.3135C0.506098 11.2619 0.504448 11.2089 0.502747 11.1548C0.502427 11.1007 0.502107 11.0454 0.501787 10.9892C0.501702 10.9752 0.501618 10.9611 0.501534 10.9469C0.50182 10.933 0.502123 10.919 0.502427 10.9049C0.503016 10.8769 0.503606 10.8486 0.504212 10.8202C0.504801 10.7918 0.505408 10.7633 0.506014 10.7345C0.507361 10.7045 0.508692 10.6742 0.510056 10.6439C0.511404 10.6136 0.512768 10.5831 0.514115 10.5526L0.515143 10.5296L0.515648 10.5181L0.515715 10.5167C0.515715 10.513 0.515783 10.5201 0.515816 10.5189L0.516019 10.5161L0.51644 10.5105L0.519842 10.4661C0.524355 10.4069 0.528886 10.3474 0.533434 10.288L0.536903 10.2435L0.541804 10.1991C0.545072 10.1695 0.548322 10.14 0.551573 10.1105C0.554807 10.0811 0.55804 10.0517 0.561257 10.0225L0.566057 9.97866L0.572272 9.93514C0.589317 9.81945 0.603801 9.70564 0.625023 9.59668C0.634977 9.54209 0.643886 9.48838 0.65411 9.4361C0.665242 9.38403 0.676123 9.33308 0.686717 9.2835C0.706321 9.18416 0.731736 9.09182 0.752419 9.00622C0.757724 8.98486 0.762912 8.96392 0.767981 8.9435C0.773337 8.92337 0.779114 8.90431 0.784436 8.88544C0.795165 8.84788 0.805355 8.81225 0.814921 8.77874C0.824707 8.74497 0.83274 8.71477 0.842105 8.68446C0.851924 8.65354 0.860918 8.62521 0.86907 8.59959C0.877929 8.57166 0.88576 8.54701 0.892464 8.52587C0.907538 8.47845 0.881213 8.42762 0.834997 8.41474L0.273824 8.25828C0.227592 8.24538 0.180568 8.27575 0.171035 8.32476Z" fill="#A5A5A5"/>
<path d="M6.52348 11.3659C6.70605 11.4592 6.89945 11.5034 7.08986 11.5034C7.56781 11.5034 8.02714 11.225 8.25119 10.7458C8.29434 10.6536 8.32774 10.5517 8.34947 10.4558L9.65605 4.52654L10.1536 2.26847L10.4619 0.869647C10.4978 0.70685 10.3739 0.595947 10.2497 0.595947C10.1769 0.595947 10.104 0.633966 10.0629 0.721818L9.43564 2.06334L8.51025 4.04236L5.93041 9.55951C5.61709 10.2296 5.88262 11.0383 6.52348 11.3659ZM7.13776 9.45644C7.48739 9.45644 7.77083 9.75277 7.77083 10.1183C7.77083 10.4839 7.48739 10.7802 7.13776 10.7802C6.78812 10.7802 6.50468 10.4839 6.50468 10.1183C6.50468 9.75273 6.78812 9.45644 7.13776 9.45644Z" fill="#A5A5A5"/>
</svg>
