<svg width="15" height="16" viewBox="0 0 15 16" fill="none" xmlns="http://www.w3.org/2000/svg">
<path d="M9.65292 8.53537C9.57773 8.01684 9.377 7.54271 9.07625 7.14113L8.48539 7.73199L7.86398 7.11058L8.45483 6.51972C8.05326 6.21897 7.57913 6.01824 7.0606 5.94305V6.77756H6.1817V5.94305C5.66317 6.01824 5.18904 6.21897 4.78747 6.51972L5.37832 7.11058L4.75691 7.73199L4.16605 7.14113C3.8653 7.54271 3.66457 8.01684 3.58939 8.53537H4.42389V9.41427H3.58939C3.66457 9.9328 3.8653 10.4069 4.16605 10.8085L4.75691 10.2176L5.37832 10.8391L4.78747 11.4299C5.18904 11.7307 5.66317 11.9314 6.1817 12.0066V11.1721H7.0606V12.0066C7.57913 11.9314 8.05326 11.7307 8.45483 11.4299L7.86398 10.8391L8.48539 10.2176L9.07625 10.8085C9.377 10.4069 9.57773 9.9328 9.65292 9.41427H8.81841V8.53537H9.65292ZM6.62115 10.2932C5.89422 10.2932 5.30279 9.70175 5.30279 8.97482C5.30279 8.24789 5.89422 7.65646 6.62115 7.65646C7.34808 7.65646 7.93951 8.24789 7.93951 8.97482C7.93951 9.70175 7.34808 10.2932 6.62115 10.2932Z" fill="#A5A5A5"/>
<path d="M12.1744 7.65648H15C14.7792 3.88818 11.7078 0.816818 7.93948 0.595947V3.4216C10.035 3.91816 11.6778 5.56096 12.1744 7.65648Z" fill="#A5A5A5"/>
<path d="M6.62131 8.5354C6.37881 8.5354 6.18185 8.73235 6.18185 8.97485C6.18185 9.21735 6.37881 9.41431 6.62131 9.41431C6.86381 9.41431 7.06076 9.21735 7.06076 8.97485C7.06076 8.73235 6.86381 8.5354 6.62131 8.5354Z" fill="#A5A5A5"/>
<path d="M11.4435 8.53539L11.3817 8.16884C11.0401 6.14541 9.45052 4.55583 7.42709 4.21422L7.06054 4.15243V2.41407C6.91371 2.40446 6.76722 2.38306 6.62108 2.38306C2.98622 2.38306 0 5.33998 0 8.97484C0 12.6097 2.98622 15.5959 6.62108 15.5959C10.256 15.5959 13.2129 12.6097 13.2129 8.97484C13.2129 8.8287 13.1915 8.68222 13.1819 8.53539H11.4435ZM6.62108 12.9299C4.44019 12.9299 2.66601 11.1557 2.66601 8.97484C2.66601 6.79395 4.44019 5.01977 6.62108 5.01977C8.80198 5.01977 10.5762 6.79395 10.5762 8.97484C10.5762 11.1557 8.80198 12.9299 6.62108 12.9299Z" fill="#A5A5A5"/>
</svg>
