<svg width="14" height="14" fill="none" xmlns="http://www.w3.org/2000/svg"><path d="M7 13.995c-3.87 0-7-3.128-7-6.997C0 3.128 3.13 0 7 0s7 3.128 7 6.998a6.993 6.993 0 0 1-7 6.997zM7 1.647c-2.924 0-5.353 2.387-5.353 5.35A5.341 5.341 0 0 0 7 12.35a5.341 5.341 0 0 0 5.353-5.351c0-2.964-2.43-5.351-5.353-5.351zm2.47 6.586H6.548c-.453 0-.782-.37-.782-.824V3.705c0-.247.164-.412.411-.412h.783c.206 0 .412.165.412.412v2.47c0 .246.164.411.411.411h1.689c.205 0 .411.165.411.412v.823c0 .247-.164.412-.411.412z" fill="#A5A5A5"/></svg>