<svg width="15" height="16" viewBox="0 0 15 16" fill="none" xmlns="http://www.w3.org/2000/svg">
<path d="M7.5 0.595947C3.35812 0.595947 0 3.95407 0 8.09595C0 12.2378 3.35812 15.5959 7.5 15.5959C11.6419 15.5959 15 12.2378 15 8.09595C15 3.95407 11.6419 0.595947 7.5 0.595947ZM7.5 2.47095C9.94078 2.47095 12.0023 4.04313 12.7809 6.22095H2.21906C2.99766 4.04313 5.05922 2.47095 7.5 2.47095ZM7.5 9.03345C6.98203 9.03345 6.5625 8.61392 6.5625 8.09595C6.5625 7.57798 6.98203 7.15845 7.5 7.15845C8.01797 7.15845 8.4375 7.57798 8.4375 8.09595C8.4375 8.61392 8.01797 9.03345 7.5 9.03345ZM1.875 8.09595C4.43672 8.09595 6.51141 10.5644 6.555 13.6258C3.90375 13.1716 1.875 10.8738 1.875 8.09595ZM8.445 13.6258C8.48859 10.5644 10.5633 8.09595 13.125 8.09595C13.125 10.8738 11.0963 13.1716 8.445 13.6258Z" fill="#A5A5A5"/>
</svg>
