<svg width="57" height="52" viewBox="0 0 57 52" fill="none" xmlns="http://www.w3.org/2000/svg">
<path d="M39.8532 0.608198L16.1083 2.64595C8.48313 3.30032 2.6038 9.76942 2.5732 16.9463L2.54809 22.8852L0.993712 22.8875L0.00741577 22.8891V23.9033V25.9096V26.9135L0.98665 26.93L11.5252 27.1044L12.608 27.1225L12.6308 26.062L12.6763 23.9417L12.699 22.8702L11.6076 22.8718L9.92688 22.8742L10.0289 16.7397C10.0807 13.6454 12.677 10.9721 15.8949 10.8048L39.2733 9.59267C43.2624 9.38607 46.3736 12.1575 46.0997 15.7389L45.607 22.1844C45.3998 24.8954 43.235 27.2435 40.2808 28.0306L33.3163 29.8845C28.2483 31.2365 24.8351 35.2161 24.6405 39.7763C24.5118 42.796 21.6957 44.9893 18.441 44.7002L15.0161 44.3962C11.985 44.1268 9.61302 41.62 9.66088 38.7771L9.75739 32.9671L11.4083 33.0362L12.4801 33.081L12.5021 32.0417L12.546 29.9647L12.568 28.9144L11.4883 28.8884L0.983512 28.6347L0.00741577 28.6111V29.6057V31.5743V32.5594L0.977235 32.6002L2.50572 32.6638L2.48218 38.2979C2.45472 44.822 7.83188 50.6626 14.8325 51.493L18.2119 51.8936C25.9203 52.808 32.902 47.7317 33.3265 40.3553C33.4003 39.0811 34.3975 37.9695 35.7652 37.6537L42.7901 36.0355C50.0057 34.374 55.5139 28.8067 56.1408 22.1436L56.7709 15.4428C57.6128 6.49834 49.7232 -0.239423 39.8532 0.608198Z" fill="#61633C"/>
</svg>
