<svg width="56" height="64" viewBox="0 0 56 64" fill="none" xmlns="http://www.w3.org/2000/svg">
<path fill-rule="evenodd" clip-rule="evenodd" d="M29.902 56.8459C29.1769 57.1739 28.5341 57.4391 28 57.6468C27.4659 57.4391 26.8231 57.1739 26.098 56.8459C23.7914 55.8024 20.735 54.1613 17.7069 51.7821C11.7245 47.0816 6 39.6734 6 28V13.7613C7.90244 13.3137 9.4059 12.3479 10.1985 11.8387L10.2592 11.7997C10.7549 11.4816 11.1895 11.1912 11.6061 10.9128L11.6062 10.9127C12.4558 10.3449 13.2305 9.82722 14.2951 9.22749C17.0394 7.68139 21.1338 6 28 6C34.8662 6 38.9606 7.68139 41.7049 9.22749C42.7695 9.82722 43.5442 10.3449 44.3938 10.9127L44.394 10.9128C44.8106 11.1912 45.2452 11.4817 45.7408 11.7997L45.8015 11.8387C46.5941 12.3479 48.0976 13.3137 50 13.7613V28C50 39.6734 44.2755 47.0816 38.2931 51.7821C35.265 54.1613 32.2086 55.8024 29.902 56.8459ZM0 28V14V8H4C5.15823 8 6.39927 7.17191 8.08279 6.04858C11.632 3.68039 17.1477 0 28 0C38.8523 0 44.368 3.68039 47.9172 6.04858C49.6007 7.17191 50.8418 8 52 8H56V14V28C56 56 28 64 28 64C28 64 0 56 0 28ZM41.8787 17.8787L24 35.7574L18.5423 30.2997L14.2997 34.5424L21.8787 42.1213L24 44.2426L26.1213 42.1213L46.1213 22.1213L41.8787 17.8787Z" fill="#61633C"/>
</svg>
