<svg width="25" height="15" fill="none" xmlns="http://www.w3.org/2000/svg"><path d="M15.453 1.545H9.068v11.481h6.385V1.545z" fill="#969696"/><path fill-rule="evenodd" clip-rule="evenodd" d="M9.48 7.311a7.25 7.25 0 0 1 2.78-5.715A7.155 7.155 0 0 0 7.782.052C3.713 0 .47 3.244.47 7.312a7.274 7.274 0 0 0 7.311 7.31c1.7 0 3.244-.566 4.48-1.544-1.7-1.39-2.78-3.45-2.78-5.767z" fill="#A3A3A3"/><path fill-rule="evenodd" clip-rule="evenodd" d="M24.051 7.311a7.306 7.306 0 0 1-7.311 7.312c-1.7 0-3.244-.567-4.48-1.545a7.25 7.25 0 0 0 2.78-5.715c0-2.317-1.08-4.48-2.78-5.818A7.155 7.155 0 0 1 16.74 0a7.274 7.274 0 0 1 7.311 7.311z" fill="#D8D8D8"/><path d="M4.692 8.599V7.363c0-.464-.258-.773-.721-.773-.258 0-.515.052-.67.36-.154-.205-.36-.36-.617-.36-.206 0-.412.052-.567.31v-.207h-.463V8.65h.412V7.517c0-.36.206-.515.515-.515.257 0 .412.206.412.515V8.65h.411V7.517c0-.36.206-.515.515-.515.31 0 .464.206.464.515V8.65h.309v-.051zm6.333-1.906h-.721v-.566h-.412v.566H9.48v.36h.412v.928c0 .463.154.72.67.72.205 0 .411-.051.514-.154l-.103-.36a.954.954 0 0 1-.36.103c-.206 0-.31-.155-.31-.31v-.926h.722v-.36zm3.552-.051c-.257 0-.412.103-.515.309v-.258h-.36V8.65h.412V7.569c0-.31.154-.515.412-.515.103 0 .154 0 .257.051l.103-.412c-.103-.051-.206-.051-.309-.051zm-5.406.206c-.206-.155-.463-.206-.772-.206-.515 0-.773.206-.773.618 0 .309.206.515.67.566l.206.052c.206.051.36.103.36.206 0 .154-.154.257-.463.257-.31 0-.515-.103-.67-.206l-.206.31a1.5 1.5 0 0 0 .824.256c.567 0 .876-.257.876-.617s-.258-.515-.67-.567l-.206-.051c-.206 0-.36-.103-.36-.206 0-.155.154-.258.36-.258.258 0 .464.103.618.155l.206-.31zm5.87.824c0 .566.412 1.03 1.03 1.03.308 0 .463-.052.72-.206l-.206-.31a.87.87 0 0 1-.515.155c-.36 0-.617-.257-.617-.67 0-.411.257-.669.617-.669a.87.87 0 0 1 .515.155l.206-.31c-.206-.154-.412-.205-.72-.205-.618 0-1.03.412-1.03 1.03zm-2.73-1.03c-.566 0-.977.412-.977 1.03 0 .618.412 1.03.978 1.03.309 0 .566-.052.772-.258l-.206-.309c-.154.155-.36.206-.566.206-.258 0-.566-.154-.618-.515h1.442v-.154c.103-.618-.258-1.03-.824-1.03zm0 .36c.31 0 .464.206.516.515h-1.03c0-.309.206-.515.515-.515zm-5.25.67v-.979h-.413v.258c-.154-.155-.36-.309-.618-.309-.566 0-.978.412-.978 1.03 0 .618.412 1.03.978 1.03.258 0 .515-.103.618-.258v.257h.412v-1.03zm-1.546 0c0-.36.206-.67.618-.67.36 0 .567.258.567.67 0 .36-.258.67-.567.67-.412-.052-.618-.31-.618-.67zm14.932-1.03c-.258 0-.412.103-.515.309v-.258h-.412V8.65h.412V7.569c0-.31.155-.515.412-.515.103 0 .154 0 .257.051l.155-.36c-.103-.103-.206-.103-.31-.103zm-1.493 1.03v-.979h-.412v.258c-.155-.155-.36-.309-.618-.309-.566 0-.978.412-.978 1.03 0 .618.412 1.03.978 1.03.257 0 .515-.103.618-.258v.257h.412v-1.03zm-1.545 0c0-.36.206-.67.618-.67.36 0 .566.258.566.67 0 .36-.257.67-.566.67-.412-.052-.618-.31-.618-.67zm5.458 0v-1.75h-.412V6.95c-.154-.155-.36-.309-.618-.309-.566 0-.978.412-.978 1.03 0 .618.412 1.03.978 1.03.258 0 .515-.103.618-.258V8.7h.412V7.67zm-1.545 0c0-.36.206-.67.618-.67.36 0 .566.258.566.67 0 .36-.257.67-.566.67-.412-.052-.618-.31-.618-.67z" fill="#fff"/></svg>