<svg width="35" height="11" fill="none" xmlns="http://www.w3.org/2000/svg"><path fill-rule="evenodd" clip-rule="evenodd" d="M13.58.58h3.024v5.556h.4c.627-1.375 1.255-2.75 1.825-4.125.457-.88.856-1.32 1.94-1.43h2.625v9.406H20.37v-5.61h-.285a126.94 126.94 0 0 0-1.826 4.125c-.4.88-.856 1.375-1.883 1.485h-2.739V.58h-.057zm14.208 6.437h3.309c1.426 0 2.682-.88 3.138-2.09h-9.472v5.115h3.082V7.017h-.057zM0 .58h3.081c.97 0 1.427.66 1.655 1.486L6.048 6.19h.285l1.313-4.125C7.874 1.24 8.273.58 9.243.58h3.025v9.407H9.243v-5.61h-.228L7.19 9.931H5.135L3.31 4.376h-.285v5.556H0V.58z" fill="#A3A3A3"/><path fill-rule="evenodd" clip-rule="evenodd" d="M34.35 4.431c.056-.22.056-.44.056-.66 0-1.76-1.483-3.19-3.309-3.19h-6.79l.114.44c.457 1.87 2.454 3.41 4.45 3.41h5.478z" fill="#D8D8D8"/></svg>