<svg width="46" height="12" fill="none" xmlns="http://www.w3.org/2000/svg"><path fill-rule="evenodd" clip-rule="evenodd" d="M.033 5.656L2.5 3.188.033.72h1.85l2.469 2.468-2.468 2.468H.033zm3.27 0L5.77 3.188 3.303.72h1.85l2.469 2.468-2.468 2.468H3.303zm41.031 5.615c.37 0 .555-.185.74-.617L46 8.31h-.555l-.617 1.727-.617-1.79h-.617l.987 2.284c-.062.185-.185.247-.309.247-.123 0-.185-.062-.308-.062l-.185.37c.123.123.308.185.555.185zm-2.098-1.11c-.37 0-.678-.309-.678-.74 0-.433.308-.741.678-.741.37 0 .68.308.68.74-.063.432-.371.74-.68.74zm.124.431c.555 0 1.049-.431 1.049-1.172 0-.802-.556-1.234-1.05-1.234-.37 0-.616.185-.801.432V7.384h-.556v3.208h.556v-.37c.123.185.37.37.802.37zm-4.504-.431c-.37 0-.68-.309-.68-.74 0-.494.31-.741.68-.741.37 0 .678.308.678.74s-.308.74-.678.74zm-.124.431c.37 0 .617-.185.802-.431v.37h.556V7.384h-.556v1.234c-.185-.185-.432-.432-.802-.432-.555 0-1.049.432-1.049 1.172 0 .803.494 1.234 1.05 1.234zm-3.208-1.357c.061-.37.246-.617.617-.617.37 0 .555.247.555.617h-1.172zm.678 1.357c.432 0 .74-.185.926-.431l-.309-.247a.792.792 0 0 1-.617.247c-.37 0-.617-.186-.678-.556h1.666v-.123c0-.679-.37-1.234-1.111-1.234-.679 0-1.11.555-1.11 1.172.061.679.555 1.172 1.233 1.172zm-2.776-.061h.555v-.864c0-.617.309-.926.802-.926v-.555c-.432 0-.678.247-.802.555v-.493h-.555v2.283zm-1.913.061c.37 0 .555-.185.74-.431v.37h.556V8.248h-.556v1.296c0 .37-.185.555-.493.555-.309 0-.494-.185-.494-.555V8.248h-.555v1.48c0 .494.309.864.802.864zm-2.221 0c.432 0 .74-.185.925-.431l-.308-.309c-.185.185-.37.309-.617.309-.432 0-.679-.309-.679-.74 0-.433.309-.741.679-.741.247 0 .432.123.617.308l.308-.37c-.185-.247-.493-.37-.925-.37-.679 0-1.173.555-1.173 1.234 0 .555.494 1.11 1.173 1.11zm-3.27-1.357c.061-.37.247-.617.617-.617s.555.247.555.617h-1.172zm.617 1.357c.432 0 .74-.185.925-.431l-.308-.247a.792.792 0 0 1-.617.247c-.37 0-.617-.186-.679-.556h1.666v-.123c0-.679-.37-1.234-1.11-1.234-.68 0-1.111.555-1.111 1.172.061.679.555 1.172 1.234 1.172zm-2.407 0c.494 0 .864-.246.864-.74 0-.432-.37-.555-.74-.679h-.062c-.247-.061-.494-.123-.494-.308 0-.124.124-.247.309-.247s.432.062.679.247l.185-.37c-.247-.185-.556-.247-.864-.247-.432 0-.802.247-.802.679 0 .431.37.617.74.678h.062c.247.062.493.124.493.309s-.123.247-.37.247-.493-.124-.74-.309l-.247.37c.247.247.617.37.987.37zm-2.53-5.429c-.247.308-.679.493-1.11.493-1.111 0-1.666-.74-1.666-1.789V1.954h.863v1.913c0 .617.247 1.049.926 1.049.74 0 .987-.494.987-1.172V2.016h.864v3.27c0 1.11-.679 1.913-1.851 1.913a2.707 2.707 0 0 1-1.666-.555l-.062-.062.494-.555h.062c.37.246.74.308 1.172.308.617 0 .987-.308.987-.987v-.185zm-4.442.061c-.309.309-.74.494-1.234.494-1.111 0-1.851-.864-1.851-1.913s.802-1.912 1.85-1.912c.433 0 .926.185 1.235.493v-.493h.863v3.763h-.863v-.432zM10.213 4.3h.987c.247 0 .494-.062.679-.124.185-.123.432-.246.555-.37.185-.185.309-.37.37-.555.124-.247.124-.432.124-.679 0-.247-.062-.493-.124-.678a1.219 1.219 0 0 0-.37-.68 1.457 1.457 0 0 0-.555-.37C11.632.72 11.447.72 11.2.72H9.35v4.998h.925v-1.42h-.062zm0-.926v-1.79h.987c.247 0 .432.062.617.247s.247.37.247.617a.792.792 0 0 1-.247.617.792.792 0 0 1-.617.247l-.987.061zm4.936 1.543c.185 0 .37-.062.555-.185.309-.185.494-.556.494-.926 0-.432-.185-.802-.555-.987-.185-.123-.37-.123-.556-.123-.185 0-.37.061-.555.123-.37.185-.555.555-.555.987 0 .37.185.74.493.926.247.123.432.185.68.185z" fill="#fff"/><path fill-rule="evenodd" clip-rule="evenodd" d="M44.457 2.386c.37-.37.802-.555 1.296-.555h.185v.864h-.37c-.802 0-1.173.555-1.173 1.295v1.666h-.802V1.893h.864v.493zm-4.257.987h1.974c0-.061-.062-.123-.062-.185-.185-.37-.493-.555-.863-.555a1.1 1.1 0 0 0-.988.617c-.061.062-.061.123-.061.123zm-8.639 0h1.975c0-.061-.062-.123-.062-.185-.185-.37-.493-.555-.864-.555a1.1 1.1 0 0 0-.987.617c0 .062 0 .123-.062.123zm-4.134 0h1.975c0-.061-.062-.123-.062-.185-.185-.37-.493-.555-.864-.555a1.1 1.1 0 0 0-.987.617c-.062.062-.062.123-.062.123zm8.392.432c0 1.543 2.098 1.42 2.098 0 0-1.419-2.098-1.542-2.098 0zm4.319.247c0 .617.494.926 1.11.926.433 0 .803-.124 1.173-.309h.062l.493.494-.062.061c-.493.37-.987.556-1.604.556-1.11 0-1.974-.802-1.974-1.913-.062-1.172.74-2.036 1.85-2.036.741 0 1.358.37 1.667 1.049.123.308.185.74.061 1.11v.062h-2.776zm-8.576 0c0 .617.493.926 1.11.926.432 0 .802-.124 1.172-.309h.062l.494.494-.062.061c-.494.37-.987.556-1.604.556-1.11 0-1.975-.802-1.975-1.913 0-1.11.802-1.913 1.913-1.913.74 0 1.358.37 1.666 1.05.123.308.185.74.062 1.11v.061h-2.838v-.123zm-4.196 0c0 .617.493.926 1.11.926.432 0 .803-.124 1.173-.309h.061l.494.494-.062.061c-.493.37-.987.556-1.604.556-1.11 0-1.974-.802-1.974-1.913 0-1.11.802-1.913 1.912-1.913.74 0 1.358.37 1.666 1.05.124.308.186.74.062 1.11v.061l-2.838-.123zm-2.838-.864l2.097 2.468h-1.172L23.48 3.188 25.453.72h1.172l-2.098 2.468zM22.43.72h.925v4.998h-.925V.72zm12.71 2.221c0-.061.062-.061.062-.061v-.124s0-.061.062-.061a1.84 1.84 0 0 1 1.48-.74h.062c1.049 0 1.851.863 1.851 1.912s-.802 1.913-1.85 1.913c-.433 0-.803-.185-1.111-.494v1.79h-.74V3.743c0-.247.06-.494.184-.68V2.94z" fill="#B3B3B3"/></svg>