<svg width="27" height="15" fill="none" xmlns="http://www.w3.org/2000/svg"><path d="M23.205 6.633c-1.926-1.657-4.56-1.671-5.615-1.6l-1.87-1.941 1.877-1.871-1.23-1.22-5.052 5.04 1.223 1.22 1.953-1.949L16.01 5.89 14.5 7.24H11L6.417 3.349 5.3 4.662l.611.521a7.222 7.222 0 0 0-3.085 1.692 6.72 6.72 0 0 0-2.115 4.498h-.71v1.728h3.416a3.463 3.463 0 0 0 3.084 1.9 3.45 3.45 0 0 0 3.085-1.9h6.929a3.463 3.463 0 0 0 3.085 1.9 3.45 3.45 0 0 0 3.085-1.9h3.317v-1.728h-.675c-.127-2.042-.836-3.634-2.122-4.74zM6.5 13.265a1.726 1.726 0 0 1-1.728-1.728c0-.956.773-1.727 1.728-1.727a1.727 1.727 0 1 1 0 3.455zm9.649-1.892H9.952a3.458 3.458 0 0 0-3.45-3.277 3.453 3.453 0 0 0-3.45 3.277h-.605a5.01 5.01 0 0 1 1.567-3.241c.949-.892 2.22-1.414 3.598-1.478l2.761 2.306h4.793l2.46-2.199c.73-.057 2.944-.114 4.454 1.178.9.771 1.406 1.92 1.518 3.434h-.534a3.458 3.458 0 0 0-3.45-3.277c-1.848 0-3.373 1.457-3.464 3.277zm3.457 1.892a1.726 1.726 0 0 1-1.729-1.728c0-.956.773-1.727 1.729-1.727.956 0 1.729.77 1.729 1.727a1.73 1.73 0 0 1-1.73 1.728z" fill="#fff"/></svg>