<svg width="20" height="19" fill="none" xmlns="http://www.w3.org/2000/svg"><path d="M18.439 2.502S14.646 0 9.69 0C4.9 0 1.085 4.14.38 10.07c-.515 4.362-.634 7.545.45 8.89 0 0 .674.04 1.758.04C7.14 19 19 18.248 19 10.419c.055-2.011-1.196-5.811-1.196-5.811-.467-1.156.586-2.066.634-2.106zM3.183 7.434c2.668-.11 5.97-.174 7.212.008.84.166 1.655.918 1.718 1.314.095.562-.728 1.694-2.794 2.961-1.085.665-4.323 1.536-7.157 2.17.055-.967.158-2.115.332-3.555.12-1.022.349-2.003.69-2.898zm13.696 2.921v.064c0 1.227-.404 2.2-1.267 3.063-.839.832-2.105 1.536-3.752 2.075-3.294 1.084-7.22 1.25-9.27 1.25h-.357a8.223 8.223 0 0 1-.079-.68c2.36-.515 6.634-1.536 8.241-2.526 3.523-2.153 4.006-4.037 3.8-5.233-.3-1.718-2.232-2.85-3.444-3.08l-.031-.007c-1.338-.206-4.315-.15-6.381-.08.214-.308.451-.601.697-.87C6.326 2.937 7.933 2.2 9.69 2.2c2.406 0 4.528.689 5.913 1.29a3.805 3.805 0 0 0 .214 1.877c.436 1.338 1.093 3.832 1.061 4.987z" fill="#fff"/></svg>