<svg width="20" height="17" fill="none" xmlns="http://www.w3.org/2000/svg"><path fill-rule="evenodd" clip-rule="evenodd" d="M8.442 14.912a6.38 6.38 0 0 0 5.509-3.206l.158-.26 1.796 1.05-.15.254A8.46 8.46 0 0 1 8.442 17c-4.653 0-8.44-3.81-8.44-8.5 0-4.69 3.787-8.5 8.44-8.5 3.983 0 7.418 2.811 8.245 6.71H19l-3.314 3.729L12.35 6.71h2.187a6.459 6.459 0 0 0-2.112-3.199 6.317 6.317 0 0 0-3.983-1.424c-3.503 0-6.359 2.878-6.359 6.412s2.856 6.412 6.359 6.412zM6.893 9.268V3.326h2.375v5.13l1.97 2.505-1.872 1.454-2.473-3.147z" fill="#fff"/></svg>