<svg width="40" height="40" viewBox="0 0 40 40" fill="none" xmlns="http://www.w3.org/2000/svg">
<path fill-rule="evenodd" clip-rule="evenodd" d="M37.5407 21.7226C37.6971 21.4989 37.8758 21.2976 38.1216 21.1186C38.6578 20.7383 39.3057 20.6264 39.909 20.7607C39.8196 21.3647 39.5068 21.9463 38.9706 22.3267C38.479 22.6622 37.8758 22.7741 37.3172 22.6846C37.1385 23.3557 36.9374 24.0045 36.6917 24.6309C36.8927 24.4072 37.1385 24.2058 37.429 24.0716C38.0099 23.8032 38.6801 23.8032 39.2387 24.0492C39.0599 24.6533 38.6578 25.1678 38.0545 25.4363C37.496 25.7047 36.8704 25.7047 36.3342 25.5034C36.0437 26.1522 35.7086 26.7786 35.3511 27.3826C35.5969 27.1589 35.8873 27.0023 36.2225 26.9128C36.8481 26.7338 37.496 26.868 38.0099 27.2036C37.7418 27.7405 37.2279 28.1656 36.6023 28.3446C35.9991 28.5012 35.3735 28.4117 34.8819 28.0985C34.4574 28.7025 34.0106 29.2841 33.5414 29.8211C33.8318 29.6421 34.167 29.5079 34.5245 29.4855C35.1947 29.4408 35.798 29.6645 36.2448 30.0895C35.8873 30.5817 35.3064 30.9173 34.6585 30.9844C34.0106 31.0291 33.4297 30.8054 32.9828 30.4251C32.4913 30.9396 31.9551 31.4318 31.3965 31.8792C31.7093 31.745 32.0668 31.7003 32.4243 31.7226C33.0722 31.7897 33.6531 32.1253 34.0106 32.6175C33.5637 33.0425 32.9382 33.2886 32.2902 33.2215C31.6646 33.1544 31.1061 32.8412 30.7486 32.3938C30.1901 32.7965 29.6091 33.1768 29.0059 33.5347C29.3187 33.49 29.6538 33.49 29.9666 33.5795C30.5922 33.7361 31.1061 34.1835 31.3742 34.7204C30.8603 35.056 30.2124 35.1902 29.5868 35.0112C28.9836 34.8546 28.5144 34.4519 28.2239 33.9598C27.6207 34.2506 27.0174 34.519 26.3919 34.7651C26.6823 34.7875 26.9504 34.8322 27.2185 34.9665C27.8218 35.2349 28.2239 35.7495 28.4027 36.3311C27.8441 36.5772 27.1962 36.5772 26.5929 36.3088C26.0344 36.0627 25.6546 35.6152 25.4535 35.1007C24.0906 35.5705 22.4149 36.2416 20.5829 37.4721C21.5883 38.0985 22.616 38.8591 23.5544 39.7987L22.482 40C21.6329 39.1723 20.8063 38.4788 20.002 37.8971C19.1976 38.4788 18.371 39.1723 17.522 40L16.4495 39.7987C17.3879 38.8591 18.4157 38.0985 19.4211 37.4721C17.589 36.2193 15.9133 35.5705 14.5504 35.1007C14.3494 35.6152 13.9472 36.0627 13.411 36.3088C12.8301 36.5772 12.1598 36.5772 11.6013 36.3311C11.78 35.7495 12.1822 35.2349 12.7854 34.9665C13.0535 34.8546 13.344 34.7875 13.6121 34.7651C12.9641 34.519 12.3609 34.2506 11.78 33.9598C11.4895 34.4519 11.0204 34.8546 10.4171 35.0112C9.79153 35.1902 9.1436 35.056 8.62973 34.7204C8.89783 34.1835 9.41171 33.7584 10.0373 33.5795C10.3724 33.49 10.6852 33.49 10.998 33.5347C10.3948 33.1768 9.81387 32.7965 9.25531 32.3938C8.87549 32.8412 8.33928 33.1768 7.71369 33.2215C7.04342 33.2663 6.44018 33.0425 5.99334 32.6175C6.35081 32.1253 6.93171 31.7897 7.57964 31.7226C7.95946 31.7003 8.29459 31.745 8.60739 31.8792C8.04883 31.4318 7.51261 30.9396 7.02108 30.4251C6.57424 30.8278 5.97099 31.0291 5.34541 30.9844C4.69748 30.9173 4.11658 30.5817 3.75911 30.0895C4.20595 29.6645 4.83154 29.4184 5.47946 29.4855C5.83694 29.5079 6.17207 29.6421 6.46252 29.8211C5.97099 29.2618 5.52415 28.7025 5.12199 28.0985C4.63046 28.3893 4.00487 28.5012 3.40163 28.3446C2.77604 28.188 2.26217 27.7405 1.99406 27.2036C2.50794 26.868 3.15586 26.7338 3.78145 26.9128C4.11658 27.0023 4.40703 27.1812 4.6528 27.3826C4.29532 26.7786 3.96019 26.1522 3.66974 25.5034C3.13352 25.7047 2.50794 25.7047 1.94938 25.4363C1.34614 25.1454 0.943975 24.6309 0.765237 24.0492C1.32379 23.8032 1.97172 23.8032 2.57496 24.0716C2.86541 24.2058 3.11118 24.4072 3.31226 24.6309C3.06649 24.0045 2.86541 23.3557 2.68667 22.6846C2.12812 22.7965 1.52488 22.6846 1.03334 22.3267C0.497129 21.9463 0.161995 21.3647 0.0949678 20.7607C0.69821 20.6041 1.34614 20.7159 1.88235 21.0962C2.12812 21.2528 2.30686 21.4765 2.46325 21.7003C2.3292 21.0515 2.23983 20.4027 2.19514 19.7316C1.63659 19.7316 1.07803 19.5079 0.653525 19.0828C0.184337 18.613 -0.039086 17.9866 0.00559857 17.3826C0.608841 17.3602 1.23443 17.5616 1.70361 18.0314C1.90469 18.2327 2.03875 18.4564 2.15046 18.7025V18.5459C2.15046 17.9419 2.19514 17.3378 2.26217 16.7338C1.70361 16.6443 1.18974 16.3311 0.854606 15.839C0.474787 15.302 0.385418 14.6533 0.519472 14.0492C1.12271 14.1387 1.70361 14.4519 2.08343 14.9888C2.23983 15.2126 2.3292 15.4586 2.39622 15.7047C2.50794 15.056 2.66433 14.4296 2.84307 13.8032C2.3292 13.6018 1.86001 13.2215 1.61424 12.6622C1.34614 12.0806 1.34614 11.4094 1.5919 10.8054C2.1728 10.9844 2.68667 11.3871 2.95478 11.9911C3.06649 12.2372 3.13352 12.528 3.15586 12.7965C3.37929 12.1701 3.64739 11.566 3.93784 10.962C3.44631 10.6935 3.04415 10.2237 2.88776 9.61972C2.70902 8.99332 2.84307 8.34455 3.17821 7.83001C3.71442 8.09846 4.13892 8.61301 4.31766 9.2394C4.38469 9.5526 4.40703 9.8658 4.36235 10.1566C4.69748 9.5526 5.0773 8.99332 5.47946 8.43404C5.03262 8.07609 4.71982 7.53918 4.67514 6.91278C4.63046 6.24164 4.85388 5.63762 5.27838 5.19019C5.76991 5.54813 6.10505 6.12978 6.17207 6.77855C6.19442 7.1365 6.14973 7.4497 6.03802 7.7629C6.48487 7.22598 6.95406 6.71144 7.46793 6.21927C7.08811 5.79421 6.88703 5.19019 6.93171 4.56379C6.99874 3.91502 7.33387 3.33336 7.8254 2.97542C8.24991 3.42285 8.49567 4.04925 8.42865 4.69802C8.4063 5.05596 8.29459 5.36916 8.11585 5.65999C8.65207 5.19019 9.21063 4.74276 9.81387 4.34008C9.52342 3.84791 9.41171 3.22151 9.5681 2.61748C9.7245 1.99108 10.1713 1.47654 10.7076 1.20808C11.0427 1.72263 11.1768 2.3714 10.998 2.99779C10.9086 3.33336 10.7522 3.62419 10.5512 3.87028C11.1544 3.51233 11.7577 3.17676 12.4056 2.88594C12.2045 2.34902 12.2045 1.745 12.4726 1.18571C12.7407 0.581686 13.2546 0.179001 13.8355 3.05176e-05C14.0589 0.559315 14.0813 1.23046 13.7908 1.87923C13.6791 2.14768 13.5003 2.39377 13.2993 2.57274C13.8578 2.34902 14.4164 2.14768 14.9973 1.99108C15.243 1.49891 15.6676 1.07386 16.2261 0.872514C16.8517 0.6488 17.4996 0.715914 18.0358 1.00674C17.8124 1.5884 17.3656 2.0582 16.74 2.28191C16.2038 2.48325 15.6229 2.43851 15.1313 2.23717C14.4611 2.41614 13.8131 2.63985 13.1876 2.90831C13.545 2.88594 13.9025 2.95305 14.2376 3.10965C14.8409 3.37811 15.243 3.89265 15.4218 4.4743C14.8632 4.72039 14.2153 4.72039 13.6121 4.45193C13.0535 4.20585 12.6737 3.75842 12.4726 3.22151C11.847 3.51234 11.2661 3.82553 10.6852 4.18348C10.9757 4.13873 11.3108 4.13873 11.6236 4.22822C12.2492 4.38482 12.7631 4.83225 13.0312 5.36916C12.5173 5.70473 11.8694 5.83896 11.2438 5.65999C10.6629 5.50339 10.216 5.14544 9.92558 4.67565C9.36702 5.05596 8.83081 5.48102 8.33928 5.90607C8.62973 5.81659 8.94252 5.77184 9.25531 5.79421C9.90324 5.86133 10.4841 6.1969 10.8416 6.68907C10.3948 7.11412 9.76919 7.36021 9.12126 7.2931C8.51802 7.24835 8.00414 6.95753 7.64667 6.55484C7.15514 7.02464 6.68595 7.51681 6.26144 8.03135C6.52955 7.89712 6.82 7.78527 7.15514 7.7629C7.8254 7.71815 8.42865 7.94187 8.87549 8.36692C8.51802 8.85909 7.93712 9.19466 7.28919 9.26178C6.68595 9.30652 6.12739 9.12755 5.70289 8.76961C5.30072 9.32889 4.89856 9.93292 4.56343 10.5369C4.80919 10.3132 5.12199 10.1343 5.45712 10.0448C6.08271 9.8658 6.73063 10 7.2445 10.3356C6.9764 10.8725 6.46252 11.2976 5.83694 11.4765C5.2337 11.6331 4.6528 11.5213 4.16127 11.2528C3.84847 11.924 3.55802 12.5951 3.31226 13.2886C3.51334 12.9978 3.80379 12.7517 4.16127 12.5951C4.74217 12.3267 5.41244 12.3267 5.97099 12.5727C5.79226 13.1544 5.39009 13.6689 4.78685 13.9374C4.22829 14.2058 3.62505 14.2058 3.08884 14.0045C2.86541 14.7204 2.70902 15.4586 2.59731 16.1969C2.7537 15.839 2.99947 15.5258 3.3346 15.302C3.87082 14.9217 4.51874 14.8322 5.12199 14.9665C5.03262 15.5705 4.71982 16.1522 4.18361 16.5325C3.69208 16.8904 3.06649 17.0023 2.50794 16.8904C2.46325 17.4721 2.41857 18.0537 2.41857 18.6578V19.1275C2.53028 18.7696 2.70902 18.434 2.99947 18.1432C3.46866 17.6734 4.09424 17.4497 4.69748 17.4944C4.71982 18.0985 4.51874 18.7249 4.04956 19.1947C3.60271 19.6421 3.04415 19.8434 2.46325 19.8434C2.50794 20.5593 2.59731 21.2752 2.7537 21.9911C2.79839 21.6331 2.9101 21.2752 3.13352 20.962C3.51334 20.4251 4.09424 20.0895 4.69748 20.0224C4.85388 20.6264 4.74217 21.2752 4.36235 21.8121C4.00487 22.3267 3.491 22.6399 2.93244 22.7293C3.11118 23.4005 3.3346 24.0716 3.58037 24.7204C3.55802 24.3848 3.62505 24.0492 3.78145 23.736C4.04956 23.132 4.56343 22.7293 5.14433 22.5504C5.39009 23.1097 5.39009 23.7584 5.12199 24.3624C4.85388 24.9217 4.40703 25.302 3.89316 25.5034C4.16127 26.1298 4.47406 26.7114 4.83154 27.2931C4.78685 26.9799 4.78685 26.6667 4.87622 26.3535C5.03262 25.7271 5.47946 25.2126 6.01568 24.9441C6.35081 25.4586 6.48487 26.1074 6.30613 26.7338C6.14973 27.3155 5.79225 27.7629 5.32307 28.0537C5.70289 28.5906 6.10505 29.1275 6.52955 29.6197C6.44018 29.3289 6.3955 29.0381 6.41784 28.7249C6.48487 28.0761 6.82 27.4944 7.31153 27.1365C7.73604 27.5839 7.9818 28.2103 7.91477 28.8591C7.87009 29.4407 7.57964 29.9553 7.17748 30.3132C7.62432 30.783 8.11585 31.2305 8.62973 31.6555C8.47333 31.3871 8.38396 31.0962 8.36162 30.783C8.31694 30.1119 8.54036 29.5079 8.96486 29.0604C9.45639 29.4184 9.79153 30 9.85855 30.6488C9.92558 31.2305 9.7245 31.7897 9.38937 32.2148C9.94792 32.6175 10.5065 32.9978 11.1097 33.3334C10.9086 33.0873 10.7522 32.8188 10.6629 32.4833C10.4841 31.8569 10.6182 31.2081 10.9533 30.6935C11.4895 30.962 11.914 31.4765 12.0928 32.1029C12.2492 32.6846 12.1598 33.2663 11.8917 33.7584C12.5396 34.094 13.2322 34.3848 13.9249 34.6309C13.6344 34.4296 13.3663 34.1387 13.2099 33.7808C12.9418 33.1991 12.9418 32.528 13.1876 31.9687C13.7685 32.1477 14.2823 32.5504 14.5504 33.1544C14.8185 33.7137 14.8185 34.3401 14.6175 34.877C14.7837 34.9362 14.9605 34.9979 15.1468 35.063C16.4381 35.5136 18.1833 36.1227 19.9796 37.1589C21.9378 36.0293 23.8352 35.387 25.1502 34.9419C25.2155 34.9198 25.2794 34.8982 25.3418 34.877C25.1407 34.3401 25.1407 33.7137 25.4088 33.1544C25.6769 32.5504 26.1908 32.1477 26.7717 31.9687C27.0174 32.528 27.0174 33.1768 26.7493 33.7808C26.5706 34.1164 26.3248 34.4072 26.0344 34.6309C26.7493 34.3848 27.4196 34.094 28.0675 33.7584C27.7994 33.2663 27.7101 32.6846 27.8664 32.1029C28.0228 31.4765 28.4697 30.962 29.0059 30.6935C29.341 31.2081 29.4751 31.8569 29.2964 32.4833C29.207 32.7965 29.0506 33.0873 28.8495 33.3334C29.4528 32.9978 30.0337 32.6175 30.5699 32.2148C30.2347 31.7897 30.056 31.2305 30.1007 30.6488C30.1677 30 30.5028 29.4184 30.9944 29.0604C31.4189 29.5079 31.6646 30.1343 31.5976 30.783C31.5529 31.0962 31.4636 31.3871 31.3295 31.6555C31.8434 31.2305 32.3126 30.783 32.7818 30.3132C32.3796 29.9553 32.0891 29.4407 32.0445 28.8591C31.9998 28.188 32.2232 27.5839 32.6477 27.1365C33.1392 27.4944 33.4744 28.0761 33.5414 28.7249C33.5637 29.0381 33.5191 29.3513 33.4297 29.6197C33.8542 29.1275 34.2564 28.5906 34.6362 28.0537C34.167 27.7629 33.8095 27.3155 33.6531 26.7338C33.4744 26.1074 33.6084 25.4586 33.9436 24.9441C34.4798 25.2126 34.9043 25.7271 35.083 26.3535C35.1724 26.6667 35.1724 26.9799 35.1277 27.2931C35.4628 26.7114 35.798 26.1074 36.0661 25.5034C35.5299 25.302 35.083 24.8994 34.8372 24.3624C34.5691 23.7808 34.5691 23.1097 34.8149 22.5504C35.3958 22.7293 35.9097 23.132 36.1778 23.736C36.3118 24.0492 36.3789 24.3848 36.3789 24.7204C36.647 24.0716 36.8481 23.4005 37.0268 22.7293C36.4682 22.6175 35.9544 22.3043 35.5969 21.8121C35.2171 21.2752 35.1277 20.6264 35.2618 20.0224C35.865 20.1119 36.4459 20.4251 36.8257 20.962C37.0491 21.2752 37.1609 21.6331 37.2055 21.9911C37.3396 21.2976 37.4513 20.5817 37.496 19.8434C36.9151 19.8434 36.3565 19.6421 35.9097 19.1947C35.4405 18.7249 35.2171 18.0985 35.2618 17.4944C35.865 17.4721 36.4906 17.6734 36.9598 18.1432C37.2502 18.4117 37.4513 18.7696 37.5407 19.1275V18.6578C37.5407 18.0537 37.5183 17.4721 37.4513 16.8904C36.8927 17.0023 36.2895 16.8904 35.7756 16.5325C35.2394 16.1522 34.9043 15.5705 34.8372 14.9665C35.4405 14.8099 36.0884 14.9217 36.6246 15.302C36.9598 15.5481 37.2055 15.8613 37.3619 16.1969C37.2502 15.4586 37.0938 14.7204 36.8704 14.0045C36.3342 14.2058 35.7309 14.2058 35.1724 13.9374C34.5691 13.6689 34.167 13.1544 33.9882 12.5727C34.5468 12.3267 35.1947 12.3267 35.798 12.5951C36.1554 12.7517 36.4236 12.9978 36.647 13.2886C36.4012 12.5951 36.1331 11.9016 35.798 11.2528C35.3064 11.5437 34.7032 11.6331 34.1223 11.4765C33.4967 11.3199 32.9828 10.8725 32.7147 10.3356C33.2286 10 33.8765 9.8658 34.5021 10.0448C34.8372 10.1566 35.15 10.3132 35.3958 10.5369C35.0607 9.93292 34.6809 9.32889 34.2564 8.76961C33.8318 9.12755 33.2733 9.30652 32.67 9.26178C32.0221 9.19466 31.4412 8.85909 31.0837 8.36692C31.5306 7.94187 32.1562 7.69578 32.8041 7.7629C33.1169 7.78527 33.4297 7.87475 33.6978 8.03135C33.2509 7.51681 32.8041 7.02464 32.3126 6.55484C31.9328 6.95753 31.4189 7.24835 30.838 7.2931C30.1677 7.33784 29.5645 7.11412 29.1176 6.68907C29.4751 6.1969 30.056 5.86133 30.7039 5.79421C31.0391 5.77184 31.3295 5.81659 31.62 5.90607C31.1061 5.45864 30.5922 5.05596 30.0337 4.67565C29.7432 5.14544 29.2964 5.50339 28.7155 5.65999C28.0899 5.83896 27.4419 5.70473 26.9281 5.36916C27.1962 4.83225 27.7101 4.40719 28.3356 4.22822C28.6484 4.13873 28.9612 4.13873 29.274 4.18348C28.6931 3.82553 28.1122 3.51234 27.4866 3.22151C27.2855 3.73605 26.9057 4.20585 26.3472 4.45193C25.7663 4.72039 25.096 4.72039 24.5374 4.4743C24.7162 3.89265 25.1183 3.37811 25.7216 3.10965C26.0567 2.95305 26.4142 2.88594 26.7717 2.90831C26.1461 2.66222 25.4982 2.41614 24.8279 2.23717C24.3364 2.46088 23.7555 2.48325 23.2193 2.28191C22.616 2.0582 22.1468 1.56603 21.9234 1.00674C22.4596 0.715914 23.1075 0.6488 23.7331 0.872514C24.2917 1.07386 24.7162 1.49891 24.962 1.99108C25.5429 2.14768 26.1014 2.34902 26.66 2.57274C26.4589 2.3714 26.3025 2.14768 26.1684 1.87923C25.9003 1.29757 25.9003 0.626429 26.1461 0.0671446C26.727 0.246116 27.2409 0.6488 27.509 1.25283C27.7771 1.81211 27.7771 2.41614 27.576 2.95305C28.2239 3.24388 28.8272 3.57945 29.4304 3.93739C29.2293 3.69131 29.0729 3.40048 28.9836 3.06491C28.8048 2.43851 28.9389 1.78974 29.274 1.2752C29.8102 1.54365 30.2347 2.0582 30.4135 2.68459C30.5699 3.28862 30.4805 3.91502 30.1677 4.40719C30.771 4.80987 31.3295 5.2573 31.8657 5.7271C31.7093 5.45864 31.5753 5.12307 31.5529 4.76513C31.5082 4.09399 31.7317 3.48996 32.1562 3.04254C32.6477 3.40048 32.9828 3.98213 33.0499 4.6309C33.1169 5.2573 32.8935 5.83896 32.5137 6.28638C33.0275 6.75618 33.4967 7.2931 33.9436 7.83001C33.8318 7.51681 33.7872 7.18124 33.8095 6.84567C33.8765 6.1969 34.2117 5.61524 34.7032 5.2573C35.1277 5.70473 35.3735 6.33113 35.3064 6.9799C35.2618 7.6063 34.949 8.14321 34.5021 8.50115C34.9043 9.06043 35.2841 9.61972 35.6192 10.2237C35.5745 9.91055 35.5745 9.61972 35.6639 9.30652C35.8203 8.68012 36.2672 8.16558 36.8034 7.89712C37.1385 8.41166 37.2726 9.06043 37.0938 9.68683C36.9374 10.2685 36.5353 10.7383 36.0437 11.0291C36.3342 11.6331 36.6023 12.2372 36.8257 12.8636C36.8481 12.5951 36.8927 12.3267 37.0268 12.0582C37.2949 11.4542 37.8088 11.0515 38.3897 10.8725C38.6354 11.4318 38.6354 12.0806 38.3673 12.6846C38.1216 13.2439 37.6747 13.6242 37.1385 13.8255C37.3172 14.4519 37.4736 15.0783 37.5854 15.7271C37.6524 15.481 37.7641 15.2349 37.9205 15.0112C38.3003 14.4743 38.8812 14.1387 39.4844 14.0716C39.6408 14.6756 39.5291 15.3244 39.1493 15.8613C38.7918 16.3535 38.3003 16.6443 37.7417 16.7562C37.8088 17.3602 37.8535 17.9642 37.8535 18.5683V18.7249C37.9652 18.4788 38.0992 18.2551 38.3003 18.0537C38.7695 17.5839 39.3951 17.3602 39.9983 17.405C40.0207 18.009 39.8196 18.6354 39.3504 19.1052C38.9259 19.5302 38.3673 19.7539 37.8088 19.7539C37.7417 20.4251 37.6747 21.0739 37.5407 21.7226ZM22.2462 15.901L20.0014 8.995L17.7567 15.901H10.4926L16.3694 20.1691L14.1247 27.0751L20.0014 22.8069L25.8782 27.0751L23.6335 20.1691L29.5103 15.901H22.2462Z" fill="#61633C"/>
</svg>
