<svg width="56" height="48" viewBox="0 0 56 48" fill="none" xmlns="http://www.w3.org/2000/svg">
<path d="M56 32.5207V19.2572C56 17.307 54.4338 15.7243 52.5038 15.7243C52.039 15.7243 51.5944 15.8162 51.1902 15.9898C51.1397 14.7135 50.5839 13.5699 49.7149 12.7632C50.7961 11.9158 51.4933 10.5884 51.4933 9.09764C51.4933 6.53478 49.432 4.45182 46.8957 4.45182C44.3594 4.45182 42.2981 6.53478 42.2981 9.09764C42.2981 10.3535 42.7932 11.4971 43.6016 12.3344C42.7326 12.8347 41.9848 13.5495 41.4493 14.4378L40.1963 16.5003H36.9527V14.9891C36.9527 11.6094 34.7297 8.75048 31.6781 7.83153C32.244 7.06573 32.5774 6.10594 32.5774 5.08488V4.64582C32.5774 2.08296 30.5161 0 27.9798 0C25.4435 0 23.3822 2.08296 23.3822 4.64582V5.08488C23.3822 6.11615 23.7156 7.06573 24.2815 7.83153C21.24 8.76069 19.0069 11.6197 19.0069 14.9891V16.5003H15.7633L14.5103 14.4378C13.9747 13.5597 13.227 12.8347 12.358 12.3344C13.1664 11.4971 13.6615 10.3535 13.6615 9.09764C13.6615 6.53478 11.6001 4.45182 9.06388 4.45182C6.52761 4.45182 4.50668 6.53478 4.50668 9.08743C4.50668 10.5782 5.2039 11.9056 6.2851 12.753C5.4161 13.5597 4.86034 14.7033 4.80982 15.9796C4.40563 15.8162 3.96102 15.7141 3.49621 15.7141C1.56622 15.7243 0 17.307 0 19.2572V21.4627C0 22.0753 0.485023 22.5654 1.0913 22.5654C1.69758 22.5654 2.18261 22.0753 2.18261 21.4627V19.2572C2.18261 18.522 2.76868 17.9298 3.49621 17.9298C4.22375 17.9298 4.80982 18.522 4.80982 19.2572V28.4263V28.6101C4.80982 31.7549 7.34608 34.3178 10.4583 34.3178H10.9332V36.5437H6.17394C3.97113 36.5437 2.18261 34.7364 2.18261 32.5105V30.2948C2.18261 29.6822 1.69758 29.1921 1.0913 29.1921C0.485023 29.1921 0 29.7026 0 30.305V32.5207C0 35.5839 2.19271 38.1366 5.08264 38.6675V45.7843H1.56622C0.959942 45.7843 0.474919 46.2744 0.474919 46.887C0.474919 47.4997 0.959942 47.9898 1.56622 47.9898H14.6518C16.703 47.9898 18.3703 46.305 18.3703 44.2323V31.5201C18.3703 30.2744 17.9661 29.1308 17.279 28.2017H22.0989V44.4467C22.0989 46.3969 23.6651 47.9796 25.5951 47.9796C26.5247 47.9796 27.3735 47.612 28 47.0096C28.6265 47.612 29.4753 47.9796 30.4049 47.9796C32.3349 47.9796 33.9011 46.3969 33.9011 44.4467V40.2502C33.9011 39.6375 33.4161 39.1474 32.8098 39.1474C32.2035 39.1474 31.7185 39.6375 31.7185 40.2502V44.4467C31.7185 45.1819 31.1324 45.7741 30.4049 45.7741C29.6774 45.7741 29.0913 45.1819 29.0913 44.4467V28.2119H31.7185V31.418C31.7185 32.0306 32.2035 32.5207 32.8098 32.5207C33.4161 32.5207 33.9011 32.0306 33.9011 31.418V28.2119H38.721C38.0339 29.1308 37.6297 30.2846 37.6297 31.5303V44.2425C37.6297 46.3153 39.297 48 41.3483 48H54.4338C55.0401 48 55.5251 47.5099 55.5251 46.8973C55.5251 46.2846 55.0401 45.7945 54.4338 45.7945H50.9174V38.6777C53.7972 38.1366 56 35.5839 56 32.5207ZM52.4937 17.9298C53.2212 17.9298 53.8073 18.522 53.8073 19.2572V32.5207C53.8073 34.7466 52.0188 36.5539 49.816 36.5539H45.0668V34.328H45.5417C48.6539 34.328 51.1902 31.7652 51.1902 28.6203V28.4365V19.2674C51.1902 18.522 51.7763 17.9298 52.4937 17.9298ZM46.8957 6.65731C48.2194 6.65731 49.3006 7.74984 49.3006 9.08743C49.3006 10.425 48.2194 11.5175 46.8957 11.5175C45.572 11.5175 44.4908 10.425 44.4908 9.08743C44.4908 7.74984 45.572 6.65731 46.8957 6.65731ZM40.8228 18.7058C41.2068 18.7058 41.5604 18.5016 41.7524 18.1749L43.3187 15.5814C44.0058 14.4378 45.2588 13.7332 46.5825 13.7332C47.9062 13.7332 48.9874 14.8258 48.9874 16.1634V19.2572V25.1181H44.1776V22.5654L45.8347 19.9209C46.1581 19.4001 46.0065 18.7262 45.4912 18.3995C44.9758 18.0728 44.3089 18.2259 43.9856 18.7466L42.48 21.1461H35.7705C35.1036 21.1461 34.568 20.605 34.568 19.9311C34.568 19.2572 35.1036 18.716 35.7705 18.716L40.8228 18.7058ZM28.9599 9.72048L28.0101 12.3344L27.0603 9.72048H28.9599ZM25.5951 4.63561C25.5951 3.29802 26.6763 2.20549 28 2.20549C29.3237 2.20549 30.4049 3.29802 30.4049 4.63561V5.07466C30.4049 6.41225 29.3237 7.50479 28 7.50479C26.6763 7.50479 25.5951 6.41225 25.5951 5.07466V4.63561ZM24.8271 9.97575L26.9895 15.9183C27.1512 16.3574 27.5554 16.6433 28.0202 16.6433C28.4749 16.6433 28.8892 16.3574 29.0509 15.9183L31.2032 9.97575C33.2847 10.6701 34.7903 12.6509 34.7903 14.9789V16.6433C33.406 17.0721 32.4056 18.3791 32.4056 19.9209C32.4056 20.3497 32.4865 20.7581 32.6279 21.1359H23.4024C23.5438 20.7581 23.6247 20.3497 23.6247 19.9209C23.6247 18.3893 22.6142 17.0823 21.24 16.6433V14.9789C21.2198 12.6407 22.7355 10.6599 24.8271 9.97575ZM14.2476 18.1749C14.4497 18.5016 14.8033 18.7058 15.1772 18.7058H20.2194C20.8863 18.7058 21.4219 19.247 21.4219 19.9209C21.4219 20.5948 20.8863 21.1359 20.2194 21.1359H13.5099L12.0043 18.7364C11.681 18.2157 11.004 18.0625 10.4987 18.3893C9.9834 18.716 9.83183 19.4001 10.1552 19.9107L11.8123 22.5552V25.1078H7.00253V19.247V16.1532C7.00253 14.8156 8.08372 13.723 9.40743 13.723C10.7311 13.723 11.9841 14.4276 12.6712 15.5712L14.2476 18.1749ZM9.10429 6.65731C10.428 6.65731 11.5092 7.74984 11.5092 9.08743C11.5092 10.425 10.428 11.5175 9.10429 11.5175C7.78058 11.5175 6.69939 10.425 6.69939 9.08743C6.69939 7.74984 7.78058 6.65731 9.10429 6.65731ZM7.27535 38.7594H10.9433V44.2323C10.9433 44.7837 11.0646 45.3044 11.2768 45.7843H7.27535V38.7594ZM16.1877 31.5201V44.2323C16.1877 45.09 15.5005 45.7843 14.6518 45.7843C13.803 45.7843 13.1158 45.09 13.1158 44.2323V37.6567V33.2253C13.1158 32.6126 12.6308 32.1225 12.0245 32.1225H10.4583C8.54854 32.1225 6.99242 30.5501 6.99242 28.6203V28.4365V27.3338H11.8224C11.9235 27.8341 12.3681 28.2221 12.8935 28.2221C14.7124 28.2119 16.1877 29.6924 16.1877 31.5201ZM26.9087 44.4569C26.9087 45.1921 26.3226 45.7843 25.5951 45.7843C24.8676 45.7843 24.2815 45.1921 24.2815 44.4569V28.2119H26.9087V44.4569ZM13.9949 25.9962V23.3414H41.9949V25.9962H13.9949ZM39.8123 31.5201C39.8123 29.6924 41.2876 28.2017 43.0964 28.2017C43.6218 28.2017 44.0664 27.8239 44.1674 27.3133H48.9975V28.4161V28.5999C48.9975 30.5297 47.4414 32.1021 45.5316 32.1021H43.9654C43.3591 32.1021 42.8741 32.5922 42.8741 33.2048V37.6362V44.2119C42.8741 45.0696 42.1869 45.7639 41.3381 45.7639C40.4894 45.7639 39.8022 45.0696 39.8022 44.2119L39.8123 31.5201ZM44.7333 45.7843C44.9455 45.3146 45.0668 44.7837 45.0668 44.2323V38.7594H48.7348V45.7741H44.7333V45.7843Z" fill="#61633C"/>
<path d="M32.81 34.7259C32.5271 34.7259 32.2442 34.8382 32.032 35.0526C31.8299 35.2568 31.7086 35.5427 31.7086 35.8388C31.7086 36.1247 31.8299 36.4106 32.032 36.6251C32.2341 36.8293 32.517 36.9518 32.81 36.9518C33.1031 36.9518 33.3759 36.8293 33.5881 36.6251C33.7902 36.4208 33.9114 36.1349 33.9114 35.8388C33.9114 35.5427 33.7902 35.267 33.5881 35.0526C33.386 34.8484 33.1031 34.7259 32.81 34.7259Z" fill="#61633C"/>
<path d="M1.0913 26.9964C1.37423 26.9964 1.65716 26.8739 1.86936 26.6697C2.07145 26.4655 2.19271 26.1796 2.19271 25.8835C2.19271 25.5874 2.07145 25.3117 1.86936 25.0972C1.66727 24.893 1.38434 24.7705 1.0913 24.7705C0.798268 24.7705 0.525442 24.9032 0.323349 25.1075C0.121256 25.3117 0 25.5976 0 25.8937C0 26.1796 0.121256 26.4655 0.323349 26.6799C0.525442 26.8739 0.808372 26.9964 1.0913 26.9964Z" fill="#61633C"/>
</svg>
