<svg width="48" height="48" viewBox="0 0 48 48" fill="none" xmlns="http://www.w3.org/2000/svg">
<path fill-rule="evenodd" clip-rule="evenodd" d="M29.9149 1.946C29.8081 1.03872 29.1871 0.308943 28.3139 0.07226C27.4503 -0.154561 26.5479 0.161016 26.0142 0.900651L0.184544 36.9258C0.0681071 37.0836 0.00018531 37.2808 0.00018531 37.4879C-0.0192209 38.7305 1.48476 39.9632 4.90026 41.5312C7.93733 42.9218 12.0612 44.3517 16.5343 45.545C21.0074 46.7383 25.2865 47.5667 28.605 47.8724C29.5559 47.9611 30.3903 48.0006 31.1084 48.0006C33.2819 48.0006 34.4559 47.5962 34.8635 46.7383C34.9411 46.5805 34.9605 46.403 34.9411 46.2255L29.9149 1.946ZM32.787 43.4444C31.4868 42.6358 30.0701 42.0046 28.6632 41.4129C27.1786 40.7916 25.6746 40.2393 24.1512 39.7364C23.21 39.4208 22.2591 39.125 21.3082 38.839L31.5547 32.7641L32.787 43.4444ZM27.5376 2.03476C27.6346 1.90655 27.7511 1.90655 27.8384 1.92628C27.9257 1.946 28.0325 2.00517 28.0422 2.17282L28.6923 7.85322L19.3773 13.3758L27.5376 2.03476ZM16.6119 17.2318L28.9446 9.92419L30.0216 19.2732L19.6878 25.3973C19.2415 25.6636 19.0862 26.2455 19.3482 26.709C19.6102 27.1626 20.1827 27.3204 20.6387 27.0541L30.2642 21.354L31.3412 30.703L18.8048 38.1289C18.4458 38.0303 18.0868 37.9317 17.7278 37.8429C13.895 36.8469 10.237 36.1368 7.24841 35.8015C7.05435 35.7818 6.86271 35.7621 6.67107 35.7424C6.47944 35.7226 6.2878 35.7029 6.09374 35.6832L14.1279 30.9397C14.5743 30.6734 14.7295 30.0916 14.4675 29.6281C14.2055 29.1744 13.6331 29.0166 13.177 29.2829L4.0949 34.6477L16.6119 17.2318ZM28.0325 45.8902C24.9275 45.545 21.0171 44.7659 17.0097 43.691C13.0024 42.616 9.21814 41.3439 6.35572 40.0914C3.55152 38.8686 2.48418 38.05 2.08635 37.6654C2.65884 37.5175 3.26043 37.4978 3.84262 37.4879C5.14283 37.478 6.44305 37.6062 7.73357 37.7739C9.21814 37.9613 10.693 38.2177 12.1679 38.5135C13.6525 38.8094 15.1176 39.1447 16.5828 39.5194C18.0577 39.8942 19.5228 40.2985 20.988 40.7324C22.7443 41.265 24.4811 41.837 26.1986 42.4878C27.7414 43.0697 29.2745 43.7008 30.7299 44.4701C31.1472 44.687 31.5644 44.9237 31.9622 45.1801C32.2921 45.3971 32.6318 45.6239 32.9131 45.9099C32.3892 46.0578 31.0696 46.2353 28.0325 45.8902ZM7.1999 11.0781L4.19194 10.0623C3.84262 9.94395 3.60004 9.6481 3.55153 9.28321C3.50301 8.91833 3.65826 8.5633 3.95906 8.3562L6.5789 6.55149L6.59831 3.33655C6.60801 2.97166 6.81178 2.63636 7.13198 2.47857C7.45218 2.32078 7.84031 2.36023 8.1217 2.58705L10.6251 4.55941L13.6428 3.58309C13.9824 3.47461 14.3511 3.56337 14.6034 3.82964C14.846 4.08605 14.9236 4.47066 14.8071 4.81582L13.7301 7.84339L15.5737 10.4568C15.7872 10.7526 15.8066 11.1372 15.6416 11.4627C15.467 11.7782 15.137 11.9755 14.778 11.9656L11.6148 11.867L9.74212 14.4607C9.56746 14.7171 9.27637 14.8551 8.98527 14.8551C8.93446 14.8551 8.89104 14.8476 8.8421 14.8391L8.84209 14.8391L8.82032 14.8354C8.47101 14.7762 8.17992 14.51 8.08288 14.1648L7.1999 11.0781ZM8.4516 7.06431C8.4516 7.37988 8.29635 7.67574 8.04407 7.85325L6.5886 8.84929L8.24784 9.41142C8.54863 9.51003 8.77181 9.74672 8.85913 10.0524L9.34429 11.7585L10.3825 10.3187C10.5669 10.0722 10.858 9.92423 11.1685 9.93409L12.9247 9.99326L11.9059 8.54358C11.7313 8.28717 11.6827 7.96173 11.7895 7.66588L12.3814 5.98937L10.7124 6.53177C10.4116 6.63039 10.0914 6.57122 9.84885 6.37398L8.46131 5.27932L8.4516 7.06431ZM44.9347 22.7742L47.5837 24.5986C47.8845 24.8057 48.0397 25.1607 47.9912 25.5157C47.933 25.8806 47.6904 26.1765 47.3508 26.2948L44.3137 27.3204L43.4211 30.4466C43.324 30.7918 43.0329 31.0581 42.6836 31.1172C42.6254 31.137 42.5769 31.137 42.5187 31.137C42.2276 31.137 41.9365 30.989 41.7618 30.7425L39.8697 28.1193L36.6677 28.2179C36.3087 28.2277 35.9691 28.0404 35.8041 27.7149C35.6392 27.3993 35.6586 27.0049 35.872 26.709L37.735 24.0661L36.6483 21.0089C36.5221 20.6637 36.5998 20.289 36.8521 20.0227C37.0946 19.7663 37.4731 19.6677 37.8127 19.7762L40.8594 20.7624L43.392 18.7703C43.6733 18.5434 44.0615 18.504 44.3817 18.6618C44.7116 18.8294 44.9153 19.1549 44.9153 19.5198L44.9347 22.7742ZM42.6448 26.3047C42.7321 25.999 42.965 25.7623 43.2561 25.6637L44.9542 25.1015L43.4793 24.0759C43.227 23.8984 43.0717 23.6026 43.0717 23.287L43.062 21.4724L41.6454 22.5868C41.4028 22.784 41.0729 22.8432 40.7818 22.7446L39.0741 22.1923L39.6757 23.8984C39.7824 24.1943 39.7436 24.5197 39.5592 24.7761L38.521 26.2554L40.3064 26.1962H40.3355C40.6363 26.1962 40.9177 26.3441 41.0923 26.5907L42.15 28.0502L42.6448 26.3047ZM17.8347 28.1488C17.8347 28.6772 17.4134 29.1054 16.8935 29.1054C16.3737 29.1054 15.9523 28.6772 15.9523 28.1488C15.9523 27.6205 16.3737 27.1922 16.8935 27.1922C17.4134 27.1922 17.8347 27.6205 17.8347 28.1488Z" fill="#5C5E3A"/>
</svg>
