<svg width="48" height="48" viewBox="0 0 48 48" fill="none" xmlns="http://www.w3.org/2000/svg">
<path fill-rule="evenodd" clip-rule="evenodd" d="M36.7123 9.82982C39.4257 9.82982 41.6272 7.62825 41.6272 4.91491C41.6272 2.20157 39.4257 0 36.7123 0C33.999 0 31.7974 2.20157 31.7974 4.91491C31.8071 7.61859 34.0087 9.82982 36.7123 9.82982ZM33.6803 4.91491C33.6803 3.24442 35.0418 1.88292 36.7123 1.88292C38.3828 1.88292 39.7443 3.24442 39.7443 4.91491C39.7443 6.5854 38.3828 7.9469 36.7123 7.9469C35.0418 7.9469 33.6803 6.5854 33.6803 4.91491ZM10.3417 10.4864C10.3321 8.37176 8.61332 6.65299 6.50831 6.65299C5.98689 6.65299 5.56202 6.22813 5.56202 5.7067C5.56202 5.19494 5.97723 4.77007 6.49866 4.77007C8.61332 4.76042 10.3321 3.04165 10.3321 0.936636C10.3321 0.424867 10.7666 0.00965883 11.2784 0.00965883C11.7901 0.00965883 12.215 0.424867 12.215 0.946292C12.2247 3.06096 13.9434 4.77973 16.0484 4.77973C16.5602 4.77973 16.9851 5.20459 16.9851 5.71636C16.9851 6.22813 16.5699 6.65299 16.0484 6.65299C13.9338 6.66265 12.215 8.38142 12.215 10.4864C12.215 10.9982 11.7901 11.4231 11.2784 11.4231C10.7666 11.4231 10.3417 11.0079 10.3417 10.4864ZM11.2784 4.06518C10.8439 4.72179 10.2838 5.28184 9.63686 5.7067C10.2838 6.14122 10.8439 6.70127 11.2784 7.34823C11.7129 6.69162 12.2729 6.13157 12.9199 5.7067C12.2633 5.27218 11.7032 4.71213 11.2784 4.06518ZM13.0063 18.4333C13.0063 21.1467 10.8048 23.3482 8.09143 23.3482C5.38775 23.3386 3.18618 21.137 3.17652 18.4333C3.17652 15.72 5.37809 13.5184 8.09143 13.5184C10.8048 13.5184 13.0063 15.72 13.0063 18.4333ZM8.09143 15.4013C6.42094 15.4013 5.05944 16.7628 5.05944 18.4333C5.05944 20.1038 6.42094 21.4653 8.09143 21.4653C9.76192 21.4653 11.1234 20.1038 11.1234 18.4333C11.1234 16.7628 9.76192 15.4013 8.09143 15.4013ZM38.3059 39.7538C36.2009 39.7538 34.4821 38.035 34.4725 35.9203C34.4725 35.3989 34.0476 34.9837 33.5359 34.9837C33.0241 34.9837 32.5992 35.4086 32.5992 35.9203C32.5992 38.0254 30.8805 39.7441 28.7658 39.7538C28.2444 39.7538 27.8292 40.1786 27.8292 40.6904C27.8292 41.2022 28.254 41.6271 28.7658 41.6271C30.8708 41.6271 32.5896 43.3458 32.5992 45.4605C32.5992 45.9819 33.0241 46.3971 33.5359 46.3971C34.0476 46.3971 34.4725 45.9723 34.4725 45.4605C34.4725 43.3555 36.1913 41.6367 38.3059 41.6271C38.8273 41.6271 39.2425 41.2022 39.2425 40.6904C39.2425 40.169 38.8273 39.7538 38.3059 39.7538ZM35.1774 40.6904C34.5304 41.1153 33.9704 41.6753 33.5359 42.3319C33.111 41.685 32.5509 41.1249 31.8943 40.6904C32.5413 40.2656 33.1013 39.7055 33.5359 39.0489C33.9607 39.7055 34.5208 40.2656 35.1774 40.6904ZM17.4774 16.6276C17.9698 16.1448 18.6071 15.8938 19.2734 15.9034C20.6445 15.9228 21.755 17.0622 21.755 18.4333V23.9952C21.755 25.3856 20.6156 26.5251 19.2251 26.5251H13.8081V29.1708L17.8346 33.207C18.3078 33.6705 18.5782 34.3271 18.5782 34.9934V42.2837C18.5782 43.6548 17.4677 44.7846 16.0966 44.8135C15.4206 44.8232 14.793 44.5721 14.3005 44.0893C13.8081 43.5969 13.5184 42.921 13.5184 42.2257V36.3066L11.2686 34.0857L10.2161 35.1382L11.4713 36.3935C11.9445 36.857 12.2149 37.5136 12.2149 38.1799V45.4701C12.2149 46.8413 11.1044 47.971 9.73326 48H9.68498C9.02837 48 8.41038 47.7393 7.93724 47.2758C7.44478 46.7834 7.1551 46.1074 7.1551 45.4122V39.4931L3.92034 36.2486C3.44719 35.7852 3.17683 35.1286 3.17683 34.4623V32.0869H2.52987C1.13941 32.0869 0 30.9475 0 29.557V23.9952C0 23.0972 0.4828 22.2571 1.26494 21.8226C1.55462 21.6488 1.91189 21.6488 2.20157 21.8226C2.50091 21.9867 2.67471 22.2957 2.67471 22.6337C2.67471 22.962 2.49125 23.271 2.20157 23.4448C2.00845 23.5607 1.88292 23.7731 1.88292 24.0048V29.5667C1.88292 29.924 2.1726 30.2136 2.52987 30.2136H6.50815C6.69161 30.2136 6.85577 30.1461 6.98129 30.0109C7.10682 29.8757 7.16476 29.7019 7.1551 29.5184C7.13579 29.1805 6.83645 28.9101 6.47918 28.9101H4.12312C3.61135 28.9101 3.18648 28.4949 3.18648 27.9735V25.5884C3.18648 25.0767 3.61135 24.6518 4.12312 24.6518C4.63488 24.6518 5.05975 25.067 5.05975 25.5884V27.0368H6.50815C7.8793 27.0368 9.00906 28.1473 9.03802 29.5184C9.04768 30.1847 8.79662 30.822 8.31382 31.3144C7.82137 31.8069 7.14545 32.0966 6.45021 32.0966H5.05975V34.4719C5.05975 34.6458 5.12734 34.8099 5.25287 34.9354L8.758 38.4406C8.94146 38.624 9.03802 38.8558 9.03802 39.1068V45.4701C9.03802 45.6536 9.10562 45.8178 9.2408 45.9433C9.37598 46.0688 9.54979 46.1268 9.73326 46.1171C10.0712 46.0978 10.3416 45.7984 10.3416 45.4412V38.1799C10.3416 38.006 10.274 37.8419 10.1485 37.7164L8.22692 35.7948C7.85999 35.4279 7.85999 34.8292 8.22692 34.4623L10.612 32.0773C10.9789 31.7103 11.5776 31.7103 11.9445 32.0773L15.1213 35.2541C15.3048 35.4375 15.4013 35.6693 15.4013 35.9203V42.2837C15.4013 42.4671 15.4689 42.6313 15.6041 42.7568C15.7393 42.8823 15.9131 42.9403 16.0966 42.9306C16.4345 42.9113 16.7049 42.612 16.7049 42.2547V34.9934C16.7049 34.8196 16.6373 34.6554 16.5118 34.5299L12.2052 30.2233C12.0314 30.0398 11.9348 29.8081 11.9348 29.557V25.5788C11.9348 25.067 12.35 24.6421 12.8715 24.6421H19.2348C19.592 24.6421 19.8817 24.3525 19.8817 23.9952V18.4333C19.8817 18.2499 19.8141 18.0857 19.6789 17.9602C19.5438 17.8346 19.37 17.7767 19.1865 17.7864C18.8485 17.8057 18.5782 18.105 18.5782 18.4623V22.4116C18.5782 22.9234 18.163 23.3482 17.6415 23.3482H13.6633C13.1515 23.3482 12.7266 22.9234 12.7266 22.4116C12.7266 21.8998 13.1418 21.475 13.6633 21.475H16.6952V18.4913C16.6952 17.796 16.9753 17.1201 17.4774 16.6276ZM41.965 7.9469H45.4605C46.8509 7.9469 47.9903 9.08631 48 10.4961V15.2662C48 16.6373 46.8895 17.7671 45.5184 17.796C44.8425 17.8057 44.2148 17.5546 43.7224 17.0718C43.2299 16.5794 42.9402 15.9035 42.9402 15.2082V13.026H41.6367V20.9632C41.6367 21.6295 41.3663 22.2764 40.8932 22.7496L38.8461 24.7966L41.8298 27.7803C42.3126 28.2535 42.5733 28.8908 42.5733 29.5667C42.5733 30.2426 42.3029 30.8799 41.8298 31.3531L41.6946 31.4882C41.2022 31.9807 40.5552 32.2318 39.9083 32.2318C39.2613 32.2318 38.6144 31.9807 38.1219 31.4882L33.2166 26.583C32.2317 25.5884 32.2317 23.9855 33.2166 23.0006L34.6071 21.6102L33.5546 20.5576L31.3144 22.7978V28.7653C31.3144 30.1364 30.204 31.2662 28.8328 31.2951C28.1569 31.3048 27.5293 31.0537 27.0368 30.5709C26.5443 30.0785 26.2547 29.4025 26.2547 28.7073V21.4653C26.2547 20.799 26.525 20.1521 26.9982 19.6789L31.0247 15.6524V13.0066H27.1913C25.8008 13.0066 24.6614 11.8672 24.6614 10.4768V4.91491C24.6614 3.54376 25.7719 2.41401 27.143 2.38504C27.8093 2.37538 28.4466 2.62644 28.939 3.10924C29.4315 3.6017 29.7212 4.27762 29.7212 4.97285V7.95656H31.1696C31.6813 7.95656 32.1062 8.37176 32.1062 8.89319C32.1062 9.40496 31.691 9.82982 31.1696 9.82982H28.7845C28.2728 9.82982 27.8479 9.41461 27.8479 8.89319V4.91491C27.8479 4.73145 27.7803 4.5673 27.6451 4.44177C27.5099 4.31624 27.3361 4.2583 27.1527 4.26796C26.8147 4.28727 26.5443 4.58661 26.5443 4.94388V10.4864C26.5443 10.8437 26.834 11.1334 27.1913 11.1334H31.9614C32.4731 11.1334 32.898 11.5486 32.898 12.07V16.0483C32.898 16.2993 32.7918 16.5407 32.618 16.7146L28.3114 21.0211C28.1859 21.1467 28.1183 21.3108 28.1183 21.4846V28.7749C28.1183 28.9584 28.1859 29.1225 28.3211 29.2481C28.4562 29.3736 28.63 29.4315 28.8135 29.4219C29.1515 29.4025 29.4218 29.1032 29.4218 28.7459V22.4116C29.4218 22.1605 29.5281 21.9191 29.7019 21.7453L32.8787 18.5685C33.2456 18.2016 33.8443 18.2016 34.2112 18.5685L36.5962 20.9535C36.9632 21.3205 36.9632 21.9191 36.5962 22.2861L34.5395 24.3428C34.2885 24.5939 34.2885 25.0091 34.5395 25.2601L39.4448 30.1654C39.6958 30.4164 40.111 30.4164 40.3621 30.1654L40.4973 30.0302C40.7483 29.7791 40.7483 29.3639 40.4973 29.1129L36.8473 25.4629C36.4804 25.096 36.4804 24.4973 36.8473 24.1304L39.5606 21.417C39.6862 21.2915 39.7538 21.1273 39.7538 20.9535V12.07C39.7538 11.5582 40.169 11.1334 40.6904 11.1334H43.8672C44.379 11.1334 44.8039 11.5486 44.8039 12.07V15.2372C44.8039 15.4207 44.8714 15.5848 45.0066 15.7103C45.1418 15.8359 45.3156 15.8938 45.4991 15.8841C45.837 15.8648 46.1074 15.5655 46.1074 15.2082V10.4671C46.1074 10.1098 45.8177 9.82016 45.4605 9.82016H41.965C41.4532 9.82016 41.0284 9.40496 41.0284 8.88353C41.0284 8.37176 41.4436 7.9469 41.965 7.9469Z" fill="#5C5E3A"/>
</svg>
