<svg width="54" height="48" viewBox="0 0 54 48" fill="none" xmlns="http://www.w3.org/2000/svg">
<path fill-rule="evenodd" clip-rule="evenodd" d="M27.0092 15.7605C26.7462 15.7605 26.5124 15.6634 26.3274 15.4789L20.0254 9.20575C17.9118 7.10823 17.9118 3.68036 20.0254 1.58284C21.0481 0.563221 22.4118 0 23.8533 0C25.0027 0 26.0839 0.349585 26.9994 1.0002C27.915 0.349585 29.0059 0 30.1455 0C31.5968 0 32.9507 0.563221 33.9832 1.58284C36.0871 3.68036 36.0871 7.09852 33.9832 9.20575L27.691 15.4789C27.5059 15.6634 27.2624 15.7605 27.0092 15.7605ZM27.6813 2.93263C27.4962 3.11714 27.2527 3.21424 26.9994 3.21424C26.7462 3.21424 26.5027 3.11714 26.3176 2.93263C25.665 2.2723 24.7884 1.91301 23.8533 1.91301C22.928 1.91301 22.0514 2.2723 21.3891 2.93263C20.0254 4.29213 20.0254 6.49646 21.3891 7.85596L26.9994 13.4493L32.6098 7.85596C33.9735 6.49646 33.9735 4.29213 32.6098 2.93263C31.9572 2.2723 31.0806 1.91301 30.1455 1.91301C29.2105 1.91301 28.3436 2.2723 27.6813 2.93263ZM26.9903 19.9846C29.961 17.285 33.8182 15.7993 37.8507 15.7993C46.763 15.7993 54 23.0241 54 31.8996C54 40.7752 46.7532 48 37.8507 48C33.8377 48 29.9903 46.5143 27.0097 43.8147C24.039 46.5143 20.1818 48 16.1494 48C7.24675 48 0 40.7752 0 31.8996C0 23.0241 7.24675 15.7993 16.1494 15.7993C20.1623 15.7993 24.0097 17.285 26.9903 19.9846ZM27.2825 34.8808C27.5357 33.9195 27.6721 32.9096 27.6721 31.8996C27.6721 30.5693 27.448 29.268 27.0097 28.0348C26.9123 28.3261 26.8149 28.6174 26.737 28.9088C26.4838 29.8701 26.3474 30.88 26.3474 31.8899C26.3474 33.2203 26.5714 34.5215 27.0097 35.7548L27.0098 35.7547C27.1072 35.4634 27.2046 35.1721 27.2825 34.8808ZM28.1104 38.0174C28.2662 38.2699 28.4318 38.5126 28.6169 38.7554C29.776 36.6676 30.3799 34.2982 30.3701 31.8996C30.3701 24.0728 23.9903 17.7123 16.1396 17.7123C8.28896 17.7123 1.90909 24.0728 1.90909 31.8996C1.90909 35.6868 3.38961 39.2506 6.07792 41.9308C8.77597 44.611 12.3409 46.087 16.1396 46.087C19.6753 46.087 23.0455 44.8052 25.6558 42.4552C25.4806 42.2514 25.3151 42.0475 25.1496 41.8437L25.1494 41.8434C24.7695 42.193 24.3604 42.5134 23.9416 42.8145C23.211 43.3389 22.4221 43.7855 21.5942 44.1546C19.8701 44.912 18.039 45.3004 16.1494 45.3004H16.0032C14.4253 45.281 12.8669 44.9897 11.3961 44.4362C10.1396 43.9603 8.96104 43.3 7.89935 42.4746C6.8474 41.6589 5.92208 40.6878 5.1526 39.6002C3.56494 37.3376 2.71753 34.6769 2.71753 31.8996C2.71753 30.2974 3 28.7242 3.55519 27.2385C3.69156 26.8695 4.05195 26.617 4.4513 26.617C4.55844 26.617 4.67532 26.6364 4.78247 26.6753C5.01623 26.7627 5.21104 26.9375 5.31818 27.1705C5.42532 27.4036 5.43506 27.6561 5.3474 27.8988C4.87013 29.1806 4.62662 30.5207 4.62662 31.8996C4.62662 34.2788 5.35714 36.5608 6.72078 38.5029C7.38312 39.4352 8.17208 40.2703 9.07792 40.9694C9.99351 41.6783 10.9968 42.2415 12.0779 42.6494C13.3734 43.1349 14.7468 43.3874 16.1494 43.3874C17.776 43.3874 19.3442 43.0572 20.8149 42.4066C21.526 42.0959 22.2078 41.7075 22.8312 41.2608C23.2597 40.9597 23.6688 40.6199 24.0487 40.2606C22.5097 37.7455 21.7013 34.8614 21.7013 31.9094C21.7013 28.9476 22.5097 26.0635 24.0487 23.5484C23.0455 22.6065 21.8961 21.8588 20.6396 21.3247C19.2273 20.7226 17.7175 20.4216 16.1591 20.4216C15.2045 20.4216 14.2597 20.5381 13.3442 20.7712C12.4578 20.9945 11.5909 21.3247 10.7825 21.752C9.18506 22.5871 7.79221 23.8106 6.75 25.2769C6.56494 25.5294 6.27273 25.6848 5.96104 25.6848C5.75649 25.6848 5.57143 25.6265 5.40584 25.51C5.2013 25.3643 5.05519 25.141 5.01623 24.8885C4.97727 24.636 5.03571 24.3739 5.18182 24.1699C5.78571 23.3154 6.49675 22.5288 7.28571 21.8394C8.08442 21.1402 8.96104 20.5381 9.88636 20.0526C10.8409 19.5476 11.8442 19.1689 12.8766 18.9067C13.9481 18.6445 15.0487 18.5086 16.1591 18.5086C17.9708 18.5086 19.7338 18.8582 21.3896 19.5573C22.9968 20.2371 24.4286 21.1985 25.6656 22.4317C25.7063 22.4723 25.749 22.517 25.7949 22.5649C25.8478 22.6203 25.9049 22.68 25.9675 22.7425L25.9773 22.7522C27.0584 23.9077 27.9253 25.2284 28.539 26.685C29.2403 28.3358 29.5909 30.0935 29.5909 31.8996C29.5909 33.0746 29.4351 34.2496 29.1331 35.3761C28.8896 36.2889 28.5487 37.1726 28.1104 38.0174ZM25.8993 25.7819C25.7435 25.5294 25.5779 25.2867 25.3929 25.0439C24.2338 27.1317 23.6201 29.4914 23.6299 31.9094C23.6299 39.7362 30.0097 46.0967 37.8604 46.0967C45.711 46.0967 52.0909 39.7362 52.0909 31.9094C52.0909 24.0825 45.711 17.722 37.8604 17.722C34.3247 17.722 30.9545 19.0038 28.3442 21.3538C28.5195 21.5577 28.6851 21.7617 28.8506 21.9656C29.2305 21.616 29.6396 21.2956 30.0584 20.9945C30.7987 20.4701 31.5877 20.0235 32.4156 19.6544C34.1299 18.897 35.961 18.5086 37.8604 18.5086C39.4968 18.5086 41.0942 18.7999 42.6136 19.3728C43.8701 19.8487 45.0487 20.509 46.1104 21.3344C47.1623 22.1501 48.0877 23.1212 48.8571 24.2088C50.4448 26.4714 51.2922 29.1321 51.2922 31.9094C51.2922 33.5116 51.0097 35.075 50.4545 36.5705C50.3182 36.9395 49.9578 37.192 49.5584 37.192C49.4513 37.192 49.3344 37.1726 49.2273 37.1337C48.9838 37.0463 48.7987 36.8715 48.6916 36.6385C48.5844 36.4151 48.5747 36.1529 48.6623 35.9102C49.1396 34.6284 49.3831 33.2883 49.3831 31.9094C49.3831 29.5302 48.6623 27.2482 47.2987 25.3158C46.6461 24.3836 45.8474 23.5484 44.9513 22.8493C44.0455 22.1404 43.0325 21.5772 41.961 21.1693C41.9554 21.1637 41.9531 21.1614 41.9502 21.1604C41.9481 21.1596 41.9457 21.1596 41.9416 21.1596C40.6461 20.6741 39.2727 20.4216 37.8701 20.4216C36.2435 20.4216 34.6753 20.7518 33.2045 21.4024C32.5032 21.7131 31.8214 22.1015 31.1883 22.5482C30.7597 22.8493 30.3506 23.1891 29.9708 23.5484C31.5097 26.0635 32.3182 28.9476 32.3182 31.8996C32.3182 34.8614 31.5097 37.7455 29.9708 40.2606C30.974 41.2025 32.1234 41.9502 33.3799 42.4843C34.8019 43.0864 36.3019 43.3874 37.8604 43.3874C38.8149 43.3874 39.7597 43.2709 40.6753 43.0378C41.5714 42.8145 42.4286 42.4843 43.237 42.057C44.8344 41.2219 46.2273 39.9984 47.2695 38.5321C47.4448 38.2796 47.737 38.1242 48.0487 38.1242C48.2435 38.1242 48.4383 38.1825 48.6039 38.299C49.0325 38.6 49.1299 39.2021 48.8279 39.6294C48.224 40.4839 47.513 41.2705 46.724 41.9599C45.9351 42.6591 45.0584 43.2612 44.1331 43.7467C43.1883 44.2517 42.1753 44.6304 41.1429 44.8926C40.0714 45.1645 38.9708 45.3004 37.8604 45.3004C36.0487 45.3004 34.2857 44.9508 32.6299 44.2517C31.0227 43.5719 29.5909 42.6106 28.3539 41.3773C28.3068 41.3251 28.2569 41.2729 28.2026 41.2162C28.1559 41.1674 28.106 41.1152 28.0519 41.0568L28.0422 41.0471C26.9513 39.8916 26.0844 38.5709 25.4708 37.1143C24.7695 35.4635 24.4188 33.7058 24.4188 31.8996C24.4188 30.7247 24.5747 29.5497 24.8766 28.4232C25.1201 27.5104 25.461 26.6267 25.8993 25.7819Z" fill="#61633C"/>
</svg>
