<svg width="33" height="41" fill="none" xmlns="http://www.w3.org/2000/svg"><path d="M32.119 30.07c-.636-1.13-1.587-1.867-2.805-2.187a4.2 4.2 0 0 0-.88-.144c.04-.424.055-.857.055-1.29 0-.544-.031-1.096-.094-1.633 2.168-.304 3.85-2.146 3.85-4.364 0-2.426-2.012-4.404-4.478-4.404-.244 0-.48.016-.715.056.51-1.25.785-2.603.785-4.028 0-.921-.117-1.834-.353-2.723 1.783-.769 2.97-2.506 2.97-4.468C30.453 2.195 28.221 0 25.48 0a5.008 5.008 0 0 0-4.132 2.17 11.374 11.374 0 0 0-9.333 0A4.984 4.984 0 0 0 7.892 0C5.15 0 2.919 2.194 2.919 4.885a4.857 4.857 0 0 0 2.97 4.468 10.61 10.61 0 0 0-.354 2.723c0 1.425.283 2.778.786 4.028a4.24 4.24 0 0 0-.715-.056c-2.467 0-4.478 1.978-4.478 4.404 0 2.218 1.673 4.06 3.85 4.364a14.236 14.236 0 0 0-.032 2.955h-.094c-.385 0-.778.048-1.163.152-1.225.32-2.168 1.057-2.804 2.186-1.108 1.954-1.053 4.845-.503 6.847C1.034 39.334 3.249 41 5.755 41c.102 0 .212 0 .314-.008h.063a5.602 5.602 0 0 0 4.73-3.14 10.793 10.793 0 0 0 11.43.136c.03.057.054.105.086.161a5.52 5.52 0 0 0 3.433 2.627c.471.12.95.184 1.437.184 2.514 0 4.721-1.666 5.373-4.044.543-2.002.605-4.893-.502-6.847zM4.49 4.884c0-1.81 1.524-3.283 3.402-3.283 1.343 0 2.56.76 3.11 1.945.095.2.26.353.464.417a.777.777 0 0 0 .613-.048 9.804 9.804 0 0 1 9.223 0c.188.104.408.12.612.048a.825.825 0 0 0 .464-.417c.55-1.185 1.767-1.945 3.11-1.945 1.878 0 3.402 1.473 3.402 3.283 0 1.281-.762 2.418-1.925 2.955-.188-.433-.4-.857-.644-1.258a.782.782 0 0 0-1.076-.272.814.814 0 0 0-.267 1.097 9.16 9.16 0 0 1 .793 1.698c.008.016.008.032.016.04.322.937.487 1.922.487 2.923 0 4.877-3.88 8.888-8.79 9.28V15.39c1.139-.4 1.94-1.601 1.94-2.667 0-.584-.267-1.938-2.726-1.938s-2.726 1.354-2.726 1.938c0 1.066.801 2.267 1.94 2.667v5.958c-4.917-.393-8.79-4.404-8.79-9.281 0-1.017.165-2.018.495-2.971a.845.845 0 0 0-.047-.649.776.776 0 0 0-.503-.392C5.543 7.696 4.49 6.39 4.49 4.885zm12.2 22.67a.796.796 0 0 0-.785.8v2.427c-2.663-.392-4.714-2.73-4.714-5.55 0-1.145.346-2.25.974-3.186 1.383.6 2.915.936 4.525.936 1.61 0 3.142-.336 4.525-.936.628.928.974 2.041.974 3.187 0 2.818-2.05 5.157-4.713 5.549v-2.426a.796.796 0 0 0-.786-.801zm-1.155-14.823c0-.08 0-.112.134-.176.118-.064.416-.16 1.029-.16s.903.104 1.03.16c.133.064.133.096.133.176 0 .449-.542 1.202-1.155 1.202-.636 0-1.17-.745-1.17-1.202zM9.275 37.39a3.94 3.94 0 0 1-2.467 1.873c-.26.064-.519.112-.778.128-.086.008-.173.008-.26.008-1.806 0-3.393-1.185-3.856-2.874-.448-1.618-.527-4.068.345-5.614.424-.753 1.03-1.225 1.839-1.433.259-.064.518-.104.77-.104.266 0 .526.04.77.104.015 0 .023.008.038.008 2.027.592 3.48 3.275 3.96 5.045a3.82 3.82 0 0 1-.362 2.858zm12.592-3.324a5.302 5.302 0 0 0-.11 2.379 9.32 9.32 0 0 1-5.067 1.513c-1.925 0-3.778-.6-5.397-1.73a5.51 5.51 0 0 0-.149-2.114c-.573-2.082-2.184-4.997-4.572-5.99-.07-.552-.11-1.113-.11-1.673 0-.76.063-1.522.196-2.258a.825.825 0 0 0-.188-.681.786.786 0 0 0-.636-.264c-.071.008-.142.008-.22.008-1.603 0-2.907-1.258-2.907-2.803 0-1.546 1.304-2.803 2.907-2.803.77 0 1.484.288 2.034.801a11.157 11.157 0 0 0 3.111 2.859 7.315 7.315 0 0 0-1.139 3.924c0 3.971 3.174 7.207 7.07 7.207 3.897 0 7.07-3.235 7.07-7.207 0-1.402-.4-2.763-1.139-3.924a11.156 11.156 0 0 0 3.111-2.859 2.93 2.93 0 0 1 2.035-.8c1.602 0 2.906 1.256 2.906 2.802 0 1.545-1.304 2.803-2.906 2.803-.071 0-.142 0-.22-.008a.767.767 0 0 0-.637.264.818.818 0 0 0-.188.68c.133.737.196 1.498.196 2.259 0 .496-.031.993-.086 1.481-2.608.817-4.368 3.94-4.965 6.134zm9.238 2.419c-.463 1.69-2.05 2.874-3.857 2.874-.353 0-.699-.048-1.045-.136a3.988 3.988 0 0 1-2.466-1.874 3.725 3.725 0 0 1-.354-2.85c.51-1.866 2.098-4.741 4.29-5.125.007 0 .015 0 .023-.008.15-.024.298-.04.456-.04.251 0 .51.032.77.104.809.208 1.406.68 1.838 1.433.872 1.554.793 3.996.345 5.622z" fill="#FF9F00"/><path d="M21.632 11.643c.722 0 1.32-.576 1.32-1.28 0-.706-.59-1.282-1.32-1.282-.723 0-1.32.576-1.32 1.281s.59 1.281 1.32 1.281zm-9.882 0c.722 0 1.319-.576 1.319-1.28 0-.706-.59-1.282-1.32-1.282-.723 0-1.32.576-1.32 1.281s.598 1.281 1.32 1.281zm11.884-5.981c.15.152.354.232.55.232a.8.8 0 0 0 .558-.232.818.818 0 0 0 0-1.138l-.016-.016a.781.781 0 0 0-1.115.016.804.804 0 0 0 .023 1.138c-.008 0 0 0 0 0zM16.69 25.233a.796.796 0 0 0-.785.8v.016c0 .44.353.801.786.801.432 0 .785-.36.785-.8v-.017c0-.44-.353-.8-.785-.8z" fill="#FF9F00"/></svg>