<svg width="48" height="48" viewBox="0 0 48 48" fill="none" xmlns="http://www.w3.org/2000/svg">
<path fill-rule="evenodd" clip-rule="evenodd" d="M47.9344 35.8723L47.044 31.3455C46.6879 29.5272 45.8069 27.8777 44.4948 26.5656L42.9296 25.0098V19.6863C43.9043 19.3021 44.6072 18.3461 44.6072 17.2308C44.6072 16.9309 44.5604 16.6404 44.4666 16.3686C45.5726 16.0593 46.388 15.0377 46.388 13.8287C46.388 13.51 46.3317 13.2007 46.2286 12.9196C47.2596 12.5634 48 11.5793 48 10.4265C48 9.27374 47.2596 8.29903 46.2286 7.93351C46.3317 7.65234 46.388 7.34306 46.388 7.0244C46.388 5.57169 45.2071 4.38142 43.745 4.38142H38.4496C38.937 3.79096 39.1713 3.00369 39.0307 2.20705C38.8995 1.50413 38.5059 0.885556 37.906 0.473176C37.3062 0.0607961 36.5846 -0.0891604 35.8723 0.0514238L31.3455 0.94179C29.5272 1.29794 27.8777 2.17893 26.5656 3.49105L25.0098 5.06559H19.6863C19.3021 4.09087 18.3461 3.38795 17.2308 3.38795C16.9309 3.38795 16.6404 3.43482 16.3686 3.52854C16.0593 2.42261 15.0377 1.60722 13.8287 1.60722C13.51 1.60722 13.2007 1.66346 12.9196 1.76655C12.5634 0.744972 11.5793 0.00456238 10.4359 0.00456238C9.28312 0.00456238 8.29903 0.744972 7.94288 1.77592C7.66171 1.67283 7.35243 1.61659 7.03377 1.61659C5.58107 1.61659 4.39079 2.7975 4.39079 4.25958V9.55491C3.80033 9.06755 3.01306 8.83325 2.21642 8.97383C1.50413 9.09567 0.885556 9.48931 0.473176 10.0891C0.0607961 10.689 -0.0891604 11.4106 0.0514238 12.1229L0.94179 16.6497C1.29794 18.4679 2.17893 20.1175 3.49105 21.4296L5.06559 22.9854V28.3088C4.09087 28.6931 3.38795 29.6491 3.38795 30.7644C3.38795 31.0643 3.43482 31.3548 3.52854 31.6266C2.42261 31.9359 1.60722 32.9575 1.60722 34.1665C1.60722 34.4852 1.66346 34.7945 1.76655 35.0756C0.744972 35.4318 0.00456238 36.4159 0.00456238 37.5593C0.00456238 38.7121 0.744972 39.6868 1.77592 40.0523C1.67283 40.3335 1.61659 40.6427 1.61659 40.9614C1.61659 42.4141 2.7975 43.6044 4.25958 43.6044H9.55491C9.06755 44.1948 8.83325 44.9821 8.97383 45.7788C9.09567 46.4911 9.49868 47.1096 10.0985 47.522C10.5484 47.8313 11.0732 47.9906 11.6074 47.9906C11.7855 47.9906 11.9542 47.9719 12.1323 47.9344L16.6591 47.044C18.4773 46.6879 20.1268 45.8069 21.439 44.4948L23.0041 42.9296H28.3088C28.6931 43.9043 29.6491 44.6072 30.7644 44.6072C31.0643 44.6072 31.3548 44.5604 31.6266 44.4666C31.9359 45.5726 32.9575 46.388 34.1665 46.388C34.4852 46.388 34.7945 46.3317 35.0756 46.2286C35.4318 47.2596 36.4159 48 37.5686 48C38.7214 48 39.6962 47.2596 40.0617 46.2286C40.3428 46.3317 40.6521 46.388 40.9708 46.388C42.4235 46.388 43.6138 45.2071 43.6138 43.745V38.4496C44.2042 38.937 44.9915 39.1713 45.7881 39.0307C46.5004 38.9089 47.119 38.5059 47.5314 37.906C47.9344 37.3062 48.075 36.5846 47.9344 35.8723ZM19.8738 12.3572V9.79859V6.94005H25.4034C25.6565 6.94005 25.8908 6.83695 26.0689 6.66825L27.9058 4.83128C28.9462 3.78159 30.2676 3.07867 31.7203 2.7975L36.2472 1.90713C36.4627 1.86965 36.6783 1.90713 36.8564 2.02897C37.0344 2.15081 37.1563 2.33826 37.1938 2.55382C37.2687 2.9662 37.0063 3.36921 36.5939 3.4723L34.7101 3.93155C34.1196 4.07213 33.7354 4.62509 33.8104 5.22492C33.8853 5.83412 34.3821 6.27462 34.9913 6.27462H43.745C44.1667 6.27462 44.5135 6.62139 44.5135 7.04314C44.5135 7.43678 44.223 7.75543 43.8387 7.8023L38.6558 7.81167C38.1404 7.81167 37.7186 8.23342 37.7186 8.7489C37.7186 9.26437 38.1404 9.68612 38.6558 9.68612L45.357 9.67675C45.7788 9.67675 46.1255 10.0235 46.1255 10.4453C46.1255 10.867 45.7788 11.2138 45.357 11.2138H38.6558C38.1404 11.2138 37.7186 11.6356 37.7186 12.151C37.7186 12.6665 38.1404 13.0883 38.6558 13.0883H43.8481C44.223 13.1351 44.5229 13.4538 44.5229 13.8474C44.5229 14.2692 44.1761 14.6159 43.7543 14.6159H38.6558C38.1404 14.6159 37.7186 15.0377 37.7186 15.5532C37.7186 16.0686 38.1404 16.4904 38.6558 16.4904H42.0673C42.4422 16.5373 42.7421 16.8559 42.7421 17.2495C42.7421 17.6713 42.3954 18.0181 41.9736 18.0181H32.5076C30.5207 18.0181 28.665 17.2495 27.2591 15.8437L26.0595 14.6347C25.8814 14.4566 25.6471 14.3629 25.3941 14.3629H19.8644V12.3572H19.8738ZM4.82191 20.0987C3.77222 19.0584 3.0693 17.7369 2.78813 16.2842L1.89776 11.7574C1.86027 11.5418 1.89776 11.3263 2.0196 11.1482C2.14144 10.9701 2.32889 10.8483 2.54445 10.8108C2.95683 10.7358 3.35984 10.9982 3.46293 11.4106L3.92217 13.2944C4.06276 13.8849 4.61572 14.2598 5.21555 14.1942C5.82475 14.1192 6.26524 13.6225 6.26524 13.0133V4.2502C6.26524 3.82845 6.61202 3.48168 7.03377 3.48168C7.42741 3.48168 7.74606 3.77222 7.79292 4.15648L7.8023 9.33935C7.8023 9.85483 8.22405 10.2766 8.73952 10.2766C9.255 10.2766 9.67675 9.85483 9.67675 9.33935V4.2502C9.67675 4.19397 9.67675 4.13774 9.66738 4.0815V2.64754C9.66738 2.22579 10.0142 1.87902 10.4359 1.87902C10.8577 1.87902 11.2044 2.22579 11.2044 2.64754V4.09087C11.2044 4.11899 11.2021 4.14711 11.1997 4.17523C11.1974 4.20334 11.1951 4.23146 11.1951 4.25958L11.2044 9.35809C11.2044 9.87357 11.6262 10.2953 12.1417 10.2953C12.6571 10.2953 13.0789 9.87357 13.0789 9.35809V4.16585C13.1257 3.79096 13.4444 3.49105 13.838 3.49105C14.2598 3.49105 14.6066 3.83782 14.6066 4.25958V8.85199V9.35809C14.6066 9.87357 15.0283 10.2953 15.5438 10.2953C16.0593 10.2953 16.481 9.87357 16.481 9.35809V5.94659C16.5279 5.57169 16.8465 5.27178 17.2402 5.27178C17.6619 5.27178 18.0087 5.61856 18.0087 6.04031V15.5063C18.0087 17.4557 17.2121 19.3771 15.8343 20.7548L14.6347 21.9357C14.4566 22.1138 14.3629 22.3481 14.3629 22.6011V28.1308H12.4884V25.6377C12.4884 25.1223 12.0667 24.7005 11.5512 24.7005C11.0357 24.7005 10.614 25.1223 10.614 25.6377V28.1214H6.94005V22.5917C6.94005 22.3387 6.83695 22.1044 6.66825 21.9263L4.82191 20.0987ZM28.1214 41.0551H22.5917C22.3387 41.0551 22.1044 41.1582 21.9263 41.3269L20.0893 43.1639C19.049 44.2136 17.7275 44.9165 16.2748 45.1977L11.748 46.088C11.5325 46.1349 11.3169 46.088 11.1388 45.9662C10.9608 45.8444 10.8389 45.6569 10.8014 45.4414C10.7264 45.029 10.9889 44.626 11.4012 44.5229L13.2851 44.0636C13.8755 43.9137 14.2504 43.3701 14.1848 42.7703C14.1098 42.1611 13.6131 41.7206 13.0039 41.7206H4.2502C3.82845 41.7206 3.48168 41.3738 3.48168 40.952C3.48168 40.5584 3.78159 40.2397 4.15648 40.1929L9.33935 40.1835C9.85483 40.1835 10.2766 39.7618 10.2766 39.2463C10.2766 38.7308 9.85483 38.3091 9.33935 38.3091L2.63817 38.3184C2.21642 38.3184 1.86965 37.9717 1.86965 37.5499C1.86965 37.1281 2.21642 36.7814 2.63817 36.7814H9.33935C9.85483 36.7814 10.2766 36.3596 10.2766 35.8441C10.2766 35.3287 9.85483 34.9069 9.33935 34.9069H4.16585C3.79096 34.8601 3.49105 34.5414 3.49105 34.1478C3.49105 33.726 3.83782 33.3792 4.25958 33.3792H9.35809C9.87357 33.3792 10.2953 32.9575 10.2953 32.442C10.2953 31.9265 9.87357 31.5048 9.35809 31.5048H5.94659C5.57169 31.4579 5.27178 31.1393 5.27178 30.7456C5.27178 30.3239 5.61856 29.9771 6.04031 29.9771H15.5063C17.4932 29.9771 19.3489 30.755 20.7548 32.1515L21.9451 33.3417C22.1231 33.5198 22.3574 33.6135 22.6105 33.6135H28.1401V41.0551H28.1214ZM28.1495 31.7672H22.9854L22.0763 30.8487C20.4924 29.2648 18.4398 28.3182 16.2373 28.1495V22.9854L17.1558 22.0763C18.7116 20.5205 19.677 18.4211 19.855 16.2373H25.0192L25.9283 17.1558C27.5122 18.7397 29.5647 19.6863 31.7672 19.855V25.0192L30.8487 25.9283C29.2648 27.5028 28.3182 29.5553 28.1495 31.7672ZM45.9756 36.847C45.8537 37.0251 45.6663 37.1469 45.4507 37.1844C45.0383 37.2594 44.6353 36.9969 44.5322 36.5846L44.073 34.7007C43.923 34.1103 43.3795 33.7354 42.7796 33.801C42.1704 33.876 41.7299 34.3727 41.7299 34.9819V43.7356C41.7299 44.1574 41.3832 44.5041 40.9614 44.5041C40.5678 44.5041 40.2491 44.2042 40.2023 43.8293L40.1929 38.6465C40.1929 38.131 39.7711 37.7092 39.2557 37.7092C38.7402 37.7092 38.3184 38.131 38.3184 38.6465L38.3278 45.3476C38.3278 45.7694 37.981 46.1162 37.5593 46.1162C37.1375 46.1162 36.7907 45.7694 36.7907 45.3476V38.6465C36.7907 38.131 36.369 37.7092 35.8535 37.7092C35.338 37.7092 34.9163 38.131 34.9163 38.6465V43.8293C34.8694 44.2042 34.5508 44.5041 34.1571 44.5041C33.7354 44.5041 33.3886 44.1574 33.3886 43.7356V38.6371C33.3886 38.1216 32.9669 37.6999 32.4514 37.6999C31.9359 37.6999 31.5142 38.1216 31.5142 38.6371V42.0486C31.4673 42.4235 31.1486 42.7234 30.755 42.7234C30.3332 42.7234 29.9865 42.3766 29.9865 41.9549V38.1872V35.6286V32.4889C29.9865 30.5019 30.7644 28.6462 32.1608 27.2404L33.3511 26.0501C33.5292 25.872 33.6229 25.6377 33.6229 25.3847V19.855H35.6192H37.2406V22.6948C37.2406 23.2103 37.6624 23.6321 38.1778 23.6321C38.6933 23.6321 39.1151 23.2103 39.1151 22.6948V19.8738H41.0551V25.4034C41.0551 25.6565 41.1582 25.8908 41.3269 26.0689L43.1639 27.9058C44.2136 28.9462 44.9165 30.2676 45.1977 31.7203L46.088 36.2472C46.1443 36.4533 46.0974 36.6689 45.9756 36.847ZM38.1943 25.3125C37.9506 25.3125 37.7068 25.4156 37.5287 25.5844C37.3506 25.7625 37.2568 25.9969 37.2568 26.25C37.2568 26.4938 37.3599 26.7375 37.5287 26.9156C37.7068 27.0938 37.9412 27.1875 38.1943 27.1875C38.4381 27.1875 38.6818 27.0844 38.8599 26.9156C39.0381 26.7375 39.1318 26.5031 39.1318 26.25C39.1318 25.9969 39.0287 25.7625 38.8599 25.5844C38.6818 25.4063 38.4474 25.3125 38.1943 25.3125ZM12.2064 22.7719C12.0283 22.9406 11.7845 23.0438 11.5408 23.0438C11.297 23.0438 11.0533 22.95 10.8751 22.7719C10.7064 22.5938 10.6033 22.35 10.6033 22.1063C10.6033 21.8531 10.697 21.6188 10.8751 21.4406C11.0533 21.2719 11.297 21.1688 11.5408 21.1688C11.7939 21.1688 12.0283 21.2625 12.2064 21.4406C12.3751 21.6188 12.4783 21.8625 12.4783 22.1063C12.4783 22.3594 12.3845 22.5938 12.2064 22.7719Z" fill="#5C5E3A"/>
</svg>
