<svg width="48" height="48" viewBox="0 0 48 48" fill="none" xmlns="http://www.w3.org/2000/svg">
<path fill-rule="evenodd" clip-rule="evenodd" d="M38.8798 0.389216L47.8231 12.8441C48.0274 13.136 48.0566 13.5058 47.9009 13.8269C47.7355 14.1383 47.4143 14.3329 47.064 14.3329H45.7697V32.0422C45.7697 33.6477 44.4657 34.9516 42.86 34.9516H41.1278V43.2029C41.1278 43.7187 40.7093 44.1371 40.1935 44.1371H36.0674C35.5516 44.1371 35.1331 43.7187 35.1331 43.2029V34.9418H33.4009C31.7952 34.9418 30.4912 33.638 30.4912 32.0325V14.3231H29.1969C28.8466 14.3231 28.5254 14.1285 28.36 13.8172C28.1946 13.5058 28.2238 13.1263 28.4281 12.8441L37.3617 0.389216C37.5368 0.145956 37.8191 0 38.1207 0C38.4224 0 38.7046 0.145956 38.8798 0.389216ZM37.0016 42.2688H39.2496V34.9516H37.0016V42.2688ZM42.8503 33.0736C43.4147 33.0736 43.8818 32.6163 43.8818 32.0422H43.8915V29.5804L40.3979 33.0736H42.8503ZM37.7412 33.0736L43.8818 26.9337H43.8915V22.8664L33.6832 33.0736H36.0576H37.7412ZM32.3597 31.7503L43.8818 20.2198H43.8915V14.3329H38.9966L32.3694 20.9593L32.3597 20.969V25.0363L38.8798 18.5169C39.2399 18.1472 39.8335 18.1472 40.2033 18.5169C40.5731 18.877 40.5731 19.4705 40.2033 19.8403L32.3597 27.683V31.7503ZM32.3597 14.3329V18.3126L36.3399 14.3329H32.3597ZM31.4157 12.4549H44.8258H45.2345L38.1207 2.53963L31.007 12.4549H31.4157ZM28.3408 36.4111L27.1146 37.6371L32.9438 43.4851C33.119 43.6603 33.2163 43.8938 33.2163 44.1468C33.2163 44.39 33.119 44.6333 32.9438 44.8084L30.0244 47.7276C29.8395 47.9124 29.6059 48 29.3626 48C29.1193 48 28.8858 47.9124 28.7009 47.7276L22.862 41.8893L21.6358 43.1154C21.0908 43.67 20.3609 43.9716 19.5824 43.9716C18.8136 43.9716 18.074 43.6603 17.5291 43.1154L5.00458 30.5923L4.08982 31.507C3.91465 31.6822 3.67136 31.7795 3.42807 31.7795C3.34049 31.7795 3.24317 31.76 3.14586 31.7308C2.80525 31.6238 2.56197 31.3416 2.50358 30.9913L0.0123031 15.8605C-0.0363546 15.5589 0.0609608 15.2573 0.275055 15.0432C0.489148 14.8291 0.790826 14.7318 1.0925 14.7805L16.225 17.2617C16.5754 17.3201 16.8576 17.5731 16.9646 17.9039C17.0717 18.2445 16.9841 18.6045 16.7311 18.8575L15.8163 19.7722L28.3408 32.2952C29.4794 33.4336 29.4794 35.2727 28.3408 36.4111ZM27.0076 33.6185L25.2754 31.8865V36.8101L27.0076 35.0781C27.4066 34.6791 27.4066 34.0174 27.0076 33.6185ZM6.3378 29.2496L9.15022 32.0616V26.4375L6.3378 29.2496ZM11.0187 33.9299L13.8992 36.8101V21.6793L11.0187 24.5595V33.9201V33.9299ZM4.35257 28.5879L13.8311 19.1105L14.1133 18.8186L2.07539 16.8433L4.06062 28.8798L4.35257 28.5879ZM22.2099 39.8849L23.3972 38.6978V30.0085L20.5264 27.1381V35.5354C20.5264 36.0511 20.1079 36.4695 19.5922 36.4695C19.0764 36.4695 18.6579 36.0511 18.6579 35.5354V25.2698L15.7774 22.3896V38.688L18.8623 41.7726C19.0569 41.9672 19.3197 42.0742 19.5922 42.0742C19.8646 42.0742 20.1274 41.9672 20.322 41.7726L22.2099 39.8849ZM24.1952 40.5465L29.3724 45.7231L30.9586 44.1371L25.7814 38.9605L24.1952 40.5465ZM4.69326 3.22141C5.20908 3.22141 5.62757 2.80292 5.62757 2.2871V0.934307C5.62757 0.418491 5.20908 0 4.69326 0C4.17745 0 3.75896 0.418491 3.75896 0.934307V2.2871C3.74922 2.80292 4.16772 3.22141 4.69326 3.22141ZM5.62757 8.43672C5.62757 8.95254 5.20908 9.37103 4.69326 9.37103C4.16772 9.37103 3.74922 8.95254 3.75896 8.43672V7.08393C3.75896 6.56811 4.17745 6.14962 4.69326 6.14962C5.20908 6.14962 5.62757 6.56811 5.62757 7.08393V8.43672ZM7.08812 5.62454H8.44091C8.95673 5.62454 9.37522 5.20605 9.37522 4.69024C9.37522 4.17442 8.95673 3.75593 8.44091 3.75593H7.08812C6.5723 3.75593 6.15381 4.17442 6.15381 4.69024C6.15381 5.20605 6.5723 5.62454 7.08812 5.62454ZM2.2893 5.62454H0.936504C0.420689 5.62454 0.00219726 5.20605 0.00219726 4.69024C0.00219726 4.17442 0.420689 3.75593 0.936504 3.75593H2.2893C2.80512 3.75593 3.22361 4.17442 3.22361 4.69024C3.22361 5.20605 2.80512 5.62454 2.2893 5.62454ZM17.393 10.4504L16.9745 12.883C16.9161 13.2333 17.0621 13.5933 17.3443 13.7977C17.6265 14.002 18.0158 14.0312 18.3272 13.8658L20.5168 12.7176L22.7064 13.8658C22.8426 13.9339 22.9886 13.9728 23.1443 13.9728C23.339 13.9728 23.5336 13.9144 23.699 13.7977C23.991 13.5836 24.1369 13.2333 24.0688 12.883L23.6504 10.4504L25.4215 8.72815C25.6745 8.47515 25.7718 8.1054 25.6551 7.76484C25.548 7.42427 25.2561 7.18101 24.896 7.12263L22.4534 6.77234L21.3635 4.55381C21.2077 4.2327 20.8769 4.02837 20.5265 4.02837C20.1665 4.02837 19.8453 4.2327 19.6896 4.55381L18.59 6.77234L16.1473 7.12263C15.797 7.17128 15.5051 7.42427 15.3883 7.76484C15.2812 8.1054 15.3688 8.47515 15.6218 8.72815L17.393 10.4504ZM19.349 8.553C19.6507 8.50435 19.9135 8.31947 20.0594 8.03729L20.5265 7.08371L20.9937 8.03729C21.1299 8.30974 21.3926 8.50435 21.7041 8.553L22.7551 8.70868L21.996 9.44819C21.7722 9.66226 21.6749 9.97364 21.7235 10.2753L21.8987 11.3262L20.9547 10.8299C20.6822 10.684 20.3514 10.684 20.0789 10.8299L19.1349 11.3262L19.3101 10.2753C19.3588 9.97364 19.2614 9.66226 19.0376 9.44819L18.2786 8.70868L19.349 8.553ZM7.11626 40.7801L9.55888 41.1304C9.90921 41.1888 10.2109 41.432 10.3082 41.7726C10.425 42.1131 10.3277 42.4829 10.0747 42.7359L8.30351 44.4582L8.72197 46.8908C8.79009 47.2411 8.64412 47.5914 8.35217 47.8054C8.06995 48.0098 7.68069 48.039 7.36928 47.8735L5.19915 46.7254L3.00955 47.8735C2.87331 47.9417 2.71761 47.9806 2.57163 47.9806C2.377 47.9806 2.18237 47.9222 2.01694 47.8054C1.73472 47.6011 1.58875 47.2411 1.64714 46.8908L2.06559 44.4582L0.294454 42.7359C0.0414338 42.4829 -0.04615 42.1131 0.0608969 41.7726C0.177675 41.432 0.469622 41.179 0.819957 41.1304L3.26257 40.7801L4.35251 38.5616C4.50821 38.2404 4.82935 38.0361 5.18942 38.0361C5.53975 38.0361 5.87063 38.2404 6.02633 38.5616L7.11626 40.7801ZM6.37667 44.283C6.32801 43.9814 6.42532 43.67 6.64915 43.4559L7.38875 42.7164L6.33774 42.5607C6.02633 42.5121 5.76358 42.3175 5.62734 42.045L5.16022 41.0915L4.69311 42.045C4.54714 42.3272 4.28439 42.5121 3.98271 42.5607L2.9317 42.7164L3.69076 43.4559C3.91459 43.67 4.0119 43.9814 3.96324 44.283L3.78808 45.3339L4.73204 44.8377C5.00452 44.6917 5.33539 44.6917 5.60787 44.8377L6.55183 45.3339L6.37667 44.283ZM42.1887 17.4567C42.432 17.4567 42.6753 17.3594 42.8505 17.1842C43.0257 17.009 43.123 16.7657 43.123 16.5224C43.123 16.2791 43.0257 16.0358 42.8505 15.8606C42.6753 15.6854 42.432 15.5881 42.1887 15.5881C41.9454 15.5881 41.7021 15.6854 41.5269 15.8606C41.3517 16.0358 41.2544 16.2791 41.2544 16.5224C41.2544 16.7657 41.3517 17.009 41.5269 17.1842C41.7021 17.3594 41.9454 17.4567 42.1887 17.4567ZM18.95 38.62C19.1252 38.4448 19.3685 38.3475 19.6118 38.3475C19.8551 38.3475 20.0984 38.4448 20.2736 38.62C20.4488 38.7952 20.5461 39.0385 20.5461 39.2818C20.5461 39.5251 20.4488 39.7684 20.2736 39.9436C20.0984 40.1188 19.8551 40.2161 19.6118 40.2161C19.3685 40.2161 19.1252 40.1188 18.95 39.9436C18.7748 39.7684 18.6775 39.5251 18.6775 39.2818C18.6775 39.0385 18.7748 38.7952 18.95 38.62Z" fill="#5C5E3A"/>
</svg>
