<svg width="48" height="48" viewBox="0 0 48 48" fill="none" xmlns="http://www.w3.org/2000/svg">
<path d="M46.5938 3.46875H40.4344C40.4531 2.78437 40.4719 2.1 40.4719 1.40625C40.4719 0.628125 39.8438 0 39.0656 0H8.93438C8.15625 0 7.52813 0.628125 7.52813 1.40625C7.52813 2.1 7.5375 2.78437 7.56562 3.46875H1.40625C0.628125 3.46875 0 4.09688 0 4.875C0 11.175 1.65 17.1188 4.64062 21.6188C7.59375 26.0625 11.5312 28.6125 15.7875 28.8562C16.7531 29.9062 17.775 30.7594 18.8344 31.4156V37.6687H16.4719C13.6219 37.6687 11.2969 39.9938 11.2969 42.8438V45.1875H11.1938C10.4156 45.1875 9.7875 45.8156 9.7875 46.5938C9.7875 47.3719 10.4156 48 11.1938 48H36.7969C37.575 48 38.2031 47.3719 38.2031 46.5938C38.2031 45.8156 37.575 45.1875 36.7969 45.1875H36.6937V42.825C36.6937 39.975 34.3781 37.65 31.5188 37.65H29.1562V31.4062C30.2156 30.75 31.2375 29.8969 32.2031 28.8469C36.4594 28.6031 40.3969 26.0531 43.35 21.6094C46.35 17.1187 48 11.175 48 4.875C48 4.09688 47.3719 3.46875 46.5938 3.46875ZM6.975 20.0531C4.50938 16.35 3.06562 11.4937 2.84062 6.28125H7.725C8.23125 12.7031 9.74063 18.6281 12.0938 23.3438C12.4688 24.0938 12.8625 24.8063 13.2656 25.4719C10.9312 24.5813 8.76562 22.7344 6.975 20.0531ZM33.8906 42.825V45.1875H14.1094V42.825C14.1094 41.5219 15.1687 40.4625 16.4719 40.4625H31.5375C32.8312 40.4719 33.8906 41.5312 33.8906 42.825ZM26.3625 37.6594H21.6469V32.625C22.4156 32.8312 23.2031 32.9344 24.0094 32.9344C24.8156 32.9344 25.5937 32.8312 26.3719 32.625V37.6594H26.3625ZM27.2344 29.2781C27.1688 29.3062 27.1125 29.3344 27.0563 29.3719C26.0625 29.8687 25.0406 30.1219 24.0094 30.1219C22.9781 30.1219 21.9563 29.8687 20.9625 29.3719C20.9062 29.3344 20.8406 29.3062 20.775 29.2781C19.6688 28.6969 18.6094 27.8156 17.5969 26.6625C17.5406 26.5875 17.4844 26.5125 17.4188 26.4563C16.4156 25.2656 15.4781 23.8031 14.6156 22.0875C12.0281 16.9219 10.5375 10.125 10.3687 2.82188H37.65C37.4813 10.125 35.9906 16.9219 33.4031 22.0875C32.5406 23.8125 31.6031 25.275 30.6 26.4563C30.5344 26.5219 30.4688 26.5875 30.4219 26.6625C29.4 27.8156 28.3312 28.6969 27.2344 29.2781ZM41.025 20.0531C39.2438 22.7344 37.0781 24.5813 34.7344 25.4625C35.1375 24.7969 35.5312 24.0844 35.9062 23.3344C38.2594 18.6281 39.7687 12.6938 40.275 6.27188H45.1594C44.9344 11.4938 43.4906 16.35 41.025 20.0531Z" fill="#61633C"/>
</svg>
