<svg width="48" height="48" viewBox="0 0 48 48" fill="none" xmlns="http://www.w3.org/2000/svg">
<path d="M28.2197 10.0382C28.2197 9.26472 27.5843 8.62933 26.8108 8.62933H21.1889C20.4154 8.62933 19.78 9.26472 19.78 10.0382C19.78 10.8118 20.4154 11.4472 21.1889 11.4472H26.8108C27.5843 11.4472 28.2197 10.8118 28.2197 10.0382Z" fill="#61633C"/>
<path d="M42.2538 37.6844C42.019 35.5853 40.2233 33.942 38.0685 33.942C36.2866 33.942 34.7672 35.0468 34.1456 36.6072C33.6207 36.4691 33.1235 36.2206 32.6814 35.8891C37.1292 31.5944 39.3255 24.5516 39.4498 18.3374C39.6432 8.83649 35.154 0.385129 25.554 0.012275C25.0014 -0.0153438 23.1229 0.012275 22.8466 0.012275C13.1776 0.150369 8.46734 8.39459 8.55022 17.9783C8.59166 24.1511 10.6912 31.1111 14.9042 35.461L13.6334 36.1239C12.9151 34.8258 11.5338 33.942 9.94532 33.942C7.77669 33.942 5.99482 35.5853 5.76 37.6844C2.27914 39.3001 0 42.7662 0 46.5914C0 47.3648 0.635396 48 1.40892 48H46.5911C47.3646 48 48 47.3648 48 46.5914C48 42.7662 45.7347 39.3001 42.2538 37.6844ZM5.71856 45.1829H2.95597C3.31511 43.4843 4.30964 41.9791 5.71856 40.9434V45.1829ZM11.3404 45.1829H8.5364V38.1539C8.5364 37.3806 9.1718 36.7453 9.94532 36.7453C10.7188 36.7453 11.3542 37.3806 11.3542 38.1539V45.1829H11.3404ZM32.9715 31.0835C31.756 32.9754 30.1813 34.6739 28.2199 35.6958V32.5335C28.2199 31.9811 28.1094 31.4425 27.916 30.9592C29.7807 30.8073 31.7422 30.5311 33.5655 30.1168C33.3721 30.4482 33.1787 30.7658 32.9715 31.0835ZM36.6319 18.2683C36.5767 21.1959 36.0242 24.1373 35.0711 26.7611C32.5847 27.6311 29.3525 28.073 26.5209 28.2387L33.5102 16.5836C34.6153 16.4593 35.6512 16.3212 36.5767 16.1555C36.6319 16.8598 36.6458 17.564 36.6319 18.2683ZM23.2058 28.3078C21.6863 28.2802 19.9735 28.1697 18.2607 27.9487L24.7942 17.0669C26.6176 17.0531 28.3856 16.984 30.057 16.8874L23.2058 28.3078ZM25.402 32.5335V36.6348C24.9462 36.7039 24.4765 36.7453 23.9931 36.7453C23.5096 36.7453 23.04 36.7039 22.5842 36.6348V32.5335C22.5842 31.7601 23.2196 31.1249 23.9931 31.1249C24.7804 31.1249 25.402 31.7601 25.402 32.5335ZM22.9019 2.81559C23.2886 2.81559 25.0153 2.80178 25.4435 2.81559C32.0046 3.07797 35.1954 7.84221 36.2452 13.3522C33.1511 13.9184 28.7171 14.2498 24.0069 14.2498C19.2967 14.2498 14.8627 13.9184 11.7686 13.3522C12.8322 7.77317 16.1335 2.92606 22.9019 2.81559ZM11.3542 17.9507C11.3542 17.3569 11.3681 16.7493 11.4095 16.1417C14.103 16.625 17.6806 16.9288 21.5344 17.0255L15.3047 27.4102C14.4622 27.2306 13.661 27.0097 12.9289 26.7473C11.9206 23.9992 11.3819 20.9335 11.3542 17.9507ZM14.4345 30.103C16.244 30.5173 18.2055 30.7935 20.084 30.9454C19.8906 31.4287 19.7801 31.9673 19.7801 32.5196V35.682C17.6253 34.5496 15.8158 32.5611 14.4345 30.103ZM33.8417 45.1829H14.1583V39.0101L17.2247 37.422C19.3381 38.8582 21.6449 39.5624 24.0069 39.5624C26.286 39.5624 28.4547 38.9272 30.4437 37.6567C31.3968 38.5406 32.5709 39.162 33.8555 39.4244V45.1829H33.8417ZM39.4636 45.1829H36.6458V38.1539C36.6458 37.3806 37.2812 36.7453 38.0547 36.7453C38.8282 36.7453 39.4636 37.3806 39.4636 38.1539V45.1829ZM42.2814 45.1829V40.9434C43.6904 41.9791 44.6849 43.4843 45.044 45.1829H42.2814Z" fill="#61633C"/>
</svg>
