<svg width="52" height="48" viewBox="0 0 52 48" fill="none" xmlns="http://www.w3.org/2000/svg">
<path d="M28.358 26.9293C28.6018 27.0108 28.8658 27.0516 29.1401 27.0516C30.5823 27.0516 31.7605 25.8697 31.7605 24.4228V19.6748C32.3089 20.0518 32.9995 20.2148 33.7003 20.0925C34.4113 19.9703 35.0207 19.5729 35.427 18.9718C35.8332 18.3706 35.9856 17.6574 35.8434 16.9442L35.0004 12.6648C34.6551 10.9225 33.8121 9.33305 32.5527 8.07981L31.1104 6.64317V1.01889C31.1104 0.458501 30.6534 0 30.0948 0C29.5362 0 29.0791 0.458501 29.0791 1.01889V7.06092C29.0791 7.33602 29.1909 7.59074 29.3737 7.78433L31.1104 9.52664C32.0753 10.4946 32.7355 11.7173 32.9995 13.0724L33.8425 17.3517C33.873 17.5148 33.8425 17.688 33.741 17.8306C33.6496 17.9733 33.4972 18.065 33.3347 18.0955C33.0097 18.1567 32.6949 17.9427 32.6136 17.6268L32.1769 15.8438C32.0245 15.2121 31.4456 14.8147 30.8057 14.8962C30.1659 14.9777 29.6987 15.4973 29.6987 16.1392V24.4228C29.6987 24.7489 29.4346 25.0138 29.1096 25.0138C28.8049 25.0138 28.5611 24.7896 28.5205 24.4942V20.1741C28.5205 19.6137 28.0635 19.1552 27.5049 19.1552C26.9463 19.1552 26.4892 19.6137 26.4892 20.1741V24.4228C26.4892 24.4738 26.4892 24.5349 26.4994 24.5859V25.941C26.4994 26.267 26.2353 26.5319 25.9103 26.5319C25.5853 26.5319 25.3212 26.267 25.3212 25.941V24.5859C25.3212 24.5349 25.3314 24.4738 25.3314 24.4228V20.1741C25.3314 19.6137 24.8743 19.1552 24.3157 19.1552C23.7571 19.1552 23.3001 19.6137 23.3001 20.1741V24.5043C23.2594 24.7998 23.0157 25.024 22.711 25.024C22.386 25.024 22.1219 24.7591 22.1219 24.433V22.9149C22.1219 22.8639 22.1321 22.8028 22.1321 22.7519V20.1741C22.1321 19.6137 21.675 19.1552 21.1164 19.1552C20.5578 19.1552 20.1008 19.6137 20.1008 20.1741V22.813C20.0601 23.1085 19.8164 23.3326 19.5117 23.3326C19.1867 23.3326 18.9226 23.0677 18.9226 22.7417V19.1755V16.7608V13.7856C18.9226 11.9414 19.6336 10.2093 20.9336 8.9153L22.061 7.79452C22.2539 7.60093 22.3555 7.34621 22.3555 7.07111V4.65634C22.3555 4.09595 21.8985 3.63744 21.3399 3.63744C20.7812 3.63744 20.3242 4.09595 20.3242 4.65634V6.64317L19.5015 7.46848C17.8155 9.14965 16.8913 11.4014 16.8913 13.7856V16.7608V19.1755V22.7417C16.8913 24.1885 18.0695 25.3704 19.5117 25.3704C19.7656 25.3704 20.0094 25.3297 20.2328 25.2685C20.5883 26.3078 21.5633 27.0516 22.7211 27.0516C22.9954 27.0516 23.2493 27.0108 23.5032 26.9293C23.8891 27.8871 24.8337 28.5697 25.9306 28.5697C27.0275 28.5697 27.9721 27.8973 28.358 26.9293Z" fill="#61633C"/>
<path d="M24.8437 36.9858C25.5648 36.1605 25.7171 34.9378 25.1484 33.9393C25.0163 33.705 24.8437 33.5012 24.6609 33.328C24.8741 33.0529 25.0265 32.737 25.1281 32.3906C25.3109 31.7079 25.2195 31.0049 24.864 30.3936C24.3155 29.4358 23.2593 28.9671 22.2334 29.0996C22.1725 28.8448 22.0811 28.6003 21.9491 28.366C21.6037 27.7546 21.035 27.3267 20.3545 27.1433C19.674 26.9599 18.9732 27.0516 18.3638 27.4082L14.2707 29.7822C14.3113 29.1199 14.1184 28.4373 13.6613 27.8871C13.1941 27.3369 12.5441 27.0006 11.8332 26.9395C11.112 26.8886 10.4214 27.1127 9.8831 27.5916L6.6127 30.4649C5.27203 31.6366 4.32748 33.1649 3.87043 34.8869L3.35245 36.8533L0.508617 38.4734C0.0211036 38.7587 -0.141401 39.3802 0.132826 39.8692C0.3258 40.1953 0.660965 40.3787 1.01644 40.3787C1.18911 40.3787 1.36177 40.3379 1.52427 40.2462L4.70327 38.402C4.93687 38.2696 5.10953 38.0454 5.18062 37.7805L5.81033 35.4065C6.16581 34.0819 6.89708 32.9 7.92289 31.9932L11.1933 29.1199C11.3253 29.0079 11.4878 28.9569 11.6503 28.9671C11.823 28.9773 11.9753 29.0588 12.0871 29.1913C12.3004 29.446 12.28 29.823 12.0363 30.0471L10.7159 31.3106C10.2487 31.7589 10.198 32.4517 10.5839 32.9714C10.9698 33.491 11.6503 33.6234 12.2089 33.3076L19.3591 29.1607C19.4912 29.0792 19.6537 29.0588 19.806 29.0996C19.9584 29.1403 20.0904 29.2422 20.1615 29.3747C20.2428 29.5071 20.2631 29.6701 20.2225 29.823C20.1818 29.9554 20.1006 30.0675 19.999 30.149L16.2817 32.2989C15.7942 32.5842 15.6317 33.2057 15.9059 33.6948C16.1903 34.1838 16.8099 34.3469 17.2974 34.0718L20.9639 31.9423C21.0147 31.9117 21.0553 31.8811 21.1061 31.8506L22.2741 31.1679C22.5585 31.0049 22.9139 31.1068 23.0866 31.3819C23.2491 31.6672 23.1475 32.0238 22.8733 32.197L21.7053 32.8797C21.6545 32.9 21.6037 32.9306 21.5631 32.9612L17.8966 35.0906C17.4091 35.3759 17.2466 35.9975 17.5208 36.4865C17.5614 36.5477 17.6021 36.619 17.6529 36.6699C17.8458 36.8839 18.1201 36.996 18.4044 36.996C18.5771 36.996 18.7498 36.9552 18.9123 36.8635L22.6499 34.7035C22.9241 34.5914 23.2389 34.6933 23.3913 34.9582C23.5538 35.2435 23.4522 35.6001 23.178 35.7733L21.8678 36.5375C21.817 36.5579 21.7662 36.5884 21.7256 36.619L19.5013 37.8824C19.0138 38.1677 18.8513 38.7892 19.1255 39.2783C19.3084 39.5941 19.6435 39.7877 20.0092 39.7877C20.1818 39.7877 20.3545 39.747 20.517 39.6553L22.8022 38.3307C22.9241 38.2798 23.0561 38.2696 23.178 38.3103C23.3304 38.3511 23.4624 38.453 23.5335 38.5854C23.696 38.8707 23.5944 39.2273 23.3202 39.4006L20.0701 41.2855L15.5911 43.8837C13.9965 44.8007 12.148 45.0452 10.3808 44.5663L8.84713 44.1486C8.58306 44.0773 8.30884 44.118 8.07524 44.2505L4.89624 46.0947C4.40873 46.38 4.24622 47.0015 4.52045 47.4906C4.71342 47.8166 5.04859 48 5.40407 48C5.57673 48 5.74939 47.9593 5.91189 47.8676L8.72526 46.2373L9.85263 46.543C12.148 47.1645 14.5551 46.8487 16.6067 45.6566L19.1763 44.169L21.0858 43.0584L21.2584 42.9565L24.3359 41.1734C25.5851 40.45 26.0218 38.8402 25.3007 37.5767C25.1687 37.3526 25.0265 37.159 24.8437 36.9858Z" fill="#61633C"/>
<path d="M51.4945 38.4734L48.6812 36.8431L48.3765 35.7122C47.7671 33.4095 46.2944 31.4736 44.2326 30.2815L39.7536 27.6833L36.5035 25.7983C35.8941 25.4519 35.1933 25.35 34.5128 25.5334C33.8323 25.7168 33.2737 26.155 32.9182 26.7561C32.7963 26.9701 32.7049 27.2044 32.644 27.4388C32.258 27.3572 31.8518 27.3674 31.4557 27.4795C30.7752 27.6629 30.2166 28.101 29.8611 28.7022C29.7291 28.9365 29.6275 29.1811 29.5767 29.4358C28.5509 29.2931 27.4946 29.772 26.9462 30.7298C26.3977 31.6875 26.5094 32.8389 27.1493 33.6642C26.9563 33.8374 26.7938 34.0514 26.6618 34.2857C25.9407 35.5389 26.3673 37.159 27.6267 37.8824L31.7197 40.2564C31.1205 40.5519 30.633 41.0715 30.3892 41.7338C30.1455 42.4165 30.176 43.1501 30.4908 43.792C30.8057 44.4441 31.344 44.9331 32.0346 45.1675L36.148 46.5735C37.8238 47.1441 39.6215 47.2053 41.3278 46.7468L43.288 46.2169L46.1014 47.8472C46.2639 47.9389 46.4366 47.9796 46.6092 47.9796C46.9647 47.9796 47.2999 47.7962 47.4929 47.4702C47.7772 46.9811 47.6046 46.3596 47.1171 46.0743L43.9381 44.2301C43.7045 44.0976 43.4302 44.0569 43.1662 44.1282L40.7997 44.7701C39.4793 45.1267 38.0981 45.086 36.798 44.6377L32.6846 43.2316C32.5221 43.1806 32.3901 43.0584 32.319 42.9055C32.2479 42.7527 32.2377 42.5795 32.2987 42.4165C32.4104 42.1108 32.7456 41.9376 33.0604 42.0293L34.8175 42.5387C35.437 42.7221 36.0667 42.4165 36.3207 41.8255C36.5746 41.2346 36.3511 40.5621 35.7925 40.2462L28.6423 36.0993C28.3579 35.9363 28.2665 35.5695 28.429 35.2842C28.5103 35.1518 28.6322 35.0499 28.7845 35.0091C28.9165 34.9786 29.0384 34.9887 29.1603 35.0295L32.8979 37.1896C33.0604 37.2813 33.2331 37.322 33.4057 37.322C33.6901 37.322 33.9542 37.1997 34.1573 36.996C34.2081 36.945 34.2589 36.8737 34.2894 36.8126C34.5737 36.3235 34.4011 35.702 33.9136 35.4167L30.2471 33.2872C30.1963 33.2566 30.1455 33.2363 30.1049 33.2057L28.9369 32.523C28.6525 32.36 28.5611 31.9932 28.7236 31.7079C28.8048 31.5755 28.9267 31.4736 29.079 31.4328C29.2314 31.3921 29.3939 31.4124 29.5259 31.4939L30.6939 32.1766C30.7346 32.2072 30.7853 32.2377 30.8361 32.2683L34.5026 34.3978C34.6651 34.4895 34.8378 34.5302 35.0105 34.5302C35.2949 34.5302 35.5589 34.408 35.7621 34.2042C35.8128 34.1533 35.8636 34.0819 35.8941 34.0208C36.1785 33.5317 36.0058 32.9102 35.5183 32.6249L31.7908 30.5056C31.6791 30.4241 31.5979 30.312 31.5674 30.1796C31.5268 30.0267 31.5471 29.8637 31.6283 29.7313C31.7096 29.5988 31.8315 29.4969 31.9838 29.4562C32.1362 29.4154 32.2987 29.4358 32.4307 29.5173L33.7409 30.2815C33.7815 30.312 33.8323 30.3426 33.8831 30.3732L36.0972 31.657C36.2597 31.7487 36.4324 31.7894 36.605 31.7894C36.8894 31.7894 37.1535 31.6672 37.3566 31.4634C37.4074 31.4022 37.4582 31.3411 37.4887 31.28C37.773 30.7909 37.6004 30.1694 37.1129 29.8841L34.8276 28.5595C34.594 28.3761 34.523 28.0501 34.6753 27.7954C34.7566 27.6629 34.8784 27.561 35.0308 27.5203C35.1831 27.4795 35.3456 27.4999 35.4777 27.5814L38.5551 29.3645L38.7278 29.4664L40.6372 30.5769L43.2068 32.0645C44.8014 32.9815 45.9287 34.4691 46.4061 36.2522L46.8124 37.7907C46.8835 38.0556 47.0561 38.2798 47.2897 38.4122L50.4687 40.2564C50.6312 40.3481 50.8039 40.3889 50.9765 40.3889C51.332 40.3889 51.6672 40.2055 51.8602 39.8794C52.1445 39.3802 51.982 38.7586 51.4945 38.4734Z" fill="#61633C"/>
</svg>
