<svg width="48" height="48" viewBox="0 0 48 48" fill="none" xmlns="http://www.w3.org/2000/svg">
<path d="M27.0314 20.0623C27.0314 18.3909 25.6716 17.0311 24.0002 17.0311C22.3288 17.0311 20.969 18.391 20.969 20.0623C20.969 21.7337 22.3288 23.0935 24.0002 23.0935C25.6716 23.0935 27.0314 21.7337 27.0314 20.0623ZM22.8439 20.0623C22.8439 19.4247 23.3626 18.9061 24.0001 18.9061C24.6376 18.9061 25.1563 19.4248 25.1563 20.0623C25.1563 20.6998 24.6376 21.2185 24.0001 21.2185C23.3626 21.2185 22.8439 20.6998 22.8439 20.0623Z" fill="#61633C"/>
<path d="M47.9271 33.7899L46.3862 30.1101L47.2239 28.8337C47.9169 27.7778 48.1217 26.4738 47.7859 25.2562L47.0072 22.433C46.6659 21.1954 45.8851 20.1288 44.8085 19.4295C44.635 19.3167 44.4301 19.2664 44.2262 19.282C43.7855 10.0501 37.0746 2.18661 27.9436 0.383811C27.4359 0.283406 26.9425 0.614058 26.8422 1.12199C26.7419 1.62992 27.0723 2.12304 27.5804 2.22335C36.1529 3.9159 42.3749 11.4971 42.3749 20.2498C42.3749 20.5091 42.3674 20.7699 42.3566 21.0298L40.3992 22.0754C40.4658 21.4704 40.4999 20.8595 40.4999 20.2498C40.4999 19.232 40.4066 18.2356 40.2294 17.2682C40.2255 17.2417 40.2204 17.2156 40.2143 17.1896C38.7753 9.54872 32.0528 3.74996 24.0001 3.74996C15.944 3.74996 9.21914 9.55369 7.78403 17.1994C7.77915 17.2212 7.77465 17.2431 7.77137 17.2653C7.59372 18.2336 7.50025 19.2309 7.50025 20.2498C7.50025 20.8598 7.53447 21.4703 7.60103 22.0754L5.64261 21.0293C5.63183 20.7705 5.62527 20.5093 5.62527 20.2498C5.62527 11.4859 11.8568 3.90278 20.4424 2.21895C20.9504 2.11929 21.2816 1.62664 21.1819 1.11852C21.0822 0.61059 20.5902 0.279374 20.0815 0.37903C10.9362 2.17264 4.21481 10.0384 3.77391 19.2821C3.57001 19.2665 3.36517 19.3168 3.19164 19.4296C2.11512 20.1289 1.33428 21.1955 0.992939 22.4331L0.214259 25.2563C-0.121643 26.4739 0.083292 27.7778 0.776285 28.8338L1.61393 30.1102L0.0729796 33.7899C-0.126987 34.2674 0.0981044 34.8167 0.575662 35.0167C0.693974 35.0663 0.816597 35.0897 0.937346 35.0897C1.30391 35.0897 1.65209 34.8732 1.80256 34.514L3.23636 31.0898L7.31388 31.95L3.7756 46.8453C3.65598 47.3491 3.96732 47.8545 4.47103 47.9741C4.54387 47.9915 4.61672 47.9996 4.68843 47.9996C5.11274 47.9996 5.4974 47.7095 5.59977 47.2787L8.83383 33.6643C12.6562 37.9784 18.1764 40.4995 24 40.4995C27.2246 40.4995 30.4334 39.7226 33.2796 38.2527C35.4977 37.1072 37.5054 35.5386 39.1663 33.6651L42.4001 47.2786C42.5025 47.7095 42.8871 47.9995 43.3115 47.9995C43.3832 47.9995 43.456 47.9913 43.5289 47.974C44.0327 47.8544 44.344 47.349 44.2243 46.8452L40.6862 31.9501L44.7637 31.0899L46.1975 34.5141C46.348 34.8734 46.6961 35.0898 47.0627 35.0898C47.1834 35.0898 47.3061 35.0663 47.4244 35.0168C47.902 34.8167 48.127 34.2674 47.9271 33.7899ZM43.9426 22.3083C44.0862 22.2316 44.2074 22.1188 44.2942 21.9809L44.5113 21.6362C44.8306 22.0091 45.0669 22.4503 45.1997 22.9317L45.9783 25.7549C46.1708 26.4527 46.0534 27.2001 45.6563 27.8052L44.7574 29.1751L39.8637 30.2074L38.9971 29.3166C38.3421 28.6432 37.9814 27.7552 37.9814 26.8157V24.5546C37.9814 24.2768 38.1692 24.0343 38.4383 23.9649L38.659 23.9079C39.324 24.2953 40.1644 24.3265 40.8633 23.9531L43.9426 22.3083ZM11.7821 23.8242H17.3498C19.0524 23.8242 20.4376 25.2093 20.4376 26.912V34.4391C16.8813 33.5549 13.7686 31.3572 11.7186 28.1903C11.8334 27.7463 11.8938 27.2855 11.8938 26.8158V24.5546C11.8937 24.3015 11.8536 24.0565 11.7821 23.8242ZM17.3498 21.9492H9.47311C9.40814 21.3865 9.37514 20.8179 9.37514 20.2498C9.37514 19.5428 9.42661 18.8478 9.52401 18.1674L19.0431 15.8706C22.2859 15.0883 25.7141 15.0883 28.9569 15.8706L38.476 18.1673C38.5734 18.8477 38.6249 19.5428 38.6249 20.2498C38.6249 20.8178 38.5914 21.3866 38.5264 21.9492H30.6504C27.9139 21.9492 25.6876 24.1754 25.6876 26.912V34.7772C25.1318 34.8406 24.569 34.8747 24.0001 34.8747C23.4312 34.8747 22.8684 34.8406 22.3126 34.7772V26.912C22.3126 24.1754 20.0863 21.9492 17.3498 21.9492ZM27.5626 26.9119C27.5626 25.2093 28.9477 23.8241 30.6504 23.8241H36.2181C36.1466 24.0565 36.1065 24.3014 36.1065 24.5545V26.8156C36.1065 27.2853 36.1668 27.7462 36.2817 28.1902C34.2317 31.3571 31.119 33.5547 27.5626 34.4389V26.9119ZM24.0001 5.62495C30.6348 5.62495 36.2509 10.0663 38.0338 16.1318L29.3967 14.0478C25.8662 13.1961 22.1337 13.1961 18.6035 14.0478L9.96641 16.1318C11.7492 10.0663 17.3653 5.62495 24.0001 5.62495ZM2.02174 25.7548L2.80042 22.9316C2.93326 22.4502 3.16951 22.009 3.48882 21.6361L3.70585 21.9808C3.79266 22.1186 3.91388 22.2315 4.0575 22.3082L7.13679 23.953C7.83568 24.3263 8.67605 24.2952 9.34111 23.9078L9.56189 23.9648C9.83095 24.0342 10.0188 24.2767 10.0188 24.5545V26.8156C10.0188 27.7551 9.65807 28.6432 9.00305 29.3166L8.13643 30.2074L3.24282 29.175L2.34377 27.8051C1.94665 27.2 1.82927 26.4527 2.02174 25.7548ZM24.0001 38.6246C18.3189 38.6246 12.9557 35.9802 9.48295 31.5122L10.3469 30.6241C10.5026 30.464 10.646 30.2952 10.7795 30.1203C12.1473 31.9481 13.8874 33.4872 15.8759 34.6141C18.3411 36.0113 21.1504 36.7497 24.0002 36.7497C26.8503 36.7497 29.6601 36.011 32.1256 34.6135C34.1136 33.4865 35.8533 31.9477 37.2208 30.1203C37.3543 30.2953 37.4976 30.4641 37.6533 30.6242L38.5181 31.5131C35.0491 35.974 29.6574 38.6246 24.0001 38.6246Z" fill="#61633C"/>
<path d="M24.0001 1.875H24.0231C24.5409 1.875 24.9606 1.45528 24.9606 0.9375C24.9606 0.419719 24.5409 0 24.0231 0H24.0001C23.4823 0 23.0626 0.419719 23.0626 0.9375C23.0626 1.45528 23.4823 1.875 24.0001 1.875Z" fill="#61633C"/>
</svg>
