<svg width="48" height="48" viewBox="0 0 48 48" fill="none" xmlns="http://www.w3.org/2000/svg">
<path d="M10.8386 1.54839C12.6774 1.54839 14.4096 2.27419 15.7064 3.59032L16.8096 2.50645C15.2128 0.890323 13.0935 0 10.8386 0C8.5838 0 6.46445 0.890323 4.86768 2.49677L5.9709 3.58065C7.26768 2.27419 8.99993 1.54839 10.8386 1.54839Z" fill="#61633C"/>
<path d="M14.642 4.68387C13.6258 3.65806 12.271 3.09677 10.8387 3.09677C9.40649 3.09677 8.05165 3.65806 7.03552 4.68387L8.13875 5.76774C8.85488 5.05161 9.82262 4.64516 10.8387 4.64516C11.8549 4.64516 12.8226 5.05161 13.5387 5.77742L14.642 4.68387Z" fill="#61633C"/>
<path d="M9.20325 6.88065L10.3065 7.96452C10.5968 7.6742 11.0903 7.6742 11.371 7.96452L12.4742 6.88065C11.6033 6.00001 10.0742 6.00001 9.20325 6.88065Z" fill="#61633C"/>
<path d="M19.3548 18.5807H18.7935L19.3258 16.4419L19.3452 16.2581C19.3452 13.471 17.5548 11.0516 14.8839 10.2194C14.5742 10.1226 14.2935 10.0355 14.0323 9.94839C12.9097 9.58065 12.0097 9.29033 10.8387 9.29033C9.66774 9.29033 8.76774 9.58065 7.63548 9.94839C7.36452 10.0355 7.08387 10.1226 6.78387 10.2194C4.1129 11.0516 2.32258 13.471 2.32258 16.2581L2.88387 18.5807H2.32258C1.04516 18.5807 0 19.6258 0 20.9032C0 22.1807 1.04516 23.2258 2.32258 23.2258H3.09677V28.5678L2.34194 32.3613L2.32258 32.5161C2.32258 35.2645 4.25806 37.6452 6.93871 38.1774L7.55806 38.3032C8.64194 38.5258 9.50323 38.7097 10.8387 38.7097C12.1742 38.7097 13.0355 38.5355 14.1194 38.3032L14.7387 38.1774C16.2677 37.8678 17.6226 36.9387 18.4548 35.6129C19.0355 34.6839 19.3452 33.6194 19.3452 32.5161L18.571 28.5678V23.2258H19.3452C20.6226 23.2258 21.6677 22.1807 21.6677 20.9032C21.6677 19.6258 20.6323 18.5807 19.3548 18.5807ZM8.41936 11.3226C9.3 11.0419 10.0065 10.8387 10.8387 10.8387C11.671 10.8387 12.3774 11.0419 13.2581 11.3226L14.4871 16.2581H7.18064L8.41936 11.3226ZM6.96774 17.8065H14.7097V19.3548H6.96774V17.8065ZM7.69355 30.9677L7.5871 29.4194H14.0903L13.9839 30.9677H7.69355ZM13.4613 32.5161L12.7452 33.9581C12.1645 34.0258 11.5355 34.0645 10.8484 34.0645C10.1613 34.0645 9.53226 34.0258 8.95161 33.9581L8.21613 32.5161H13.4613ZM7.48065 27.871L7.01613 20.9032H14.6516L14.1871 27.871H7.48065ZM3.09677 21.6774H2.32258C1.89677 21.6774 1.54839 21.329 1.54839 20.9032C1.54839 20.4774 1.89677 20.129 2.32258 20.129H3.09677V21.6774ZM3.94839 32.2065L4.63548 28.7903L4.64516 19.3548L3.87097 16.171C3.90968 14.3129 5.00323 12.6871 6.66774 11.9323L5.41935 16.9355V20.1774L6.20323 31.9452L7.02581 33.5903C5.40968 33.1645 4.4129 32.5452 3.94839 32.2065ZM17.1484 34.7807C16.529 35.7677 15.5613 36.4258 14.4387 36.6581L13.8097 36.7839C12.7742 36.9968 12.029 37.1516 10.8387 37.1516C9.64839 37.1516 8.90323 36.9968 7.86774 36.7839L7.23871 36.6581C5.86452 36.3774 4.76129 35.429 4.22903 34.1903C5.56452 34.8774 7.72258 35.6129 10.8387 35.6129C13.9645 35.6129 16.1323 34.8677 17.4581 34.1903C17.371 34.3936 17.2742 34.5968 17.1484 34.7807ZM17.0516 19.171L17.0323 28.6452L17.729 32.2065C17.2645 32.5452 16.2677 33.1645 14.6419 33.5903L15.4645 31.9452L16.2581 20.129V17.0323L15 11.9226C16.6742 12.6774 17.7677 14.3032 17.8065 16.1613L17.0516 19.171ZM19.3548 21.6774H18.5806V20.129H19.3548C19.7806 20.129 20.129 20.4774 20.129 20.9032C20.129 21.329 19.7806 21.6774 19.3548 21.6774Z" fill="#61633C"/>
<path d="M37.1613 46.4516C35.3226 46.4516 33.5903 45.7258 32.2935 44.4097L31.1903 45.4935C32.7871 47.1 34.9064 47.9903 37.1613 47.9903C39.4161 47.9903 41.5355 47.1 43.1322 45.4935L42.029 44.4097C40.7322 45.7258 39 46.4516 37.1613 46.4516Z" fill="#61633C"/>
<path d="M33.3582 43.3161C34.3743 44.3419 35.7194 44.9032 37.1614 44.9032C38.6033 44.9032 39.9485 44.3419 40.9646 43.3161L39.8614 42.2322C39.1356 42.958 38.1775 43.3645 37.1614 43.3645C36.1452 43.3645 35.1775 42.958 34.4614 42.2322L33.3582 43.3161Z" fill="#61633C"/>
<path d="M38.7967 41.1194L37.6935 40.0355C37.4032 40.3258 36.9096 40.3258 36.629 40.0355L35.5258 41.1194C35.9612 41.5645 36.5419 41.8065 37.1612 41.8065C37.7806 41.8065 38.3612 41.5645 38.7967 41.1194Z" fill="#61633C"/>
<path d="M45.6775 24.7742H44.9033V19.4323L45.6581 15.6387L45.6775 15.4839C45.6775 12.7355 43.742 10.3548 41.0613 9.82259L40.442 9.69678C39.3581 9.46452 38.5065 9.29033 37.1613 9.29033C35.8162 9.29033 34.9646 9.46452 33.8807 9.69678L33.2613 9.82259C30.5807 10.3548 28.6452 12.7355 28.6452 15.4839L29.4194 19.4323V24.7742H28.6452C27.3678 24.7742 26.3226 25.8194 26.3226 27.0968C26.3226 28.3742 27.3678 29.4194 28.6452 29.4194H29.2065L28.6742 31.5581L28.6452 31.7419C28.6452 34.529 30.4355 36.9484 33.1065 37.7807C33.4162 37.8774 33.6968 37.9645 33.9581 38.0516C35.0904 38.4194 35.9807 38.7097 37.1613 38.7097C38.342 38.7097 39.2323 38.4194 40.3646 38.0516C40.6355 37.9645 40.9162 37.8774 41.2162 37.7807C43.8871 36.9581 45.6775 34.529 45.6775 31.7419L45.1162 29.4194H45.6775C46.9549 29.4194 48 28.3742 48 27.0968C48 25.8194 46.9549 24.7742 45.6775 24.7742ZM29.4194 27.871H28.6452C28.2194 27.871 27.871 27.5226 27.871 27.0968C27.871 26.671 28.2194 26.3226 28.6452 26.3226H29.4194V27.871ZM33.5613 11.3419L34.1904 11.2161C35.2259 11.0032 35.971 10.8484 37.1613 10.8484C38.3517 10.8484 39.0968 11.0032 40.1323 11.2161L40.7613 11.3419C42.1355 11.6226 43.2388 12.571 43.771 13.8097C42.4355 13.1226 40.2775 12.3871 37.1613 12.3871C34.0452 12.3871 31.8871 13.1226 30.5517 13.8097C31.0839 12.571 32.1871 11.6129 33.5613 11.3419ZM40.3065 17.0323L40.413 18.5807H33.9097L34.0162 17.0323H40.3065ZM34.5388 15.4839L35.2549 14.0419C35.8355 13.9742 36.4646 13.9355 37.1517 13.9355C37.8388 13.9355 38.4678 13.9742 39.0484 14.0419L39.7646 15.4839H34.5388ZM40.5194 20.129L40.9839 27.0968H33.3484L33.813 20.129H40.5194ZM33.0001 36.0774C31.3355 35.3226 30.2323 33.6968 30.1936 31.8387L30.9484 28.8387L30.9678 19.3548L30.271 15.7936C30.7355 15.4548 31.7323 14.8355 33.3581 14.4097L32.5355 16.0548L31.742 27.871V30.9677L33.0001 36.0774ZM39.5807 36.6774C38.7 36.9581 37.9936 37.1613 37.1613 37.1613C36.3291 37.1613 35.6226 36.9581 34.742 36.6774L33.513 31.7419H40.8194L39.5807 36.6774ZM41.0323 30.1936H33.2904V28.6452H41.0323V30.1936ZM41.3323 36.0678L42.5807 31.0645V27.8226L41.7968 16.0548L40.9742 14.4097C42.5904 14.8355 43.5968 15.4548 44.0613 15.7936L43.3742 19.2097L43.3549 28.6452L44.1291 31.829C44.0904 33.6968 42.9968 35.3129 41.3323 36.0678ZM45.6775 27.871H44.9033V26.3226H45.6775C46.1033 26.3226 46.4517 26.671 46.4517 27.0968C46.4517 27.5226 46.1033 27.871 45.6775 27.871Z" fill="#61633C"/>
</svg>
