<svg id="Слой_1" data-name="Слой 1" xmlns="http://www.w3.org/2000/svg" viewBox="0 0 469.17 385.34"><defs><style>.cls-1{fill:#00a921;}</style></defs><title>Монтажная область 1</title><path class="cls-1" d="M334.43,101.58c39.78,30.27,65.88,77.63,65.88,131.47A165.7,165.7,0,0,1,299.85,385.34H405.78c39-41.89,63.39-97.66,63.39-159.43,0-55.93-20-106.93-52.63-147.24-21.11-11.2-43-21.08-66.15-28.29Z"/><path class="cls-1" d="M63.39,385.34H169.34A165.61,165.61,0,0,1,142.75,95.2L129.3,47.28C101.77,55,76.07,66.61,51.37,79.86A233.26,233.26,0,0,0,0,225.91C0,287.68,24.37,343.45,63.39,385.34Z"/><path class="cls-1" d="M416.54,78.66C387.72,43.1,349.1,15.79,304.34,1.87L281.61,74.93l-47,151L191.83,73.61,171.15,0A235.86,235.86,0,0,0,0,225.91c0,61.77,24.37,117.54,63.39,159.43H169.34A165.61,165.61,0,0,1,142.75,95.2l81.48,290.14h21.86l88.35-283.76c39.78,30.27,65.88,77.63,65.88,131.47A165.7,165.7,0,0,1,299.85,385.34H405.78c39-41.89,63.39-97.66,63.39-159.43C469.17,170,449.19,119,416.54,78.66Z"/></svg>