<svg width="32" height="11" fill="none" xmlns="http://www.w3.org/2000/svg"><path fill-rule="evenodd" clip-rule="evenodd" d="M11.244 9.932L12.78.745h2.52l-1.588 9.187h-2.467zM22.808.966A6.932 6.932 0 0 0 20.561.58c-2.466 0-4.22 1.265-4.22 3.025 0 1.32 1.26 2.035 2.192 2.53.987.44 1.316.716 1.316 1.156 0 .605-.768.88-1.48.88-.987 0-1.535-.165-2.357-.495l-.329-.165-.329 2.035c.603.275 1.645.495 2.796.495 2.63 0 4.33-1.21 4.384-3.135 0-1.045-.657-1.87-2.082-2.53-.987-.386-1.48-.66-1.48-1.046 0-.385.438-.825 1.425-.825.822 0 1.425.165 1.863.33l.22.11.328-1.98zm3.343 5.72c.22-.495.987-2.586.987-2.586s.219-.55.328-.88l.165.77s.493 2.2.603 2.641H26.15v.055zM29.275.745h-1.918c-.603 0-1.041.165-1.316.77L22.26 9.987h2.63s.439-1.156.549-1.376h3.233c.055.33.33 1.376.33 1.376h2.301L29.275.745zm-20.169 0L6.64 7.016l-.274-1.265C5.927 4.266 4.503 2.67 2.913 1.9l2.302 8.03h2.63L11.793.746H9.106z" fill="#A3A3A3"/><path fill-rule="evenodd" clip-rule="evenodd" d="M4.393.745H.337v.22C3.461 1.68 5.544 3.55 6.421 5.75l-.877-4.236C5.38.91 4.941.745 4.394.745z" fill="#D8D8D8"/></svg>